<?xml version="1.0" standalone="no"?>
<!DOCTYPE svg PUBLIC "-//W3C//DTD SVG 20010904//EN"
 "http://www.w3.org/TR/2001/REC-SVG-20010904/DTD/svg10.dtd">
<svg version="1.0" xmlns="http://www.w3.org/2000/svg"
 width="500.000000pt" height="500.000000pt" viewBox="0 0 500.000000 500.000000"
 preserveAspectRatio="xMidYMid meet">
<metadata>
Created by potrace 1.14, written by Peter Selinger 2001-2017
</metadata>
<g transform="translate(0.000000,500.000000) scale(0.100000,-0.100000)"
fill="#000000" stroke="none">
<path d="M2428 4854 c-2 -1 -39 -3 -83 -5 -44 -1 -84 -5 -90 -8 -5 -3 -23 -6
-40 -7 -29 -1 -103 -11 -148 -20 -12 -2 -33 -6 -47 -9 -58 -11 -71 -14 -78
-19 -8 -5 -60 -16 -92 -20 -8 -1 -26 -8 -40 -16 -14 -7 -25 -12 -25 -11 0 2
-12 0 -27 -4 -16 -4 -28 -11 -28 -15 0 -4 -12 -6 -26 -4 -15 1 -28 -3 -31 -12
-3 -8 -9 -11 -14 -9 -5 3 -21 -1 -37 -9 -16 -8 -32 -12 -36 -9 -3 4 -6 1 -6
-5 0 -7 -9 -12 -20 -12 -11 0 -20 -4 -20 -10 0 -5 -3 -9 -7 -8 -9 1 -42 -10
-63 -22 -8 -5 -35 -19 -60 -31 -51 -26 -192 -110 -200 -119 -3 -3 -21 -16 -40
-27 -19 -12 -45 -31 -57 -43 -13 -11 -23 -19 -23 -16 0 5 -40 -27 -81 -66 -16
-14 -29 -23 -29 -20 0 4 -5 -1 -11 -11 -6 -9 -14 -15 -20 -12 -5 4 -9 -1 -9
-9 0 -9 -4 -16 -9 -16 -20 0 -288 -279 -300 -312 -2 -6 -17 -24 -32 -41 -16
-16 -29 -36 -29 -43 0 -7 -3 -14 -7 -16 -12 -5 -53 -66 -53 -78 0 -5 -4 -10
-10 -10 -5 0 -10 -7 -10 -15 0 -8 -9 -24 -20 -35 -11 -11 -20 -26 -20 -34 0
-7 -7 -19 -15 -26 -8 -7 -15 -18 -15 -24 0 -6 -11 -28 -25 -49 -14 -20 -23
-37 -19 -37 3 0 -1 -11 -10 -25 -9 -13 -16 -31 -16 -40 0 -8 -4 -15 -10 -15
-5 0 -10 -7 -10 -15 0 -8 -6 -29 -14 -47 -39 -90 -44 -104 -48 -123 -1 -11 -6
-22 -10 -25 -4 -3 -9 -17 -11 -30 -2 -14 -7 -32 -10 -40 -11 -29 -31 -95 -33
-110 -2 -16 -7 -44 -21 -105 -6 -22 -9 -50 -8 -62 1 -13 -1 -23 -5 -23 -6 0
-8 -10 -12 -90 -2 -30 -7 -61 -11 -67 -5 -8 -3 -13 4 -13 8 0 8 -4 2 -12 -6
-8 -9 -94 -7 -213 4 -231 6 -247 19 -257 6 -5 5 -8 -3 -8 -9 0 -10 -5 -4 -17
5 -10 10 -34 11 -53 2 -32 7 -68 11 -80 1 -3 2 -9 1 -14 -1 -5 1 -16 5 -25 8
-18 10 -27 20 -88 4 -24 10 -43 13 -43 4 0 8 -9 9 -20 4 -44 6 -50 15 -50 6 0
8 -3 4 -6 -6 -6 13 -67 37 -119 8 -16 18 -42 21 -58 4 -15 11 -30 16 -33 5 -3
9 -14 9 -25 0 -10 5 -19 12 -19 6 0 9 -3 5 -6 -3 -3 6 -26 19 -50 14 -24 22
-44 19 -44 -3 0 5 -15 19 -32 24 -32 26 -37 26 -59 0 -5 5 -7 12 -3 6 4 8 3 4
-4 -3 -6 0 -17 8 -25 8 -8 13 -17 10 -19 -2 -3 2 -11 11 -18 8 -7 15 -16 15
-21 0 -7 35 -60 120 -183 8 -11 20 -25 27 -29 7 -4 13 -12 13 -17 0 -6 8 -18
18 -29 9 -10 35 -40 57 -66 68 -82 72 -85 80 -77 5 4 5 2 2 -4 -3 -6 30 -44
74 -85 45 -41 92 -84 105 -97 13 -12 26 -22 29 -22 3 0 16 -10 29 -22 52 -52
106 -98 112 -98 4 0 23 -12 43 -27 20 -16 38 -28 41 -28 10 0 105 -59 112 -69
4 -6 8 -8 8 -3 0 6 87 -34 182 -84 10 -5 24 -9 32 -9 8 0 22 -7 30 -16 9 -8
16 -13 16 -10 0 2 37 -9 83 -26 45 -16 89 -32 97 -33 8 -2 15 -4 15 -5 0 -1 7
-3 15 -5 8 -2 44 -11 80 -20 89 -22 101 -24 135 -30 17 -3 37 -8 45 -10 8 -2
34 -5 58 -7 24 -1 45 -5 48 -9 2 -4 18 -4 34 1 17 5 30 5 30 1 0 -5 32 -8 70
-7 39 1 70 -1 70 -4 0 -3 26 -4 57 -3 32 1 112 3 178 5 66 2 123 8 127 13 5 6
8 5 8 -3 0 -7 5 -10 10 -7 6 4 32 9 58 11 49 5 72 8 132 20 54 10 65 12 65 14
0 1 11 4 25 6 14 3 43 10 65 16 49 14 47 14 65 20 8 4 24 8 35 11 11 3 58 20
105 37 47 18 100 38 118 44 17 6 32 14 32 18 0 3 14 9 30 13 17 4 30 11 30 16
0 6 4 8 9 4 5 -3 17 2 25 11 9 9 22 17 29 18 17 3 110 58 119 71 4 5 8 6 8 1
0 -4 15 3 34 18 19 14 37 26 41 26 19 0 186 135 178 144 -4 3 1 6 10 6 9 0 17
5 17 12 0 6 2 9 6 6 3 -3 27 16 54 42 27 26 61 57 76 69 15 12 24 21 21 21 -3
0 16 22 41 48 26 26 63 67 82 91 19 23 47 57 62 74 15 18 28 36 28 41 0 4 14
24 30 43 17 19 27 40 24 46 -4 7 -3 9 1 4 8 -7 61 67 63 87 0 5 4 12 9 15 14
10 65 101 56 101 -4 0 -1 5 8 10 8 5 21 27 29 50 7 22 17 40 22 40 5 0 6 5 3
10 -3 6 -1 10 4 10 6 0 10 3 9 8 -1 4 9 30 21 57 12 28 23 55 24 60 1 6 4 12
7 15 4 4 51 138 56 160 0 3 6 18 13 34 6 16 9 31 7 34 -3 2 0 14 6 26 7 11 13
30 15 41 2 11 5 31 7 45 2 14 5 25 6 25 2 0 9 33 16 78 7 44 12 70 14 77 1 3
2 17 2 33 1 15 5 27 11 27 5 0 5 5 -2 13 -6 8 -7 17 -3 21 12 13 21 354 9 373
-4 7 -2 15 3 18 7 5 5 12 -7 22 -10 8 -13 12 -7 9 12 -6 12 27 -1 125 -8 65
-13 87 -21 101 -4 6 -3 8 3 5 9 -5 -13 101 -40 196 -6 20 -10 44 -10 52 0 8
-4 15 -9 15 -4 0 -7 3 -6 8 2 6 -15 65 -29 102 -4 8 -7 17 -8 20 -1 3 -5 13
-9 22 -4 9 -9 22 -10 30 -7 35 -119 266 -161 333 -56 88 -65 105 -65 110 0 3
-9 15 -20 27 -11 12 -20 28 -20 35 0 7 -8 13 -17 13 -9 0 -14 3 -10 6 3 4 -10
26 -30 50 -19 24 -33 44 -31 44 6 0 -71 87 -143 161 -31 32 -60 55 -64 51 -5
-4 -5 -2 -2 4 6 11 -48 64 -66 64 -4 0 -5 5 -2 10 3 6 3 10 -2 10 -4 0 -20 10
-35 23 -60 50 -68 57 -73 57 -3 0 -14 8 -24 18 -33 29 -45 38 -122 88 -41 27
-76 52 -77 57 -2 4 -8 5 -13 1 -5 -3 -9 0 -9 5 0 6 -6 11 -14 11 -8 0 -16 3
-18 8 -1 4 -27 19 -56 34 -29 15 -65 34 -80 42 -53 28 -154 70 -164 68 -5 -1
-8 3 -8 8 0 6 -6 10 -12 9 -7 -1 -26 3 -43 10 -16 7 -34 14 -40 15 -5 1 -15 5
-21 8 -6 4 -26 10 -44 13 -19 3 -40 11 -47 17 -8 6 -16 8 -20 5 -3 -4 -15 -1
-27 5 -11 7 -28 12 -36 13 -8 1 -42 8 -75 15 -66 15 -76 17 -150 26 -27 3 -55
10 -60 15 -6 4 -17 4 -25 -1 -8 -5 -19 -6 -24 -2 -15 9 -310 24 -318 16z"/>
</g>
</svg>
