<?xml version="1.0" standalone="no"?>
<!DOCTYPE svg PUBLIC "-//W3C//DTD SVG 20010904//EN"
 "http://www.w3.org/TR/2001/REC-SVG-20010904/DTD/svg10.dtd">
<svg version="1.0" xmlns="http://www.w3.org/2000/svg"
 width="1254.000000pt" height="1254.000000pt" viewBox="0 0 1254.000000 1254.000000"
 preserveAspectRatio="xMidYMid meet">
<metadata>
Created by potrace 1.14, written by Peter Selinger 2001-2017
</metadata>
<g transform="translate(0.000000,1254.000000) scale(0.100000,-0.100000)"
fill="#000000" stroke="none">
<path d="M6556 8662 c-3 -5 1 -9 9 -9 8 0 12 4 9 9 -3 4 -7 8 -9 8 -2 0 -6 -4
-9 -8z"/>
<path d="M1830 8596 c0 -2 8 -10 18 -17 15 -13 16 -12 3 4 -13 16 -21 21 -21
13z"/>
<path d="M9670 8596 c0 -2 8 -10 18 -17 15 -13 16 -12 3 4 -13 16 -21 21 -21
13z"/>
<path d="M2100 8580 c-9 -6 -10 -10 -3 -10 6 0 15 5 18 10 8 12 4 12 -15 0z"/>
<path d="M2900 8580 c-9 -6 -10 -10 -3 -10 6 0 15 5 18 10 8 12 4 12 -15 0z"/>
<path d="M3380 8580 c-9 -6 -10 -10 -3 -10 6 0 15 5 18 10 8 12 4 12 -15 0z"/>
<path d="M4769 8577 c6 -8 7 -18 3 -22 -4 -5 -1 -5 6 -1 10 6 10 11 1 22 -6 8
-14 14 -16 14 -3 0 0 -6 6 -13z"/>
<path d="M8073 8575 c0 -8 4 -12 9 -9 5 3 6 10 3 15 -9 13 -12 11 -12 -6z"/>
<path d="M8945 8580 c-3 -6 1 -7 9 -4 18 7 21 14 7 14 -6 0 -13 -4 -16 -10z"/>
<path d="M9060 8580 c-9 -6 -10 -10 -3 -10 6 0 15 5 18 10 8 12 4 12 -15 0z"/>
<path d="M10901 8576 c-9 -11 -9 -16 1 -22 7 -4 10 -4 6 1 -4 4 -3 14 3 22 6
7 9 13 6 13 -2 0 -10 -6 -16 -14z"/>
<path d="M1613 8565 c0 -8 4 -12 9 -9 5 3 6 10 3 15 -9 13 -12 11 -12 -6z"/>
<path d="M7533 8565 c0 -8 4 -12 9 -9 5 3 6 10 3 15 -9 13 -12 11 -12 -6z"/>
<path d="M9453 8565 c0 -8 4 -12 9 -9 5 3 6 10 3 15 -9 13 -12 11 -12 -6z"/>
<path d="M9933 8565 c0 -8 4 -12 9 -9 5 3 6 10 3 15 -9 13 -12 11 -12 -6z"/>
<path d="M10413 8565 c0 -8 4 -12 9 -9 5 3 6 10 3 15 -9 13 -12 11 -12 -6z"/>
<path d="M1470 8559 c0 -5 5 -7 10 -4 6 3 10 8 10 11 0 2 -4 4 -10 4 -5 0 -10
-5 -10 -11z"/>
<path d="M1514 8562 c4 -3 14 -7 22 -8 9 -1 13 0 10 4 -4 3 -14 7 -22 8 -9 1
-13 0 -10 -4z"/>
<path d="M1950 8559 c0 -5 5 -7 10 -4 6 3 10 8 10 11 0 2 -4 4 -10 4 -5 0 -10
-5 -10 -11z"/>
<path d="M1995 8560 c3 -5 8 -10 11 -10 2 0 4 5 4 10 0 6 -5 10 -11 10 -5 0
-7 -4 -4 -10z"/>
<path d="M2430 8559 c0 -5 5 -7 10 -4 6 3 10 8 10 11 0 2 -4 4 -10 4 -5 0 -10
-5 -10 -11z"/>
<path d="M2475 8560 c3 -5 8 -10 11 -10 2 0 4 5 4 10 0 6 -5 10 -11 10 -5 0
-7 -4 -4 -10z"/>
<path d="M2675 8560 c3 -5 8 -10 11 -10 2 0 4 5 4 10 0 6 -5 10 -11 10 -5 0
-7 -4 -4 -10z"/>
<path d="M2750 8559 c0 -5 5 -7 10 -4 6 3 10 8 10 11 0 2 -4 4 -10 4 -5 0 -10
-5 -10 -11z"/>
<path d="M2794 8562 c4 -3 14 -7 22 -8 9 -1 13 0 10 4 -4 3 -14 7 -22 8 -9 1
-13 0 -10 -4z"/>
<path d="M3230 8559 c0 -5 5 -7 10 -4 6 3 10 8 10 11 0 2 -4 4 -10 4 -5 0 -10
-5 -10 -11z"/>
<path d="M3275 8560 c3 -5 8 -10 11 -10 2 0 4 5 4 10 0 6 -5 10 -11 10 -5 0
-7 -4 -4 -10z"/>
<path d="M3710 8559 c0 -5 5 -7 10 -4 6 3 10 8 10 11 0 2 -4 4 -10 4 -5 0 -10
-5 -10 -11z"/>
<path d="M3754 8562 c4 -3 14 -7 22 -8 9 -1 13 0 10 4 -4 3 -14 7 -22 8 -9 1
-13 0 -10 -4z"/>
<path d="M4870 8559 c0 -5 5 -7 10 -4 6 3 10 8 10 11 0 2 -4 4 -10 4 -5 0 -10
-5 -10 -11z"/>
<path d="M4915 8560 c3 -5 8 -10 11 -10 2 0 4 5 4 10 0 6 -5 10 -11 10 -5 0
-7 -4 -4 -10z"/>
<path d="M4975 8559 c-3 -4 2 -6 10 -5 21 3 28 13 10 13 -9 0 -18 -4 -20 -8z"/>
<path d="M5035 8560 c3 -5 8 -10 11 -10 2 0 4 5 4 10 0 6 -5 10 -11 10 -5 0
-7 -4 -4 -10z"/>
<path d="M6310 8559 c0 -5 5 -7 10 -4 6 3 10 8 10 11 0 2 -4 4 -10 4 -5 0 -10
-5 -10 -11z"/>
<path d="M6355 8560 c3 -5 8 -10 11 -10 2 0 4 5 4 10 0 6 -5 10 -11 10 -5 0
-7 -4 -4 -10z"/>
<path d="M9310 8559 c0 -5 5 -7 10 -4 6 3 10 8 10 11 0 2 -4 4 -10 4 -5 0 -10
-5 -10 -11z"/>
<path d="M9355 8560 c3 -5 8 -10 11 -10 2 0 4 5 4 10 0 6 -5 10 -11 10 -5 0
-7 -4 -4 -10z"/>
<path d="M9790 8559 c0 -5 5 -7 10 -4 6 3 10 8 10 11 0 2 -4 4 -10 4 -5 0 -10
-5 -10 -11z"/>
<path d="M9834 8562 c4 -3 14 -7 22 -8 9 -1 13 0 10 4 -4 3 -14 7 -22 8 -9 1
-13 0 -10 -4z"/>
<path d="M10270 8559 c0 -5 5 -7 10 -4 6 3 10 8 10 11 0 2 -4 4 -10 4 -5 0
-10 -5 -10 -11z"/>
<path d="M10315 8560 c3 -5 8 -10 11 -10 2 0 4 5 4 10 0 6 -5 10 -11 10 -5 0
-7 -4 -4 -10z"/>
<path d="M10750 8559 c0 -5 5 -7 10 -4 6 3 10 8 10 11 0 2 -4 4 -10 4 -5 0
-10 -5 -10 -11z"/>
<path d="M10796 8558 c3 -5 10 -6 15 -3 13 9 11 12 -6 12 -8 0 -12 -4 -9 -9z"/>
<path d="M2949 8543 c-13 -16 -12 -17 4 -4 16 13 21 21 13 21 -2 0 -10 -8 -17
-17z"/>
<path d="M4715 8551 c-3 -5 -2 -12 3 -15 5 -3 9 1 9 9 0 17 -3 19 -12 6z"/>
<path d="M1792 8530 c-7 -12 -17 -18 -22 -15 -6 3 -10 0 -10 -7 0 -9 -3 -9
-10 2 -5 8 -10 11 -10 5 0 -5 -5 -3 -10 5 -9 13 -10 13 -11 0 -1 -8 -1 -19 0
-25 1 -5 -8 1 -19 14 -18 21 -20 21 -20 5 0 -16 -2 -17 -10 -4 -5 8 -10 11
-10 5 0 -5 -5 -3 -10 5 -9 13 -10 13 -11 0 -1 -8 -1 -19 0 -25 1 -5 -7 0 -17
12 -18 20 -20 21 -36 5 -10 -9 -16 -12 -15 -7 4 22 -2 27 -18 14 -15 -12 -16
-12 -8 1 8 13 7 13 -10 0 -14 -11 -19 -12 -22 -2 -3 6 -9 12 -14 12 -6 0 -7
-4 -4 -10 4 -6 -2 -7 -18 -1 -18 7 -30 5 -46 -5 -14 -10 -21 -11 -19 -3 2 6
-3 14 -9 16 -7 3 -13 0 -13 -5 0 -6 -14 -8 -31 -5 -21 3 -29 1 -24 -6 4 -8 -2
-8 -20 -1 -15 6 -31 8 -36 5 -5 -3 -18 -1 -29 5 -15 8 -20 8 -20 -1 0 -7 -3
-9 -7 -6 -3 4 -13 1 -21 -6 -10 -7 -13 -7 -9 -1 4 8 -5 11 -26 11 -17 0 -43 1
-57 2 -14 0 -52 0 -85 -1 l-60 -2 0 -57 c0 -32 4 -55 8 -52 5 3 11 -5 14 -17
4 -16 8 -18 14 -8 6 9 9 7 9 -9 0 -17 6 -23 23 -23 16 0 18 -3 9 -9 -10 -6 -8
-10 8 -14 12 -3 24 -15 27 -26 3 -11 9 -19 13 -16 5 3 11 -4 15 -15 4 -11 9
-19 13 -17 10 5 42 -30 35 -37 -4 -3 1 -6 11 -6 9 0 15 -4 12 -9 -3 -5 4 -11
15 -14 11 -3 23 -15 26 -26 3 -12 11 -17 19 -14 9 3 14 -2 14 -15 0 -12 9 -23
20 -27 11 -3 20 -13 20 -21 0 -8 5 -14 10 -14 6 0 10 5 10 12 0 6 3 8 6 5 4
-4 1 -14 -7 -24 -8 -9 -9 -14 -2 -10 6 4 14 3 18 -3 4 -6 11 -8 16 -5 5 3 6
-1 3 -10 -5 -11 -2 -14 10 -9 9 3 16 2 16 -4 0 -6 -6 -13 -12 -15 -7 -3 -3 -6
10 -6 12 -1 21 -4 21 -8 -3 -20 2 -26 11 -13 8 12 10 11 10 -6 0 -13 8 -24 20
-27 11 -3 20 -12 20 -20 0 -8 9 -17 21 -20 12 -3 18 -10 14 -16 -3 -6 1 -11 9
-11 9 0 15 -3 15 -7 -3 -20 2 -26 11 -13 8 12 10 11 10 -7 0 -14 6 -23 16 -23
9 0 18 -9 21 -20 3 -12 14 -20 27 -20 17 0 18 -2 6 -10 -13 -8 -12 -10 3 -10
10 0 15 -4 12 -10 -3 -5 1 -10 9 -10 14 0 20 -11 17 -32 0 -4 7 -4 16 -1 12 5
15 2 10 -10 -4 -11 -2 -14 9 -10 8 3 14 -1 14 -11 0 -9 7 -16 16 -16 14 0 14
-3 4 -15 -7 -9 -10 -18 -6 -22 3 -3 6 -1 6 5 0 18 26 14 41 -5 12 -15 12 -16
-1 -8 -8 4 -5 -2 7 -14 25 -23 38 -28 27 -8 -4 7 -3 9 2 4 5 -5 9 -12 10 -15
0 -4 4 -15 9 -25 6 -15 10 -16 16 -5 6 9 9 7 9 -9 0 -14 6 -23 16 -23 8 0 12
-4 9 -10 -3 -5 1 -10 10 -10 11 0 15 -5 11 -15 -4 -10 1 -15 15 -15 11 0 17
-4 14 -10 -3 -5 1 -10 9 -10 9 0 16 -7 16 -16 0 -8 5 -12 10 -9 6 3 10 -2 10
-12 0 -15 2 -16 10 -3 9 13 10 13 11 0 1 -8 1 -18 0 -22 0 -5 6 -8 14 -8 9 0
18 -7 21 -15 4 -8 10 -12 15 -9 5 3 6 -2 3 -11 -5 -11 -2 -14 10 -9 12 5 15 2
9 -12 -4 -12 -3 -15 5 -10 11 6 16 -5 13 -26 0 -4 6 -5 14 -2 9 4 15 0 15 -10
0 -9 7 -16 16 -16 8 0 12 -4 9 -10 -3 -5 4 -10 16 -10 18 0 20 -2 9 -16 -8 -8
-9 -14 -4 -13 21 4 32 -2 37 -21 3 -11 12 -20 21 -20 9 0 16 -6 16 -14 0 -8 9
-18 20 -21 11 -3 20 -13 20 -21 0 -8 7 -14 15 -14 8 0 15 -7 15 -16 0 -8 5
-12 10 -9 6 3 10 -4 10 -17 0 -17 3 -19 9 -9 7 11 12 9 22 -10 7 -13 12 -27
11 -31 -1 -4 5 -5 13 -2 9 4 15 0 15 -9 0 -9 9 -18 20 -22 11 -3 25 -18 33
-33 7 -15 20 -26 30 -26 9 1 14 -2 11 -7 -3 -5 2 -12 10 -15 9 -3 16 -13 16
-21 0 -8 5 -11 10 -8 9 5 14 -7 12 -26 -1 -4 8 -5 19 -2 11 3 19 1 17 -4 -2
-6 12 -24 31 -42 28 -27 32 -34 20 -42 -10 -8 -8 -9 9 -4 16 5 22 2 22 -9 0
-9 5 -15 12 -14 6 2 15 -8 19 -22 4 -14 7 -19 8 -12 1 6 6 12 11 12 6 0 9 -6
8 -12 -2 -7 2 -12 8 -11 7 1 11 -5 10 -14 0 -10 11 -23 26 -30 15 -8 30 -23
34 -35 5 -16 8 -18 15 -7 6 10 9 8 9 -8 0 -14 6 -23 16 -23 8 0 12 -4 9 -10
-3 -5 1 -10 10 -10 9 0 14 -4 11 -9 -3 -5 1 -14 9 -21 8 -7 13 -16 10 -20 -3
-5 4 -6 15 -3 13 4 20 0 20 -10 0 -8 9 -17 20 -20 11 -3 20 -12 20 -21 0 -9 5
-16 10 -16 15 0 49 -37 42 -46 -4 -4 1 -4 11 -1 19 7 24 -9 5 -16 -8 -3 -6 -6
4 -6 20 -1 168 -141 168 -159 0 -7 3 -11 8 -11 4 1 14 1 22 0 13 -1 13 -2 0
-11 -13 -8 -12 -10 3 -10 10 0 15 -4 12 -10 -3 -5 -1 -10 4 -10 11 0 49 -34
54 -47 1 -5 5 -7 10 -5 4 1 7 -4 7 -12 0 -7 9 -16 20 -19 11 -3 20 -12 20 -20
0 -9 10 -17 22 -19 12 -2 23 -9 24 -16 1 -7 0 -8 -3 -2 -2 5 -9 10 -15 10 -6
0 -6 -6 2 -15 7 -8 19 -15 27 -15 10 0 14 -7 10 -20 -3 -11 0 -23 5 -27 7 -3
8 -1 4 5 -4 7 -1 12 9 12 10 0 15 -6 12 -13 -3 -8 3 -14 16 -14 20 -2 39 -21
32 -33 -2 -3 15 -18 36 -35 22 -16 37 -35 35 -42 -3 -7 1 -10 10 -6 8 3 14 -1
14 -10 0 -11 7 -15 21 -12 18 4 19 2 7 -12 -11 -15 -11 -16 4 -10 12 4 15 2
11 -9 -3 -7 0 -14 6 -14 14 0 51 -37 51 -51 0 -5 5 -7 10 -4 6 3 10 -1 10 -9
0 -9 5 -15 12 -13 7 1 17 -8 23 -20 5 -13 15 -23 22 -23 7 0 10 -7 6 -17 -4
-11 -3 -14 5 -9 16 10 45 -21 38 -40 -4 -12 -1 -14 14 -9 12 4 20 2 20 -5 0
-6 5 -8 12 -4 8 5 9 -2 5 -27 -5 -26 -4 -30 4 -16 6 9 15 15 20 12 5 -4 7 -11
4 -16 -4 -5 1 -9 10 -9 11 0 15 -5 11 -16 -3 -8 -2 -12 3 -9 5 3 12 1 16 -5 4
-6 10 -8 15 -5 5 3 12 0 16 -6 4 -8 3 -9 -4 -5 -7 4 -12 3 -12 -3 0 -6 12 -14
27 -17 25 -7 25 -8 8 -15 -18 -7 -18 -8 -2 -8 10 -1 28 -11 40 -22 18 -18 19
-21 4 -16 -11 4 -16 3 -12 -3 3 -6 17 -10 31 -10 14 0 22 -4 19 -10 -3 -5 1
-10 9 -10 9 0 16 -7 16 -16 0 -8 5 -12 11 -8 8 4 9 -1 4 -17 -7 -24 -7 -24 9
-4 11 14 15 15 14 5 -2 -8 3 -14 10 -13 7 2 12 -8 12 -25 0 -22 2 -24 11 -12
9 12 10 10 6 -8 -4 -18 -3 -21 8 -12 9 8 14 6 19 -6 3 -9 4 -19 2 -23 -3 -4 5
-7 17 -7 17 1 22 -5 22 -24 1 -19 5 -24 19 -22 11 2 29 -8 43 -24 26 -31 27
-35 13 -52 -7 -9 -7 -9 2 -2 16 14 29 13 25 -2 -1 -8 6 -12 17 -10 13 3 17 -1
13 -12 -3 -8 -1 -18 5 -22 7 -4 8 -3 4 4 -10 17 3 15 20 -3 9 -8 12 -20 8 -27
-5 -8 0 -7 11 2 11 9 16 10 11 2 -4 -7 -1 -15 8 -18 9 -3 13 -10 10 -15 -3 -5
3 -9 13 -9 15 0 16 -2 3 -10 -12 -8 -11 -10 7 -10 12 0 28 -9 36 -20 8 -11 18
-17 23 -12 4 4 2 -2 -6 -12 -10 -13 -10 -17 -2 -12 7 4 12 2 12 -4 0 -6 4 -8
10 -5 6 3 10 -4 10 -17 0 -18 2 -20 10 -8 8 12 10 11 10 -6 0 -12 7 -28 17
-35 15 -13 15 -12 4 9 -6 12 -8 22 -2 22 10 0 24 -27 30 -57 1 -5 6 -1 12 7 8
12 9 9 7 -12 -2 -15 1 -26 7 -25 5 1 9 7 7 12 -1 6 4 2 11 -7 8 -10 17 -15 21
-11 4 4 4 0 1 -9 -4 -9 -1 -19 6 -24 8 -5 10 -3 4 7 -7 12 -5 12 6 1 12 -11
12 -14 -1 -23 -11 -7 -7 -8 15 -3 23 4 26 3 15 -5 -13 -9 -12 -11 5 -11 17 0
17 -2 5 -10 -12 -8 -10 -10 9 -10 17 0 22 -4 17 -16 -3 -8 -2 -12 4 -9 5 3 18
1 27 -5 16 -10 16 -11 1 -6 -11 3 -15 1 -12 -8 3 -8 14 -12 27 -9 22 5 22 5 2
-11 -11 -10 -15 -15 -8 -12 15 8 44 -4 37 -15 -3 -5 3 -9 13 -9 15 0 16 -2 3
-10 -12 -8 -11 -10 6 -10 33 0 50 -26 33 -47 -13 -17 -13 -17 5 -3 15 12 20
12 23 2 3 -6 10 -9 16 -5 7 4 6 0 -1 -10 -12 -14 -11 -16 7 -12 13 2 18 -1 15
-10 -3 -7 0 -16 7 -21 8 -5 10 -3 4 6 -5 7 3 5 17 -6 14 -10 24 -21 22 -23 -2
-2 -10 2 -18 8 -10 8 -16 9 -21 1 -4 -6 -3 -10 2 -9 4 1 19 -3 33 -9 14 -6 21
-11 17 -11 -12 -1 19 -31 32 -31 6 0 11 -9 11 -21 0 -12 4 -17 11 -13 6 3 27
-11 47 -32 20 -22 41 -38 47 -36 5 1 2 -4 -7 -11 -10 -8 -18 -18 -18 -22 0 -4
7 -2 15 5 13 11 18 11 28 0 10 -10 9 -11 -2 -5 -9 5 -12 4 -7 -3 4 -7 17 -12
29 -13 20 0 21 -1 3 -8 -11 -4 -20 -15 -22 -24 -1 -10 2 -15 7 -11 5 3 7 10 4
15 -9 13 27 10 46 -4 9 -7 14 -18 12 -24 -4 -11 8 -17 29 -14 3 0 5 -11 3 -25
-1 -13 0 -22 3 -20 2 3 13 1 23 -5 11 -5 19 -6 19 -2 0 4 25 7 55 6 40 -2 54
1 49 9 -5 7 -2 9 9 5 11 -4 14 -2 10 8 -3 8 -9 12 -14 9 -5 -3 -9 0 -9 5 0 6
6 11 14 11 8 0 13 8 11 18 -2 9 -4 21 -4 25 -1 5 -5 6 -9 3 -5 -3 -8 15 -8 39
1 34 4 41 14 32 10 -8 12 -7 10 4 -2 8 -7 17 -13 21 -5 4 -10 20 -10 36 -1 23
3 28 15 24 13 -5 13 -4 0 12 -14 17 -22 75 -10 74 18 -2 23 4 10 12 -18 11
-21 70 -3 63 7 -3 13 -1 13 5 0 6 -5 12 -11 14 -15 5 -21 56 -8 63 5 3 6 -1 3
-9 -3 -8 2 -19 14 -25 14 -7 19 -7 19 4 0 7 -7 11 -14 8 -9 -3 -14 0 -13 8 4
25 0 40 -8 35 -4 -2 -9 4 -9 15 -1 11 5 23 13 26 8 3 14 10 14 15 0 6 -6 8
-14 5 -9 -4 -13 3 -12 25 1 21 8 33 21 38 18 6 17 7 -4 13 -14 3 -20 10 -16
17 4 6 13 9 21 6 8 -3 11 0 7 10 -3 8 -11 13 -18 10 -8 -3 -12 6 -11 26 1 21
8 34 21 39 16 6 17 8 3 8 -22 1 -32 17 -17 27 8 5 9 3 4 -6 -5 -8 -4 -11 3 -6
6 4 9 13 6 21 -4 8 -9 13 -14 10 -9 -6 -7 51 3 61 4 4 2 13 -4 20 -9 10 -7 15
5 20 9 3 13 10 10 15 -3 5 -9 7 -13 4 -16 -9 -5 54 12 72 14 16 14 20 2 20 -8
0 -11 -5 -8 -10 4 -6 1 -7 -7 -2 -10 6 -10 11 3 20 20 15 22 29 4 22 -10 -4
-13 6 -13 38 1 30 5 41 14 38 6 -3 12 -1 12 5 0 6 -5 12 -12 14 -12 4 -20 67
-8 66 18 -2 23 4 10 12 -13 8 -23 69 -10 68 18 -2 23 4 10 12 -13 8 -23 69
-10 68 18 -2 23 4 10 12 -18 11 -21 60 -4 67 8 3 11 9 8 14 -3 5 -9 7 -13 5
-18 -12 -7 36 12 50 22 16 22 16 1 11 -18 -4 -21 0 -20 27 1 25 6 31 24 30 12
-1 22 3 22 8 0 6 -6 8 -14 5 -8 -3 -19 0 -25 7 -14 16 12 42 30 30 8 -5 9 -3
4 5 -4 7 -15 11 -25 8 -13 -3 -17 2 -16 25 1 16 7 33 14 37 11 6 10 10 -4 15
-16 6 -16 7 1 25 13 16 14 23 5 38 -10 15 -11 16 -6 1 3 -10 1 -20 -3 -22 -4
-3 -8 8 -7 25 1 16 7 34 14 38 11 6 10 10 -4 15 -15 6 -15 8 -2 24 17 19 20
52 5 52 -5 0 -7 -7 -4 -15 4 -8 2 -17 -2 -19 -4 -3 -8 9 -7 26 1 18 8 33 16
35 13 4 13 3 0 -6 -8 -6 -10 -11 -4 -11 17 0 37 27 31 42 -3 8 -6 6 -6 -5 -1
-15 -4 -16 -22 -7 -19 11 -20 13 -4 30 9 9 15 21 14 26 -4 23 2 35 14 28 8 -5
8 -2 -2 9 -15 19 -4 22 19 7 13 -9 13 -12 -3 -24 -16 -13 -16 -14 -1 -20 9 -4
19 -4 22 -1 3 3 0 5 -7 5 -8 0 -6 8 5 25 9 15 13 25 8 24 -20 -3 -35 2 -29 10
3 5 1 12 -4 16 -6 3 -15 -4 -21 -15 -6 -11 -8 -20 -4 -20 3 0 1 -7 -6 -15 -6
-8 -9 -19 -6 -24 4 -5 2 -12 -2 -15 -5 -3 -8 15 -7 40 1 27 7 49 16 55 13 8 6
13 -14 10 -5 -1 -6 3 -3 8 8 13 66 -20 66 -36 0 -7 5 -12 11 -10 6 1 17 -8 25
-19 13 -19 13 -24 -1 -38 -21 -20 -7 -21 15 -1 15 14 19 13 34 -4 16 -17 16
-18 -9 -16 -29 4 -55 -29 -31 -38 9 -4 12 0 9 13 -4 14 0 18 14 15 10 -2 26
-4 36 -4 11 -1 17 -9 17 -23 0 -19 2 -20 11 -8 8 11 9 8 4 -15 -6 -29 -6 -29
10 -10 9 11 14 14 10 8 -4 -8 0 -13 9 -13 9 0 18 -11 22 -25 5 -21 9 -23 20
-14 12 10 13 9 8 -4 -4 -12 2 -20 20 -27 14 -5 26 -12 26 -15 0 -4 -4 -3 -10
0 -5 3 -10 1 -10 -4 0 -6 10 -11 23 -11 18 0 19 -2 7 -10 -12 -8 -11 -10 8
-10 12 0 22 -3 23 -7 0 -5 2 -16 4 -26 2 -11 -1 -15 -8 -10 -8 5 -8 2 0 -8 10
-12 10 -18 0 -29 -6 -7 -7 -10 -1 -7 7 4 10 -13 10 -49 -1 -29 -5 -54 -11 -54
-7 0 -7 -3 0 -8 14 -10 14 -72 1 -72 -8 0 -8 -3 -1 -8 6 -4 11 -20 11 -37 0
-16 -5 -33 -11 -37 -7 -5 -6 -8 1 -8 13 0 13 -68 0 -89 -6 -9 -5 -12 2 -7 17
10 9 -43 -8 -55 -13 -9 -13 -10 1 -6 14 5 16 -4 15 -64 -1 -57 -4 -68 -16 -64
-13 4 -13 3 0 -7 18 -15 22 -108 5 -120 -7 -5 -7 -8 0 -8 7 0 11 -27 10 -67
-1 -80 4 -113 17 -113 5 0 7 4 4 9 -8 13 31 44 45 35 8 -4 10 -3 5 4 -4 6 2
20 14 32 11 11 17 20 13 20 -5 1 4 8 20 16 15 8 27 21 27 29 0 8 6 15 14 15 8
0 18 5 22 12 5 7 3 8 -6 3 -9 -5 -11 -4 -6 4 6 8 12 9 20 2 17 -14 29 -1 15
15 -8 10 -6 12 10 9 11 -2 24 1 27 7 4 6 2 8 -4 4 -6 -3 -13 -2 -16 3 -3 5 1
12 10 15 8 3 12 11 8 17 -5 8 -1 8 14 0 16 -9 19 -7 18 7 -1 12 6 16 24 14 19
-1 21 0 10 7 -17 12 -10 21 18 24 13 1 18 6 14 16 -3 9 -1 12 6 7 7 -4 12 -3
12 3 0 5 -6 12 -12 14 -7 3 -2 6 12 6 20 1 22 3 10 11 -13 9 -13 10 0 10 8 0
26 16 40 34 14 20 28 30 31 24 4 -7 15 -8 25 -3 11 5 22 8 26 7 4 -1 5 5 1 14
-5 15 -7 15 -15 0 -10 -18 -28 -22 -28 -5 0 5 4 8 9 5 5 -3 12 2 16 12 6 16 7
16 21 -2 8 -11 12 -29 9 -40 -3 -12 -2 -15 1 -8 3 6 11 12 18 12 15 0 60 -50
52 -58 -4 -3 6 -12 21 -19 16 -7 21 -11 13 -9 -10 2 -16 -3 -16 -14 0 -16 2
-17 25 -2 23 16 24 16 13 -5 -10 -19 -9 -21 11 -16 18 4 19 3 7 -6 -13 -9 -12
-11 6 -11 28 0 36 -10 21 -28 -9 -12 -9 -14 0 -8 7 4 20 -2 30 -14 10 -11 23
-20 30 -20 7 0 10 -7 6 -15 -3 -9 -2 -15 3 -14 5 1 16 1 24 0 13 -1 13 -2 0
-11 -13 -8 -12 -10 4 -10 23 0 58 -38 49 -53 -4 -6 0 -8 10 -4 11 4 17 1 17
-9 0 -8 11 -19 25 -24 14 -5 25 -14 25 -20 0 -6 6 -8 13 -4 8 5 8 2 -2 -9 -12
-15 -11 -17 3 -17 10 0 14 -4 11 -10 -3 -5 -1 -10 4 -10 6 0 12 6 12 13 5 46
7 57 12 70 3 9 1 17 -5 19 -7 3 -8 9 -3 19 12 18 15 39 7 39 -4 0 -7 29 -7 65
0 36 4 65 9 65 5 0 4 6 -3 13 -7 10 -7 17 0 24 6 6 7 13 2 16 -13 8 -3 88 11
81 6 -3 3 1 -6 9 -16 13 -16 15 0 31 9 10 13 16 7 15 -22 -4 -29 2 -15 11 8 5
11 10 5 10 -8 0 -12 80 -4 100 5 16 3 36 -6 42 -6 5 -5 8 3 8 8 0 10 5 6 12
-8 13 -9 86 -1 94 2 3 1 21 -3 40 -4 19 -4 34 1 34 5 0 9 -5 9 -12 0 -6 2 -9
5 -6 3 3 -1 18 -9 33 -15 29 -11 58 5 34 6 -10 9 -10 9 -2 0 6 -4 15 -10 18
-15 9 -12 47 5 69 8 11 15 15 15 10 0 -6 -5 -15 -12 -22 -9 -9 -9 -12 0 -12 7
0 12 5 12 11 0 5 4 8 9 5 4 -3 7 5 6 19 -2 18 1 22 13 18 10 -4 13 -2 8 5 -4
7 -2 12 4 12 6 0 8 6 5 13 -4 6 0 4 8 -6 12 -14 16 -15 20 -4 3 8 2 18 -1 23
-4 5 -6 8 -4 7 10 -4 42 39 36 49 -4 7 -3 8 5 4 7 -5 23 5 39 22 15 16 37 32
50 36 12 4 22 12 22 18 0 6 -6 6 -15 -2 -9 -7 -18 -10 -22 -6 -3 3 -2 6 3 6
12 0 42 28 69 63 18 25 20 25 30 8 10 -18 11 -18 30 1 14 14 16 19 5 16 -8 -2
-18 -7 -22 -13 -4 -6 -8 -2 -8 9 0 12 5 16 15 12 10 -3 15 -1 13 7 -2 6 2 12
7 12 5 0 10 -12 11 -28 1 -15 -1 -25 -4 -23 -7 7 -52 -50 -52 -66 0 -22 11
-29 26 -17 10 8 13 3 12 -20 -1 -20 -6 -31 -15 -31 -8 0 -11 5 -7 12 4 7 3 8
-4 4 -16 -10 -5 -32 17 -32 14 0 18 7 16 23 -1 13 1 25 4 28 13 7 6 -134 -7
-147 -16 -16 -15 -28 1 -28 9 0 13 -19 13 -64 0 -36 -3 -63 -7 -60 -5 2 -6 18
-4 34 2 16 0 32 -5 35 -5 3 -7 -6 -4 -21 3 -16 1 -23 -6 -19 -6 4 -6 -3 2 -19
6 -14 14 -26 18 -26 11 0 6 -52 -8 -76 -6 -12 -9 -24 -5 -27 3 -4 1 -13 -5
-20 -9 -10 -8 -14 2 -14 9 0 13 9 11 24 -1 13 1 25 4 28 4 2 7 -14 7 -36 0
-26 -4 -38 -12 -35 -7 3 -11 -2 -9 -12 2 -9 4 -25 4 -35 1 -11 6 -15 12 -11 6
3 4 -5 -5 -19 -14 -20 -15 -27 -4 -39 18 -19 21 -38 7 -54 -9 -11 -9 -14 0
-14 8 0 8 -4 -1 -14 -7 -8 -16 -12 -19 -10 -3 2 -6 -3 -6 -11 0 -8 4 -12 9 -9
4 3 8 -4 8 -16 0 -14 4 -19 13 -14 10 6 10 4 0 -7 -7 -7 -13 -21 -13 -32 0
-11 -4 -15 -12 -11 -7 4 -8 3 -4 -5 6 -8 12 -9 20 -2 10 8 13 -1 13 -43 0 -41
-4 -53 -14 -49 -9 4 -11 0 -6 -13 5 -13 3 -15 -7 -9 -9 5 -11 4 -6 -4 6 -9 11
-9 21 -1 11 9 14 7 12 -9 0 -11 -5 -17 -9 -15 -12 8 -9 -11 4 -24 9 -9 9 -15
0 -24 -7 -7 -12 -20 -12 -31 0 -11 -4 -15 -12 -11 -7 4 -8 3 -4 -5 6 -9 11 -9
21 -1 11 9 14 7 12 -9 0 -11 -4 -18 -8 -15 -12 7 -17 -20 -7 -41 8 -18 8 -18
4 3 -2 12 0 22 5 22 4 0 8 -17 7 -37 -1 -21 -3 -32 -6 -25 -2 6 -8 12 -13 12
-4 0 -5 -7 -2 -17 5 -12 3 -14 -7 -8 -8 5 -11 4 -6 -3 4 -6 12 -9 19 -6 14 5
18 -58 4 -72 -10 -11 -9 -46 2 -39 6 3 9 -3 8 -14 -1 -15 -4 -17 -14 -9 -10 8
-12 7 -7 -6 3 -9 10 -16 15 -16 5 0 8 -17 7 -37 -1 -21 -3 -32 -6 -25 -6 19
-18 14 -18 -7 0 -13 5 -17 16 -13 13 5 13 3 1 -11 -7 -9 -9 -17 -4 -17 12 0
14 -38 2 -45 -5 -4 -9 -15 -9 -26 0 -13 -4 -18 -12 -13 -7 4 -8 3 -4 -5 6 -8
12 -9 20 -2 10 8 12 -3 12 -51 0 -33 -2 -56 -4 -49 -6 18 -18 13 -18 -8 0 -13
5 -17 16 -13 13 5 13 3 1 -11 -7 -9 -9 -17 -4 -17 11 0 11 -24 -1 -55 -17 -44
-18 -49 -1 -35 8 7 15 8 15 2 0 -5 -10 -17 -22 -25 l-23 -16 22 6 c14 3 23 1
23 -6 0 -7 -5 -9 -12 -5 -8 5 -7 0 2 -11 9 -11 10 -16 3 -11 -7 4 -13 2 -13
-3 0 -6 5 -11 10 -11 6 0 10 -12 10 -27 0 -21 -3 -24 -9 -13 -6 8 -7 18 -5 22
3 4 0 8 -6 8 -7 0 -9 -7 -6 -16 3 -9 6 -22 6 -30 0 -10 5 -12 13 -8 8 5 8 2
-2 -9 -11 -14 -11 -17 0 -17 11 0 11 -2 -1 -10 -10 -6 -11 -10 -2 -10 6 0 12
-5 12 -11 0 -5 -4 -8 -9 -4 -5 3 -13 0 -17 -6 -4 -7 -3 -9 4 -5 6 3 15 -1 20
-10 6 -11 17 -15 31 -11 11 3 21 0 21 -5 0 -7 4 -7 13 -1 6 5 26 9 44 8 18 -1
30 1 28 5 -2 4 3 16 11 26 9 10 13 14 10 8 -3 -7 2 -18 12 -25 14 -11 15 -11
5 0 -13 15 -6 44 8 35 5 -3 9 7 10 23 0 15 3 22 6 16 2 -7 12 -13 21 -13 10 0
13 3 7 8 -13 10 -18 35 -5 27 5 -3 13 1 16 9 5 13 10 13 27 4 21 -11 21 -10 7
7 -14 17 -13 18 2 12 10 -3 20 -1 24 5 4 6 3 8 -4 4 -7 -4 -10 1 -9 14 1 20
17 29 17 10 0 -5 5 -10 11 -10 5 0 7 5 3 12 -4 6 0 16 8 22 8 6 15 16 16 21 1
6 10 11 22 13 11 2 18 8 15 13 -4 5 -1 9 5 9 6 0 8 5 4 12 -4 7 -3 8 4 4 7 -4
12 -1 12 9 0 9 9 19 20 22 11 3 17 10 13 16 -3 6 -1 7 5 3 8 -4 12 0 12 10 0
16 1 16 15 -2 14 -18 14 -18 9 3 -4 13 1 28 14 41 17 17 20 17 29 3 9 -13 13
-14 24 -3 12 11 11 12 -3 7 -14 -6 -18 -2 -18 15 0 13 8 24 20 27 11 3 17 9
14 14 -3 5 0 8 8 7 7 -2 12 3 10 10 -1 8 2 11 7 8 5 -4 12 3 16 14 4 11 11 17
17 14 8 -5 9 -1 5 10 -4 10 -3 15 3 11 6 -3 13 1 16 9 5 13 10 13 27 4 21 -11
21 -10 7 7 -14 17 -13 18 4 12 17 -7 17 -6 5 10 -12 15 -12 16 2 11 9 -3 22
-2 30 4 11 8 10 9 -3 4 -10 -3 -18 -1 -18 4 0 6 7 10 16 10 9 0 12 5 8 12 -4
7 -3 8 4 4 7 -4 12 -3 12 3 0 16 50 71 63 68 7 -1 11 4 9 12 -2 11 0 12 11 3
12 -10 14 -8 11 14 -2 19 1 24 12 20 9 -3 14 1 15 12 0 10 3 12 6 5 8 -22 20
-14 18 12 -2 14 0 23 5 20 4 -3 11 2 14 11 4 10 14 14 26 11 11 -3 20 -1 20 4
0 5 -6 9 -12 9 -7 0 -5 5 5 11 9 6 15 14 12 19 -3 4 6 7 20 5 22 -2 23 0 13
13 -11 13 -10 15 6 9 14 -6 17 -4 12 9 -4 11 -2 15 8 11 8 -3 13 1 12 11 0 9
9 21 21 27 13 7 20 15 16 18 -3 4 -1 7 4 7 6 0 14 -6 16 -12 3 -7 6 2 6 21 1
33 2 34 16 15 11 -13 13 -14 9 -3 -3 9 1 23 9 30 8 8 16 21 20 29 4 12 6 12 6
-2 1 -9 5 -19 10 -23 6 -3 8 4 6 16 -4 17 0 20 17 16 16 -5 18 -3 9 6 -16 16
-14 25 9 32 12 4 17 11 13 18 -4 8 -1 7 9 -1 14 -11 16 -10 13 5 -4 25 6 38
16 22 7 -11 9 -11 9 -1 0 8 5 10 13 6 8 -5 7 -2 -2 9 -8 10 -11 20 -7 24 3 3
6 0 6 -8 0 -7 8 -2 17 11 10 14 17 29 15 33 -1 5 2 6 7 3 5 -4 16 1 24 9 18
18 31 20 21 3 -4 -7 -3 -8 5 -4 9 6 9 11 -1 24 -7 9 -8 13 -2 9 7 -4 14 2 17
13 4 14 14 20 34 21 15 0 22 3 16 6 -10 3 -10 10 -2 24 8 16 13 18 25 8 10 -8
11 -15 4 -24 -7 -8 -5 -12 5 -12 7 0 13 5 12 11 -1 6 3 10 9 9 6 -1 11 5 11
12 0 11 -4 12 -14 4 -7 -6 -13 -10 -14 -8 -7 34 -6 37 8 32 9 -4 16 2 20 16 3
13 13 21 27 21 18 0 19 2 6 11 -12 9 -11 10 6 6 18 -4 21 -1 16 17 -3 11 -2
18 2 15 4 -4 19 4 32 16 14 13 34 22 45 20 11 -2 17 0 14 5 -6 10 -24 8 -45
-5 -13 -8 -13 -7 -1 8 7 9 20 17 27 17 8 0 14 7 14 15 0 8 7 15 16 15 9 0 12
5 8 13 -6 9 -4 9 8 -1 13 -10 16 -10 15 0 0 7 1 22 2 33 1 17 3 18 11 5 8 -13
10 -13 10 2 0 12 5 15 18 11 15 -6 15 -5 3 11 -8 9 -10 16 -5 15 21 -4 34 2
34 16 0 9 6 12 17 8 11 -4 14 -3 9 5 -4 7 -1 19 8 27 16 16 31 20 22 7 -3 -5
1 -9 9 -9 10 0 11 5 4 19 -7 13 -6 18 4 18 8 0 17 -3 21 -7 10 -11 37 -12 30
-2 -3 5 -9 7 -14 4 -5 -3 -14 3 -20 14 -7 14 -7 22 2 27 7 4 8 3 4 -4 -4 -7
-1 -12 9 -12 11 0 15 5 11 15 -3 10 1 15 12 15 15 0 15 2 2 10 -13 8 -12 10 5
11 11 1 26 2 33 2 10 -1 10 2 0 15 -10 12 -10 14 0 8 7 -4 12 -1 12 9 0 10 5
13 12 9 7 -5 9 -2 5 9 -4 12 -2 14 10 10 12 -5 15 -2 10 10 -4 11 -2 14 7 11
8 -3 17 0 21 5 3 6 11 9 16 5 5 -3 6 -10 3 -16 -4 -7 -2 -8 5 -4 9 6 9 11 0
22 -9 12 -15 12 -28 2 -14 -12 -15 -11 -2 5 8 10 21 15 29 12 10 -3 12 0 8 10
-3 9 0 15 9 15 8 0 15 7 15 16 0 8 5 12 10 9 5 -3 10 1 10 10 0 10 5 13 12 9
8 -5 9 -2 4 12 -4 10 -4 15 -1 12 4 -4 20 6 37 20 17 15 34 26 39 24 5 -1 9 8
9 20 0 19 2 20 10 8 8 -12 10 -10 10 9 0 19 4 22 21 18 16 -4 18 -3 8 9 -9 11
-8 14 4 14 9 0 19 -4 22 -10 3 -5 11 -10 18 -10 6 0 1 8 -12 17 l-24 16 22 9
c12 4 20 12 16 18 -4 6 1 7 12 3 16 -6 16 -5 4 10 -12 15 -12 17 4 11 14 -6
16 -4 10 7 -7 12 -6 12 7 1 14 -11 16 -10 11 9 -4 16 -3 20 6 15 13 -8 41 10
41 27 0 6 -7 2 -15 -9 -8 -10 -15 -14 -15 -9 0 17 22 35 43 35 16 0 17 2 7 16
-8 8 -9 14 -4 13 5 -1 20 -1 34 1 23 1 23 2 5 10 -11 5 -15 9 -8 9 16 1 73 57
66 65 -4 3 1 6 10 6 9 0 17 7 17 16 0 8 5 12 10 9 6 -4 7 -12 4 -18 -4 -7 -3
-9 1 -4 5 4 16 0 26 -9 14 -12 18 -13 25 -2 4 7 3 10 -1 5 -11 -9 -45 21 -45
40 0 8 4 11 10 8 5 -3 18 -1 27 5 17 11 17 11 1 6 -10 -3 -18 -1 -18 4 0 5 9
12 21 15 11 4 18 9 15 12 -7 7 19 33 33 33 6 0 11 -5 11 -12 0 -6 3 -8 6 -5 4
4 1 13 -6 22 -10 12 -10 15 2 15 8 0 20 -6 28 -12 8 -7 6 -3 -4 10 -19 22 -19
22 2 22 16 0 20 4 15 18 -6 15 -5 15 11 3 9 -8 16 -10 15 -5 -4 25 3 44 17 44
8 0 13 4 10 9 -4 5 7 15 23 22 20 9 26 16 18 21 -7 5 -3 8 12 8 20 0 22 2 11
16 -11 12 -11 15 1 12 8 -2 13 3 11 11 -3 12 -1 12 14 0 15 -12 17 -12 9 0 -6
11 -4 13 7 8 12 -4 14 0 10 16 -5 20 -4 21 13 7 16 -14 17 -13 11 8 -6 17 -3
22 9 22 9 0 19 9 22 20 3 11 12 20 19 20 13 0 19 13 15 34 -1 5 6 3 15 -5 16
-12 17 -12 11 3 -5 14 0 16 29 13 19 -1 32 0 29 4 -7 6 -10 7 -42 10 -14 2
-13 4 5 12 13 5 29 6 35 2 7 -4 5 2 -3 12 -9 11 -10 16 -2 11 8 -5 12 -1 12
11 0 15 2 16 11 3 9 -12 10 -11 6 6 -3 13 1 21 9 22 8 1 21 3 29 4 8 1 11 6 7
12 -5 6 4 22 20 37 16 17 29 22 32 15 2 -6 5 0 5 13 1 16 5 21 16 18 8 -4 17
-1 21 5 4 7 3 8 -4 4 -7 -4 -12 -2 -12 3 0 6 7 11 16 11 8 0 12 4 9 10 -3 5 1
10 10 10 11 0 15 5 11 16 -3 8 -2 13 2 10 13 -8 63 44 55 57 -4 8 -1 8 9 -1
13 -10 18 -10 24 -1 5 8 3 10 -7 5 -8 -4 -6 -1 3 7 10 8 15 17 11 20 -3 4 1 7
10 7 10 0 17 7 17 15 0 10 6 12 18 8 15 -6 16 -5 2 12 -8 10 -10 16 -3 12 6
-4 14 -3 18 3 4 6 11 7 17 4 7 -4 8 -2 4 5 -4 6 0 18 8 27 9 8 16 11 16 6 0
-5 7 -9 15 -9 11 0 12 4 3 14 -16 20 0 29 25 14 21 -13 21 -13 7 4 -11 14 -12
19 -2 22 6 3 12 11 12 19 0 8 4 14 10 14 5 0 7 -8 4 -17 -5 -14 -4 -15 4 -4 6
8 9 23 7 34 -4 15 -2 17 10 7 12 -10 15 -9 15 8 0 15 5 20 15 16 11 -5 13 -2
8 12 -4 12 -3 15 5 10 7 -4 12 -1 12 8 0 16 12 21 23 9 4 -3 1 -13 -6 -22 -11
-14 -10 -14 5 -2 13 10 15 18 8 31 -6 12 -6 21 -1 25 5 3 12 -3 14 -12 3 -13
5 -11 7 7 1 14 2 29 1 34 -1 5 6 3 15 -5 16 -12 17 -12 11 3 -8 22 35 54 55
42 8 -5 8 -1 -2 11 -9 11 -10 16 -2 11 7 -4 12 -1 12 9 0 10 5 13 12 9 7 -5 9
-2 5 9 -4 12 -2 14 10 10 12 -5 15 -2 10 10 -4 10 -2 16 6 14 7 -1 11 3 10 10
-2 8 4 10 14 6 12 -5 15 -2 11 9 -5 11 0 14 20 12 15 -2 19 -1 9 2 -9 3 -15
10 -11 15 3 5 10 7 15 4 5 -4 9 1 9 10 0 12 5 15 16 11 12 -5 15 -2 10 10 -5
12 -2 15 9 10 11 -4 15 0 13 12 -2 11 3 16 14 14 9 -1 20 3 24 9 5 8 3 9 -7 4
-8 -5 -7 0 4 12 9 11 14 24 10 28 -5 5 0 3 10 -4 15 -12 17 -11 17 8 0 24 3
25 33 10 20 -9 20 -9 5 4 -22 18 -23 31 -2 23 12 -4 15 -2 10 9 -3 9 0 15 9
15 14 0 20 13 16 34 -1 5 6 3 15 -5 16 -12 17 -12 11 5 -6 14 -4 17 8 12 11
-4 15 1 15 17 l1 22 19 -24 c11 -13 20 -18 20 -13 0 6 -4 14 -10 17 -5 3 -10
13 -10 22 0 12 3 13 14 4 12 -10 13 -8 9 8 -4 15 -1 21 11 21 10 0 14 4 11 10
-3 6 4 10 16 10 18 0 20 2 9 16 -11 12 -11 15 1 12 8 -2 13 2 12 8 -1 6 4 11
12 11 8 0 11 -5 8 -10 -3 -6 -1 -7 5 -3 7 4 12 14 12 22 0 8 5 14 10 14 6 0
10 7 10 15 0 9 9 15 23 15 18 0 19 2 7 10 -13 8 -12 10 3 10 9 0 17 7 17 16 0
8 5 12 10 9 6 -3 10 1 10 10 0 8 11 21 25 27 23 10 29 20 26 40 0 4 7 4 16 1
11 -4 14 -3 9 5 -5 8 1 12 16 12 16 0 19 3 10 9 -11 7 -11 9 2 14 9 4 16 14
16 24 0 15 2 15 9 3 6 -8 7 -18 5 -22 -3 -4 0 -8 6 -8 6 0 8 10 4 25 -5 19 -2
25 10 25 9 0 15 6 14 13 -2 6 3 11 10 9 8 -1 12 14 12 53 0 32 -4 55 -11 55
-5 0 -7 6 -3 13 5 8 2 8 -9 -2 -9 -7 -17 -10 -17 -6 0 4 -7 2 -16 -5 -12 -11
-15 -11 -12 1 3 14 -5 15 -34 4 -11 -5 -18 -2 -18 5 0 9 -4 9 -17 -1 -12 -10
-17 -11 -20 -2 -2 7 -11 9 -19 6 -8 -3 -11 -10 -7 -17 5 -7 1 -5 -7 4 -16 16
-34 20 -45 8 -4 -4 -15 -3 -25 2 -11 6 -24 4 -39 -6 -12 -9 -21 -12 -20 -7 4
20 -2 24 -18 12 -15 -12 -16 -12 -8 1 7 12 6 13 -6 5 -8 -6 -36 -10 -64 -10
-27 0 -53 -4 -57 -10 -5 -6 -8 -5 -8 3 0 7 -4 10 -10 7 -5 -3 -10 0 -10 7 0 9
-3 9 -10 -2 -9 -13 -10 -13 -11 0 0 10 -3 8 -9 -5 -5 -11 -9 -14 -9 -7 -1 7
-5 10 -11 7 -5 -3 -10 0 -10 7 0 10 -3 9 -9 -2 -6 -8 -7 -19 -5 -25 3 -5 -4 1
-15 14 -19 21 -21 21 -21 5 0 -16 -2 -17 -10 -4 -5 8 -10 11 -10 5 0 -5 -5 -3
-10 5 -9 13 -10 13 -11 0 -1 -8 -1 -19 0 -25 1 -5 -7 0 -17 12 -18 20 -20 21
-37 5 -10 -9 -15 -12 -11 -5 8 14 -13 30 -23 17 -10 -15 -41 -16 -41 -2 0 9
-3 9 -10 -2 -5 -8 -10 -10 -10 -4 0 15 -46 9 -67 -8 -10 -8 -14 -8 -10 -1 9
14 -12 30 -22 17 -3 -5 -14 -10 -25 -12 -13 -2 -16 1 -10 10 6 10 4 10 -9 -1
-12 -9 -17 -10 -17 -2 0 9 -5 9 -20 1 -11 -6 -20 -7 -20 -3 0 4 -5 1 -10 -7
-7 -11 -10 -11 -10 -2 0 7 -4 10 -10 7 -5 -3 -10 0 -10 7 0 10 -3 9 -9 -2 -6
-8 -7 -19 -5 -25 3 -5 -4 1 -15 14 -19 21 -21 21 -21 5 0 -16 -2 -17 -10 -4
-5 8 -10 11 -10 5 0 -5 -5 -3 -10 5 -9 13 -10 13 -11 0 -1 -8 -1 -19 0 -25 1
-5 -8 1 -19 14 -19 22 -25 20 -20 -4 1 -5 -4 -5 -11 2 -6 6 -18 9 -25 6 -8 -3
-14 0 -14 6 0 6 -5 11 -11 11 -5 0 -7 -5 -3 -12 4 -7 3 -8 -5 -4 -6 4 -19 2
-27 -5 -12 -10 -13 -9 -9 3 4 11 0 14 -17 12 -13 -1 -25 -3 -28 -4 -3 -1 -13
-1 -24 0 -11 1 -15 -3 -12 -9 5 -8 0 -8 -17 -2 -30 12 -56 9 -66 -8 -6 -10
-10 -9 -14 4 -4 9 -3 14 1 11 4 -2 9 5 9 16 2 20 2 20 -14 -2 -12 -17 -17 -19
-24 -9 -7 11 -9 9 -9 -6 0 -17 -2 -17 -10 -5 -5 8 -10 11 -10 5 0 -5 -5 -3
-10 5 -9 13 -10 13 -11 0 -1 -8 -1 -19 0 -25 1 -5 -8 1 -19 14 -18 21 -20 21
-20 5 0 -16 -2 -17 -10 -4 -5 8 -10 11 -10 5 0 -5 -5 -3 -10 5 -9 13 -10 13
-11 0 -1 -8 -1 -19 0 -25 1 -5 -7 -1 -16 10 -18 20 -74 27 -89 12 -12 -12 -26
-8 -18 6 5 8 2 8 -9 -2 -9 -7 -17 -9 -17 -4 0 14 -47 8 -66 -8 -8 -7 -14 -8
-13 -3 4 21 -2 26 -18 13 -15 -12 -16 -12 -8 1 5 9 0 7 -14 -4 -21 -19 -21
-19 -15 -1 6 14 4 16 -7 10 -7 -5 -25 -9 -39 -9 -14 0 -28 -4 -32 -10 -5 -7
-8 -7 -8 2 0 7 -4 10 -10 7 -5 -3 -10 -2 -10 4 0 6 -7 8 -15 5 -8 -4 -12 -11
-8 -18 4 -6 -1 -5 -10 2 -18 15 -41 7 -31 -10 4 -7 2 -8 -5 -4 -6 4 -9 11 -6
16 3 4 -11 8 -31 8 -25 0 -33 -3 -23 -9 9 -6 10 -9 2 -9 -6 0 -14 4 -18 10 -3
5 -12 7 -20 3 -8 -3 -15 0 -15 6 0 6 -5 11 -11 11 -5 0 -7 -5 -3 -12 4 -7 3
-8 -5 -4 -6 4 -19 2 -28 -6 -10 -8 -14 -8 -10 -1 9 14 -12 30 -22 17 -9 -13
-41 -17 -41 -4 0 5 -5 10 -11 10 -5 0 -7 -5 -3 -12 4 -7 3 -8 -5 -4 -6 4 -19
2 -27 -5 -8 -7 -14 -8 -13 -3 4 21 -2 26 -18 13 -15 -12 -16 -12 -8 1 6 12 5
12 -5 3 -7 -6 -19 -9 -26 -6 -8 3 -21 0 -29 -7 -11 -9 -15 -9 -15 -1 0 7 -4 9
-10 6 -5 -3 -10 0 -10 7 0 10 -3 9 -9 -2 -6 -8 -7 -19 -5 -25 3 -5 -4 1 -15
14 -19 21 -21 21 -21 5 0 -16 -2 -17 -10 -4 -5 8 -10 11 -10 5 0 -5 -5 -3 -10
5 -9 13 -10 13 -11 0 -1 -8 -1 -19 0 -25 1 -5 -8 1 -19 14 -11 13 -20 18 -20
12 0 -7 -4 -10 -9 -7 -5 4 -12 0 -14 -6 -4 -10 -6 -10 -6 0 -1 7 -5 10 -11 7
-5 -3 -10 -1 -10 4 0 6 -5 11 -11 11 -5 0 -7 -4 -4 -10 4 -6 -2 -7 -17 -2 -29
9 -49 9 -67 -2 -8 -5 -16 -3 -22 5 -7 12 -9 11 -9 -1 0 -9 -3 -11 -8 -5 -6 9
-48 11 -77 5 -5 -1 -18 -1 -29 0 -10 1 -15 -3 -12 -8 7 -12 -20 -10 -31 3 -4
4 -2 5 6 0 10 -6 12 -4 7 4 -6 9 -11 9 -23 0 -12 -10 -16 -10 -24 2 -7 12 -9
12 -9 -1 0 -13 -1 -13 -10 0 -5 8 -10 10 -10 4 0 -12 -80 -11 -100 1 -10 6
-12 4 -7 -7 4 -12 1 -14 -14 -11 -10 3 -19 10 -19 17 0 6 -5 3 -11 -7 -6 -10
-8 -25 -5 -33 3 -8 1 -14 -5 -14 -6 0 -3 -7 5 -16 19 -19 20 -25 4 -22 -7 2
-11 -4 -10 -12 10 -40 10 -50 3 -54 -12 -8 -7 -42 10 -62 9 -11 9 -15 2 -10
-8 4 -13 2 -13 -4 0 -6 -4 -9 -9 -5 -5 3 -13 0 -17 -6 -4 -7 -3 -9 3 -6 6 4
16 1 22 -7 9 -11 9 -15 -1 -19 -11 -4 -11 -6 0 -6 10 -1 10 -6 2 -21 -8 -15
-8 -20 1 -20 8 0 9 -4 0 -13 -6 -8 -8 -17 -4 -21 11 -10 12 -36 2 -36 -4 0 -5
-7 -2 -17 5 -12 3 -14 -8 -9 -8 4 -6 1 3 -7 14 -11 15 -16 5 -27 -9 -10 -9
-11 1 -5 11 6 12 3 3 -14 -10 -18 -9 -21 6 -21 11 0 14 -3 7 -8 -6 -4 -10 -25
-10 -47 1 -22 -3 -43 -9 -47 -7 -5 -6 -8 1 -8 11 0 11 -51 -1 -69 -3 -6 -1
-11 6 -11 9 0 9 -3 0 -14 -9 -11 -9 -16 0 -21 8 -6 8 -10 -2 -16 -10 -6 -11
-11 -3 -19 14 -14 5 -72 -10 -63 -6 3 -2 -3 8 -15 12 -13 14 -22 7 -22 -8 0
-9 -5 -2 -17 7 -12 5 -21 -7 -30 -16 -12 -16 -13 0 -7 14 5 16 0 12 -25 -10
-59 -2 -61 266 -62 133 0 244 2 247 5 10 9 33 -6 26 -18 -5 -8 -3 -8 8 0 20
16 129 17 129 1 0 -9 2 -9 8 0 5 8 30 12 70 10 48 -1 59 -4 47 -13 -8 -6 -11
-15 -7 -19 4 -4 -3 -2 -16 4 -18 9 -27 10 -37 1 -8 -7 -19 -9 -25 -5 -5 3 -10
1 -10 -4 0 -15 23 -14 38 1 9 9 15 9 24 0 9 -9 8 -12 -5 -12 -10 0 -17 -8 -17
-20 0 -11 -4 -20 -10 -20 -5 0 -7 8 -4 18 3 9 -2 5 -12 -10 -10 -15 -27 -31
-38 -37 -19 -10 -19 -11 4 -6 22 5 23 4 7 -5 -10 -7 -24 -9 -31 -7 -9 4 -12
-1 -9 -13 4 -14 -2 -23 -21 -31 -19 -9 -23 -15 -14 -21 9 -5 8 -8 -5 -8 -12 0
-16 -4 -11 -12 5 -8 0 -7 -11 2 -10 8 -16 10 -12 3 4 -7 -1 -14 -12 -18 -11
-3 -22 -13 -26 -22 -5 -15 -4 -15 13 0 10 9 22 17 27 17 4 0 -4 -9 -19 -21
-15 -12 -31 -17 -38 -13 -8 5 -7 0 2 -11 9 -11 10 -16 3 -11 -7 4 -13 2 -13
-3 0 -6 -3 -10 -7 -10 -21 3 -26 -2 -13 -12 12 -9 11 -10 -7 -6 -24 5 -32 -8
-10 -16 6 -3 1 -6 -13 -6 -21 -1 -22 -3 -10 -12 12 -9 11 -10 -7 -6 -13 3 -24
-1 -27 -9 -3 -9 0 -11 12 -7 9 3 5 -4 -10 -16 -16 -13 -33 -19 -40 -15 -8 5
-7 0 2 -11 9 -11 10 -16 3 -11 -9 5 -13 1 -13 -11 0 -15 -2 -16 -10 -3 -8 13
-10 13 -10 -2 0 -19 -58 -71 -71 -63 -5 4 -6 -1 -3 -9 4 -11 0 -16 -10 -16 -9
0 -16 -8 -16 -18 0 -10 -7 -19 -15 -20 -8 -1 -22 -3 -30 -4 -8 -1 -12 -5 -9
-10 3 -5 11 -6 17 -2 7 3 4 -1 -5 -9 -10 -8 -15 -17 -11 -20 3 -4 -1 -7 -11
-7 -11 0 -15 -4 -10 -12 5 -9 3 -9 -9 1 -9 7 -14 18 -10 24 4 6 1 7 -6 2 -9
-5 -10 -10 -2 -18 15 -15 14 -27 -4 -27 -9 0 -15 -9 -15 -21 0 -17 -5 -20 -21
-16 -17 5 -18 3 -7 -11 10 -12 10 -14 1 -8 -7 4 -13 3 -13 -3 0 -5 -9 -8 -20
-6 -11 2 -23 -1 -26 -7 -4 -6 -2 -8 4 -4 6 3 13 2 17 -4 3 -5 -2 -10 -12 -10
-15 0 -16 -2 -3 -10 13 -9 13 -10 0 -10 -9 0 -22 -9 -30 -21 -8 -12 -25 -25
-38 -30 -14 -5 -22 -16 -20 -26 2 -13 -3 -18 -19 -17 -16 0 -23 -5 -23 -18 0
-11 -4 -16 -10 -13 -5 3 -10 0 -10 -7 0 -19 -48 -61 -63 -55 -10 4 -13 -2 -9
-20 3 -18 1 -24 -7 -19 -6 4 -10 10 -7 14 2 4 -1 16 -5 27 -9 18 -9 18 -5 -2
2 -13 0 -25 -4 -28 -4 -3 -6 -15 -3 -28 4 -20 3 -21 -10 -4 -8 9 -18 17 -22
17 -4 0 -2 -7 5 -15 10 -12 8 -19 -8 -40 -12 -14 -24 -27 -29 -28 -4 -1 -7 -5
-6 -9 2 -4 -4 -5 -12 -2 -11 5 -14 2 -8 -12 5 -14 1 -13 -16 6 -12 14 -19 18
-15 10 13 -23 13 -39 2 -47 -7 -3 -8 -1 -4 5 4 7 2 12 -3 12 -12 0 -10 28 3
49 6 9 5 12 -2 7 -14 -8 -12 34 2 53 8 11 8 13 0 8 -15 -9 -14 55 1 65 6 5 6
8 -2 8 -7 0 -13 7 -13 15 0 8 6 15 13 15 8 0 7 4 -3 10 -13 8 -13 13 -2 31 8
11 9 18 3 14 -15 -9 -14 8 2 24 6 8 7 11 2 8 -7 -3 -11 8 -12 29 0 22 3 31 11
27 8 -5 8 -3 0 8 -12 17 -12 48 0 68 6 10 5 12 -2 7 -19 -11 -14 5 6 20 13 11
14 13 1 9 -19 -7 -22 22 -5 44 9 12 8 13 -3 7 -9 -6 -12 -5 -9 5 3 8 11 13 17
11 7 -1 10 2 6 8 -3 6 -11 8 -16 5 -5 -4 -9 -1 -9 4 0 6 6 11 13 11 9 0 8 3
-2 9 -7 5 -10 14 -6 20 4 7 12 8 19 4 7 -4 3 0 -7 10 -13 12 -15 17 -6 17 11
0 11 2 -1 10 -13 9 -13 10 0 10 13 0 13 1 0 10 -13 9 -13 10 0 10 9 0 11 3 5
8 -14 10 -14 115 -1 124 7 5 7 8 -1 8 -7 0 -13 5 -13 11 0 5 4 8 9 4 5 -3 13
-1 16 5 4 6 1 9 -7 8 -7 -2 -13 4 -13 12 0 8 6 14 13 12 8 -1 11 2 7 8 -3 6
-11 8 -16 5 -5 -4 -9 -1 -9 4 0 6 6 11 13 11 7 0 8 3 2 8 -14 10 -14 222 0
222 5 0 3 5 -5 10 -13 9 -13 11 0 20 11 7 12 10 2 10 -8 0 -12 6 -9 13 2 6 10
11 16 9 7 -1 10 2 6 8 -3 6 -11 8 -16 5 -5 -4 -9 -1 -9 4 0 6 6 11 13 11 7 0
8 3 2 8 -6 4 -11 31 -11 60 0 43 3 52 16 47 9 -3 8 1 -4 10 -14 11 -16 15 -5
15 12 0 12 2 -1 10 -13 9 -13 10 0 10 12 0 13 2 1 9 -11 7 -11 9 0 14 10 4 10
6 2 6 -7 1 -13 6 -13 12 0 5 6 7 13 3 9 -6 9 -5 0 8 -17 20 -4 31 16 15 14
-11 14 -10 2 5 -7 10 -17 15 -22 12 -5 -3 -9 0 -9 5 0 6 6 11 13 11 9 0 8 3
-2 9 -7 5 -10 14 -7 20 4 6 12 8 18 5 7 -4 8 -2 4 5 -4 6 -12 9 -17 6 -5 -4
-9 -1 -9 4 0 6 6 11 13 11 9 0 8 3 -2 9 -7 5 -10 14 -6 20 4 7 12 8 19 4 7 -4
3 0 -7 10 -13 12 -15 17 -6 17 11 0 11 2 -1 10 -13 9 -13 10 0 10 13 0 13 1 0
10 -13 9 -13 10 0 10 9 0 11 3 5 8 -13 8 -13 22 -1 41 6 10 5 12 -2 7 -19 -11
-14 5 6 20 16 13 16 14 0 8 -10 -3 -18 -1 -18 5 0 6 6 11 13 11 7 0 8 3 2 8
-15 11 -17 74 -2 65 9 -5 9 -3 0 8 -10 12 -10 18 0 29 9 10 9 11 0 6 -19 -11
-16 5 5 20 13 11 14 13 1 9 -12 -5 -16 2 -16 30 0 19 5 35 11 35 6 0 6 4 -2 8
-13 9 -12 38 2 61 6 9 5 12 -1 8 -6 -4 -10 6 -11 24 0 16 3 27 8 24 5 -3 12
-1 15 5 4 6 1 9 -6 8 -6 -2 -14 3 -17 11 -3 9 0 11 8 6 8 -5 11 -4 6 3 -3 6
-16 9 -28 7 -12 -3 -26 1 -30 8 -6 9 -8 9 -8 -1 0 -7 -5 -10 -10 -7 -6 4 -7
11 -4 17 5 7 2 8 -5 4 -7 -5 -10 -15 -7 -23 4 -9 2 -11 -7 -6 -6 4 -23 9 -35
11 -17 2 -22 -1 -16 -10 6 -10 5 -11 -7 -1 -12 10 -18 10 -28 0 -7 -6 -12 -7
-11 -2 5 22 -1 27 -17 14 -15 -12 -16 -12 -8 1 8 13 7 13 -9 1 -15 -13 -19
-13 -27 0 -7 12 -9 12 -9 -1 0 -9 -3 -11 -8 -5 -6 9 -48 11 -77 5 -5 -1 -18
-1 -29 0 -10 1 -16 -2 -13 -8 4 -5 0 -9 -8 -9 -8 0 -15 4 -15 9 0 5 -4 6 -10
3 -5 -3 -10 -2 -10 4 0 6 -7 8 -15 5 -8 -4 -12 -11 -8 -18 5 -8 3 -8 -8 1 -8
6 -29 10 -47 9 -17 -1 -32 2 -32 7 0 4 -5 5 -10 2 -6 -4 -7 -12 -3 -18 4 -8 1
-7 -9 1 -13 10 -17 10 -21 0 -4 -11 -6 -10 -6 0 -1 7 -5 10 -11 7 -6 -3 -10
-1 -10 4 0 6 -5 11 -11 11 -5 0 -7 -5 -3 -12 4 -7 3 -8 -5 -4 -6 4 -19 2 -27
-5 -8 -7 -14 -8 -13 -3 4 21 -2 26 -18 13 -15 -12 -16 -12 -8 1 6 12 5 13 -6
3 -7 -7 -17 -13 -22 -13 -4 0 -5 6 -1 13 5 8 2 8 -9 -2 -12 -9 -17 -10 -17 -2
0 8 -6 9 -17 3 -10 -5 -26 -8 -36 -6 -10 1 -21 -4 -24 -12 -3 -8 -10 -11 -15
-8 -6 4 -5 10 3 15 18 12 -30 7 -49 -4 -8 -6 -12 -4 -10 5 2 7 -3 11 -12 9 -8
-2 -25 -3 -37 -3 -13 1 -23 -3 -23 -9 0 -5 -6 -7 -12 -3 -7 4 -10 4 -6 -1 4
-4 2 -15 -5 -24 -10 -14 -10 -14 3 -4 14 11 16 5 16 -47 0 -32 -3 -57 -6 -56
-3 1 -15 -8 -27 -21 -12 -13 -18 -23 -14 -23 5 0 14 7 21 15 7 8 17 15 22 15
6 0 5 -7 -2 -15 -7 -8 -8 -15 -3 -15 11 0 11 -24 0 -52 -17 -44 -18 -51 -4
-40 10 9 13 3 14 -30 1 -31 -1 -38 -9 -25 -5 10 -6 23 -2 30 5 8 4 9 -4 2 -12
-11 -5 -55 9 -55 5 0 9 -8 8 -17 0 -11 -3 -13 -6 -5 -2 6 -9 12 -14 12 -4 0
-6 -6 -3 -14 3 -8 1 -17 -5 -21 -6 -3 -11 -12 -11 -18 0 -7 5 -4 11 6 5 9 15
17 21 17 7 0 6 -5 -2 -15 -9 -10 -9 -15 -1 -15 15 0 5 -46 -19 -92 -6 -11 -4
-20 8 -30 15 -11 16 -11 4 3 -10 13 -10 18 1 27 10 8 12 -2 13 -49 0 -32 -3
-53 -8 -46 -5 8 -8 7 -8 -6 0 -11 -4 -15 -12 -11 -7 4 -8 3 -4 -4 4 -6 14 -8
24 -5 15 6 15 5 3 -10 -7 -9 -9 -17 -4 -17 6 0 10 -16 9 -34 -1 -22 -5 -31
-11 -25 -5 5 -13 9 -19 9 -5 0 0 -8 10 -17 23 -21 29 -94 7 -86 -9 4 -11 0 -6
-13 5 -13 3 -16 -10 -11 -9 3 -19 1 -23 -5 -5 -7 -2 -8 7 -4 8 5 8 2 -2 -6 -9
-7 -18 -20 -22 -28 -4 -13 -6 -12 -6 1 -1 9 -9 23 -18 30 -15 11 -16 11 -5 -1
15 -17 16 -50 1 -50 -5 0 -8 4 -5 8 2 4 -3 8 -13 8 -10 0 -18 -6 -18 -12 0 -7
7 -10 15 -6 10 3 13 0 10 -9 -3 -8 -11 -13 -17 -12 -6 2 -11 -3 -11 -11 0 -8
-9 -18 -21 -21 -11 -4 -18 -9 -15 -12 2 -3 -9 -18 -26 -35 -24 -23 -33 -27
-39 -16 -5 7 -9 8 -9 2 0 -5 5 -15 11 -21 9 -9 7 -11 -7 -8 -11 1 -18 8 -17
13 2 7 -5 9 -15 5 -14 -5 -15 -3 -4 8 6 7 12 17 12 23 0 5 -7 1 -14 -10 -13
-17 -13 -21 7 -36 l22 -17 -24 -20 c-13 -12 -26 -21 -28 -21 -8 0 4 26 17 37
13 10 11 11 -7 6 -22 -5 -26 -24 -10 -50 6 -9 1 -12 -16 -11 -13 1 -24 8 -24
15 0 6 4 10 9 7 4 -3 8 2 8 11 0 9 -3 14 -7 12 -5 -3 -8 228 -8 514 0 285 2
519 5 519 3 0 12 -6 19 -12 11 -11 11 -9 0 9 -7 12 -18 19 -24 15 -5 -3 -4 1
3 10 17 21 9 25 -57 27 -30 1 -58 4 -62 7 -4 2 -10 0 -13 -4 -6 -10 -36 -9
-53 1 -6 4 -14 4 -17 -1 -4 -6 -89 -8 -106 -1 -3 1 -9 1 -14 0 -14 -3 -90 -3
-101 -1 -25 6 -41 5 -52 -3 -6 -4 -14 -3 -18 3 -3 5 -11 10 -16 10 -6 0 -8 -3
-6 -7 3 -5 -12 -8 -34 -8 -21 0 -39 3 -39 6 0 4 -18 3 -40 -1 -25 -5 -40 -4
-40 3 0 5 -6 4 -14 -2 -8 -7 -17 -8 -20 -3 -4 7 -35 8 -56 2 -16 -5 -191 -1
-199 5 -6 3 -11 1 -11 -6 0 -9 -3 -9 -14 0 -12 10 -14 8 -11 -14 1 -14 -4 -32
-11 -40 -16 -16 -19 -29 -4 -20 6 3 10 1 10 -4 0 -6 -4 -11 -10 -11 -5 0 -10
-5 -10 -11 0 -5 5 -7 10 -4 6 3 10 2 10 -4 0 -5 -6 -12 -12 -14 -10 -4 -10 -6
0 -6 6 -1 12 -6 12 -12 0 -5 -4 -7 -10 -4 -5 3 -10 -1 -10 -10 0 -9 5 -13 10
-10 6 3 10 1 10 -4 0 -6 -4 -11 -10 -11 -5 0 -10 -5 -10 -11 0 -5 5 -7 10 -4
6 3 10 2 10 -4 0 -5 -6 -12 -12 -14 -10 -4 -10 -6 0 -6 6 -1 12 -6 12 -12 0
-5 -4 -7 -10 -4 -5 3 -10 1 -10 -4 0 -6 4 -11 9 -11 5 0 9 -11 9 -25 0 -14 -4
-25 -9 -25 -5 0 -9 -5 -9 -11 0 -5 5 -7 10 -4 6 3 10 2 10 -4 0 -5 -6 -12 -12
-14 -10 -4 -10 -6 0 -6 6 -1 12 -6 12 -12 0 -5 -4 -7 -10 -4 -5 3 -10 1 -10
-4 0 -6 5 -11 10 -11 6 0 10 -5 10 -11 0 -5 -4 -7 -10 -4 -5 3 -10 1 -10 -4 0
-6 5 -11 10 -11 6 0 10 -5 10 -11 0 -5 -4 -7 -10 -4 -5 3 -10 1 -10 -4 0 -6 5
-11 10 -11 6 0 10 -5 10 -11 0 -5 -4 -7 -10 -4 -5 3 -10 -1 -10 -10 0 -10 5
-14 13 -9 10 6 10 4 0 -7 -19 -20 -16 -33 5 -18 15 12 16 12 6 -1 -5 -8 -9
-58 -9 -112 1 -54 -2 -98 -7 -98 -5 0 -6 5 -2 12 5 7 3 8 -6 3 -10 -6 -10 -11
3 -20 18 -13 24 -30 7 -20 -5 3 -10 1 -10 -4 0 -6 5 -11 10 -11 6 0 10 -5 10
-11 0 -5 -4 -7 -10 -4 -5 3 -10 1 -10 -4 0 -6 5 -11 10 -11 6 0 10 -5 10 -11
0 -5 -4 -7 -10 -4 -5 3 -10 1 -10 -4 0 -6 5 -11 10 -11 6 0 10 -5 10 -11 0 -5
-4 -7 -10 -4 -5 3 -10 1 -10 -4 0 -6 5 -11 10 -11 6 0 10 -5 10 -11 0 -5 -4
-7 -10 -4 -5 3 -10 1 -10 -4 0 -6 4 -11 8 -11 5 0 9 -18 9 -40 0 -22 -4 -40
-9 -40 -5 0 -6 5 -2 12 5 7 3 8 -6 3 -10 -6 -10 -11 3 -20 18 -13 24 -30 7
-20 -5 3 -10 1 -10 -4 0 -6 5 -11 10 -11 6 0 10 -5 10 -11 0 -5 -4 -7 -10 -4
-5 3 -10 1 -10 -4 0 -6 4 -11 9 -11 11 0 9 -70 -2 -87 -5 -8 -4 -13 2 -13 6 0
11 -4 11 -8 0 -5 -7 -9 -17 -9 -20 0 -56 34 -43 42 4 3 11 0 13 -5 3 -6 4 -5
3 2 -2 7 -13 12 -24 10 -15 -2 -22 2 -22 13 0 9 -3 14 -7 12 -10 -5 -43 30
-35 37 3 3 -2 6 -11 6 -9 0 -17 5 -17 11 0 5 4 7 10 4 6 -4 7 1 3 11 -4 11 -8
13 -11 6 -5 -17 -22 -15 -22 3 0 8 -5 15 -11 15 -6 0 -17 7 -25 15 -9 8 -12
15 -7 15 4 0 -3 7 -15 16 -12 8 -22 22 -22 30 0 8 -9 14 -20 14 -12 0 -20 7
-20 18 0 13 2 14 9 4 7 -11 9 -11 14 1 6 15 -15 18 -29 4 -13 -13 -22 -7 -17
12 3 11 -2 21 -13 25 -16 6 -15 8 2 28 11 12 13 18 7 14 -7 -4 -13 -4 -14 1
-6 55 -4 76 8 80 7 3 10 9 7 14 -3 5 -9 7 -13 4 -5 -2 -8 10 -7 27 1 21 8 33
21 38 17 6 17 7 -6 13 -23 7 -23 8 -5 22 17 13 15 19 -5 17 -3 -1 -6 13 -5 30
1 21 8 33 21 38 17 6 17 7 -5 13 -20 5 -22 9 -12 19 14 14 16 32 3 24 -13 -8
-7 49 7 67 10 12 10 17 1 23 -8 5 -9 3 -4 -6 5 -9 4 -11 -4 -6 -17 11 -4 25
19 21 11 -2 20 1 20 7 0 5 -7 8 -15 4 -8 -3 -15 -1 -15 5 0 6 -4 8 -9 5 -10
-6 -9 49 2 60 4 4 2 13 -4 20 -7 8 -7 14 1 19 5 3 10 11 10 16 0 6 -4 8 -8 5
-13 -7 -11 27 1 42 15 18 19 52 8 52 -6 0 -8 -10 -6 -21 3 -12 1 -19 -2 -15
-4 3 -7 31 -8 60 -1 43 1 51 10 39 11 -14 12 -14 12 0 0 22 -26 30 -45 15 -10
-8 -13 -9 -9 -2 4 7 0 14 -8 18 -8 3 -17 1 -20 -5 -4 -5 -10 -7 -15 -4 -5 3
-13 -2 -18 -11 -8 -15 -10 -15 -15 0 -5 11 -3 15 5 10 7 -4 8 -3 4 5 -6 8 -12
9 -20 2 -7 -6 -16 -8 -19 -4 -4 3 -7 0 -8 -8 0 -8 -3 -6 -8 5 -7 18 -8 18 -29
-4 l-21 -22 6 23 7 24 -28 -19 c-16 -10 -25 -13 -21 -6 5 8 1 11 -11 8 -11 -2
-18 -11 -16 -19 1 -9 -4 -7 -15 6 -21 23 -72 26 -97 6 -14 -12 -16 -12 -9 5 6
17 5 17 -10 5 -12 -9 -17 -10 -17 -2 0 8 -5 9 -17 2 -9 -5 -26 -6 -37 -2 -27
8 -48 8 -65 -3 -8 -5 -16 -3 -22 5 -7 12 -9 11 -9 -1 0 -9 -3 -11 -8 -5 -10
14 -36 12 -56 -4 -13 -11 -17 -11 -22 2 -3 9 -12 13 -20 10 -8 -3 -11 -10 -7
-17 4 -6 -1 -5 -10 2 -18 15 -41 7 -31 -10 4 -7 2 -8 -5 -4 -6 4 -9 12 -6 17
9 14 -19 11 -34 -3 -9 -8 -11 -8 -8 -2 4 7 0 15 -9 18 -12 5 -15 2 -10 -9 4
-11 2 -14 -7 -8 -18 11 -60 15 -53 5 3 -5 -1 -9 -9 -9 -8 0 -12 4 -9 8 3 5
-16 7 -41 4 -31 -2 -43 0 -39 7 4 7 2 8 -4 4 -7 -4 -12 -22 -12 -40 0 -17 -6
-38 -12 -45 -8 -8 -8 -11 -2 -8 8 5 12 -19 12 -82 0 -78 -3 -89 -17 -84 -14 4
-14 3 1 -6 14 -10 16 -31 16 -146 0 -99 -3 -133 -11 -129 -8 4 -7 2 1 -7 6 -7
12 -37 12 -67 0 -50 -1 -53 -17 -41 -17 13 -17 12 -2 -6 10 -12 17 -41 18 -72
1 -48 0 -52 -20 -48 -12 3 -18 1 -15 -3 4 -4 13 -7 19 -7 8 0 13 -22 14 -58 2
-54 1 -58 -15 -46 -15 12 -14 11 1 -8 20 -23 19 -61 -3 -89 -14 -18 -14 -18 3
-5 15 12 17 11 17 -8 0 -15 -4 -20 -12 -15 -10 6 -10 4 -2 -7 6 -8 12 -38 13
-68 1 -50 0 -53 -16 -40 -17 13 -17 12 -2 -6 20 -24 25 -130 6 -118 -9 5 -9 3
-1 -8 6 -8 12 -38 13 -68 1 -50 0 -53 -16 -40 -17 13 -17 13 0 -7 9 -11 17
-31 17 -44 0 -20 -2 -21 -17 -9 -17 13 -17 13 0 -7 18 -21 24 -70 8 -59 -5 3
-13 1 -16 -5 -4 -6 -1 -9 6 -8 9 2 14 -15 17 -56 3 -47 1 -57 -10 -50 -10 6
-11 5 -2 -7 6 -8 11 -70 12 -151 1 -108 -2 -139 -13 -148 -8 -7 -15 -17 -15
-23 0 -6 6 -3 13 7 12 17 14 13 16 -32 1 -50 1 -51 -26 -46 -15 3 -25 2 -21
-1 3 -4 14 -8 25 -9 27 -4 29 -42 3 -56 -27 -14 -52 -6 -44 15 4 10 0 15 -15
15 -12 0 -21 4 -21 10 0 5 8 6 17 3 14 -5 13 -3 -3 13 -10 11 -21 18 -24 15
-9 -11 -32 -12 -25 -1 3 5 2 10 -3 10 -5 0 -14 11 -22 24 -7 13 -21 27 -32 30
-17 4 -19 10 -14 33 5 23 4 25 -5 10 -10 -17 -12 -15 -29 15 -10 18 -15 37
-12 42 3 5 0 6 -7 2 -9 -6 -8 -14 5 -34 10 -17 -1 -9 -28 18 -47 48 -66 97
-45 121 10 11 9 11 -6 0 -11 -9 -15 -21 -12 -32 4 -11 2 -19 -4 -19 -5 0 -13
9 -16 20 -4 11 -11 17 -17 14 -7 -5 -9 -1 -5 9 3 9 0 18 -9 21 -10 4 -13 2 -8
-7 5 -9 4 -9 -6 0 -11 10 -11 15 0 30 12 15 12 16 0 6 -17 -15 -34 -17 -25 -3
3 6 -4 10 -16 10 -22 0 -22 0 -3 15 10 8 15 15 9 14 -5 -1 -19 2 -30 6 -25 11
-76 58 -52 49 9 -3 17 -2 17 4 0 6 -11 9 -24 8 -17 -2 -23 1 -19 10 3 9 -3 14
-18 15 -13 0 -18 3 -11 6 6 2 12 9 12 14 0 4 -7 6 -15 3 -10 -4 -18 3 -25 20
-5 14 -12 26 -15 26 -4 0 -3 -5 1 -12 4 -7 3 -8 -5 -4 -7 5 -9 17 -5 29 6 22
6 22 -10 2 -15 -19 -16 -19 -9 -1 5 15 3 18 -10 13 -12 -4 -15 -1 -12 14 3 13
0 19 -8 16 -14 -5 -49 32 -41 44 3 5 -5 9 -16 9 -16 0 -20 5 -16 15 3 8 2 14
-2 14 -20 -3 -23 3 -11 19 10 13 8 12 -9 -3 -17 -14 -23 -16 -20 -5 2 8 -2 14
-9 13 -8 -2 -10 4 -6 14 5 13 2 15 -12 10 -14 -6 -16 -5 -7 6 14 17 -3 38 -24
30 -10 -4 -12 0 -7 13 6 17 5 18 -12 4 -10 -8 -16 -10 -12 -4 6 11 -32 50 -46
46 -5 -1 -6 2 -2 8 3 6 10 8 15 5 4 -3 14 3 21 12 12 15 12 16 -1 8 -17 -11
-59 -15 -58 -6 2 13 -15 41 -26 41 -6 0 -20 8 -31 17 -17 13 -17 15 -2 9 10
-3 16 -2 12 3 -3 5 -2 11 2 14 5 2 2 2 -4 1 -20 -5 -43 7 -43 22 0 8 -3 13 -7
12 -5 -1 -28 16 -52 39 l-43 40 28 -1 c36 -1 66 -32 59 -60 -3 -12 -2 -15 1
-8 5 10 9 10 22 0 8 -7 3 6 -11 30 -26 41 -27 42 -7 42 14 0 19 -4 14 -12 -5
-9 -2 -9 9 1 14 11 20 11 34 0 11 -9 14 -10 9 -2 -5 10 61 12 309 12 174 -1
319 1 322 5 3 3 13 1 22 -4 15 -7 16 -2 11 52 -3 32 -3 61 0 63 3 2 5 23 3 46
-1 24 3 50 10 58 7 8 7 12 2 9 -6 -4 -16 2 -23 13 -9 14 -9 18 -1 17 18 -4 16
121 -2 134 -10 7 -8 8 8 5 19 -4 21 -2 14 11 -16 32 -12 134 6 154 19 22 25
45 13 53 -5 3 -7 -3 -5 -12 3 -20 -12 -43 -27 -43 -5 0 -6 5 -2 12 4 6 6 34 5
61 -1 33 2 53 11 58 9 6 5 9 -12 9 l-25 1 25 14 25 14 -24 1 c-29 0 -23 9 9
15 25 5 43 18 20 15 -33 -5 -35 1 -32 106 2 73 0 104 -7 99 -6 -3 -11 -2 -11
4 0 5 6 11 13 14 6 3 -7 4 -30 2 -26 -1 -43 3 -43 9 0 8 -3 8 -8 0 -8 -12 -61
-12 -79 -1 -7 5 -13 4 -13 0 0 -5 -9 -9 -20 -10 -11 -1 -20 2 -20 8 0 5 -5 9
-11 9 -5 0 -7 -5 -3 -12 4 -7 3 -8 -5 -4 -16 11 -111 14 -117 4 -3 -4 -10 -8
-15 -8 -6 0 -7 6 -3 13 5 8 2 8 -9 -2 -9 -7 -17 -9 -17 -4 0 14 -47 8 -66 -8
-8 -7 -14 -8 -13 -3 4 21 -2 26 -18 13 -15 -12 -16 -12 -8 1 5 9 0 7 -14 -4
-21 -19 -21 -19 -15 -1 6 14 4 16 -7 10 -7 -5 -25 -9 -39 -9 -14 0 -28 -4 -32
-10 -5 -7 -8 -7 -8 2 0 7 -4 10 -10 7 -5 -3 -10 -1 -10 6 0 7 -6 5 -14 -6 -13
-17 -14 -18 -23 0 -9 16 -11 16 -28 -6 -10 -13 -15 -17 -12 -7 5 13 -1 16 -30
16 -25 0 -32 -3 -22 -9 9 -6 10 -9 2 -9 -6 0 -14 4 -18 10 -3 5 -12 7 -20 3
-8 -3 -15 0 -15 6 0 6 -5 11 -11 11 -5 0 -7 -5 -3 -12 4 -7 3 -8 -5 -4 -6 4
-19 2 -27 -5 -8 -7 -14 -8 -13 -3 4 21 -2 26 -18 13 -14 -12 -16 -12 -8 0 6
11 5 12 -6 5 -8 -5 -22 -7 -33 -5 -11 1 -16 -2 -12 -8 5 -8 0 -8 -17 -2 -30
12 -56 9 -66 -8 -6 -10 -10 -9 -14 4 -4 9 -3 14 1 11 4 -2 9 5 9 16 2 20 2 20
-14 -2 -12 -17 -17 -19 -24 -9 -7 11 -9 9 -9 -6 0 -17 -2 -17 -10 -5 -5 8 -10
11 -10 5 0 -5 -5 -3 -10 5 -9 13 -10 13 -11 0 -1 -8 -1 -19 0 -25 1 -5 -8 1
-19 14 -18 21 -20 21 -20 5 0 -16 -2 -17 -10 -4 -5 8 -10 11 -10 5 0 -5 -5 -3
-10 5 -9 13 -10 13 -11 0 -1 -8 -1 -19 0 -25 1 -5 -7 -1 -16 10 -19 21 -67 26
-92 11 -8 -5 -16 -3 -22 5 -7 12 -9 11 -9 -1 0 -9 -3 -11 -8 -5 -9 14 -48 11
-67 -5 -9 -8 -15 -9 -14 -4 4 21 -2 26 -18 13 -15 -12 -16 -12 -8 1 8 13 7 13
-9 1 -15 -13 -19 -13 -27 0 -7 12 -9 12 -9 -1 0 -9 -3 -11 -8 -5 -8 11 -107
13 -118 2 -12 -12 -26 -8 -18 6 5 8 2 8 -9 -2 -9 -7 -17 -9 -17 -4 0 14 -47 8
-66 -8 -8 -7 -14 -8 -13 -3 4 21 -2 26 -18 13 -15 -12 -16 -12 -8 1 6 12 5 13
-6 3 -7 -7 -17 -13 -22 -13 -4 0 -5 6 -1 13 5 8 2 8 -9 -2 -12 -9 -17 -10 -17
-2 0 9 -5 9 -20 1 -11 -6 -20 -7 -20 -3 0 4 -5 1 -10 -7 -7 -11 -10 -11 -10
-2 0 7 -4 10 -10 7 -5 -3 -10 0 -10 7 0 10 -3 9 -9 -2 -6 -8 -7 -19 -5 -25 3
-5 -4 1 -15 14 -19 21 -21 21 -22 5 0 -11 -3 -14 -6 -6 -2 6 -9 10 -14 6 -5
-3 -9 0 -9 7 0 7 -6 4 -14 -7 -14 -18 -15 -18 -21 -2 -4 10 -11 15 -16 12 -5
-3 -6 -11 -3 -17 5 -9 4 -9 -6 0 -7 6 -19 9 -26 6 -8 -3 -14 0 -14 6 0 6 -5
11 -11 11 -5 0 -7 -5 -3 -12 4 -7 3 -8 -5 -4 -6 4 -19 2 -27 -5 -8 -7 -14 -8
-13 -3 4 21 -2 26 -18 13 -14 -12 -16 -12 -8 0 6 10 4 12 -6 5 -8 -4 -38 -8
-67 -9 -32 0 -56 -5 -61 -14 -7 -10 -10 -9 -14 4 -4 9 -3 14 1 11 4 -2 9 4 9
15 2 24 1 24 -15 -1z m6633 -30 c3 -5 1 -10 -4 -10 -6 0 -11 5 -11 10 0 6 2
10 4 10 3 0 8 -4 11 -10z m-4800 -1270 c3 -5 1 -10 -4 -10 -6 0 -11 5 -11 10
0 6 2 10 4 10 3 0 8 -4 11 -10z m-1175 -290 c0 -5 -2 -10 -4 -10 -3 0 -8 5
-11 10 -3 6 -1 10 4 10 6 0 11 -4 11 -10z m420 -420 c0 -5 -2 -10 -4 -10 -3 0
-8 5 -11 10 -3 6 -1 10 4 10 6 0 11 -4 11 -10z m1588 -110 c-2 -6 -8 -6 -18 0
-13 9 -13 11 0 20 15 10 25 0 18 -20z m2649 -295 c1 -27 -2 -33 -11 -26 -9 7
-16 7 -24 -1 -19 -19 -15 22 5 44 23 26 29 23 30 -17z m3 -550 c0 -8 -2 -15
-4 -15 -2 0 -6 7 -10 15 -3 8 -1 15 4 15 6 0 10 -7 10 -15z m-3 -70 c0 -8 -4
-12 -9 -9 -5 3 -6 10 -3 15 9 13 12 11 12 -6z m3 -127 c0 -18 -2 -20 -9 -8 -6
8 -7 18 -5 22 9 14 14 9 14 -14z m-2860 -212 c0 -2 -7 -7 -16 -10 -8 -3 -12
-2 -9 4 6 10 25 14 25 6z"/>
<path d="M7070 6116 c0 -2 7 -7 16 -10 8 -3 12 -2 9 4 -6 10 -25 14 -25 6z"/>
<path d="M5746 8491 c-4 -5 -2 -12 3 -15 5 -4 12 -2 15 3 4 5 2 12 -3 15 -5 4
-12 2 -15 -3z"/>
<path d="M6773 8435 c0 -8 4 -12 9 -9 5 3 6 10 3 15 -9 13 -12 11 -12 -6z"/>
<path d="M7090 8419 c0 -5 -4 -7 -10 -4 -14 9 -12 -1 3 -13 10 -8 13 -6 14 9
1 10 0 19 -3 19 -2 0 -4 -5 -4 -11z"/>
<path d="M8105 8420 c-3 -6 1 -7 9 -4 18 7 21 14 7 14 -6 0 -13 -4 -16 -10z"/>
<path d="M6770 8386 c0 -2 7 -7 16 -10 8 -3 12 -2 9 4 -6 10 -25 14 -25 6z"/>
<path d="M8107 8379 c7 -7 15 -10 18 -7 3 3 -2 9 -12 12 -14 6 -15 5 -6 -5z"/>
<path d="M5430 8360 c0 -5 5 -10 10 -10 6 0 10 5 10 10 0 6 -4 10 -10 10 -5 0
-10 -4 -10 -10z"/>
<path d="M6810 8360 c0 -5 5 -10 11 -10 5 0 7 5 4 10 -3 6 -8 10 -11 10 -2 0
-4 -4 -4 -10z"/>
<path d="M5456 8333 c-6 -14 -5 -15 5 -6 7 7 10 15 7 18 -3 3 -9 -2 -12 -12z"/>
<path d="M6773 8335 c0 -8 4 -12 9 -9 4 3 8 9 8 15 0 5 -4 9 -8 9 -5 0 -9 -7
-9 -15z"/>
<path d="M8115 8340 c3 -5 8 -10 11 -10 2 0 4 5 4 10 0 6 -5 10 -11 10 -5 0
-7 -4 -4 -10z"/>
<path d="M4147 8319 c7 -7 15 -10 18 -7 3 3 -2 9 -12 12 -14 6 -15 5 -6 -5z"/>
<path d="M6810 8320 c0 -5 5 -10 11 -10 5 0 7 5 4 10 -3 6 -8 10 -11 10 -2 0
-4 -4 -4 -10z"/>
<path d="M7086 8307 c3 -10 9 -15 12 -12 3 3 0 11 -7 18 -10 9 -11 8 -5 -6z"/>
<path d="M5432 8305 c3 -3 16 -8 28 -10 12 -2 20 -1 16 2 -4 4 -16 8 -28 10
-12 2 -19 1 -16 -2z"/>
<path d="M6774 8281 c0 -16 4 -27 8 -25 4 2 5 14 3 26 -7 32 -13 32 -11 -1z"/>
<path d="M8145 8300 c-3 -6 1 -7 9 -4 18 7 21 14 7 14 -6 0 -13 -4 -16 -10z"/>
<path d="M11500 8306 c0 -2 8 -10 18 -17 15 -13 16 -12 3 4 -13 16 -21 21 -21
13z"/>
<path d="M5535 8291 c-3 -5 -2 -12 3 -15 5 -3 9 1 9 9 0 17 -3 19 -12 6z"/>
<path d="M8116 8281 c-3 -5 1 -14 8 -20 10 -9 16 -9 21 -1 4 6 1 9 -7 8 -7 -2
-12 3 -10 10 2 14 -4 16 -12 3z"/>
<path d="M8315 8280 c3 -5 8 -10 11 -10 2 0 4 5 4 10 0 6 -5 10 -11 10 -5 0
-7 -4 -4 -10z"/>
<path d="M5437 8274 c-3 -5 2 -15 12 -21 14 -9 18 -8 18 3 0 7 -4 11 -8 8 -4
-2 -9 1 -11 8 -3 7 -7 8 -11 2z"/>
<path d="M5742 8251 c-11 -7 -11 -9 0 -14 9 -3 15 1 15 9 0 8 -1 14 -1 14 -1
0 -7 -4 -14 -9z"/>
<path d="M5430 8240 c0 -5 5 -10 11 -10 5 0 7 5 4 10 -3 6 -8 10 -11 10 -2 0
-4 -4 -4 -10z"/>
<path d="M5535 8241 c-3 -5 -2 -12 3 -15 5 -3 9 1 9 9 0 17 -3 19 -12 6z"/>
<path d="M5670 8245 c0 -7 30 -13 34 -7 3 4 -4 9 -15 9 -10 1 -19 0 -19 -2z"/>
<path d="M11427 8239 c7 -7 15 -10 18 -7 3 3 -2 9 -12 12 -14 6 -15 5 -6 -5z"/>
<path d="M6890 8226 c0 -2 7 -7 16 -10 8 -3 12 -2 9 4 -6 10 -25 14 -25 6z"/>
<path d="M11399 8213 c-13 -16 -12 -17 4 -4 9 7 17 15 17 17 0 8 -8 3 -21 -13z"/>
<path d="M4375 8199 c-3 -4 2 -6 10 -5 21 3 28 13 10 13 -9 0 -18 -4 -20 -8z"/>
<path d="M5536 8202 c-3 -4 4 -9 15 -9 23 -2 25 3 4 10 -8 4 -16 3 -19 -1z"/>
<path d="M6773 8190 c-1 -11 2 -20 5 -20 4 0 8 9 9 20 1 11 -2 20 -5 20 -4 0
-8 -9 -9 -20z"/>
<path d="M7055 8200 c3 -5 8 -10 11 -10 2 0 4 5 4 10 0 6 -5 10 -11 10 -5 0
-7 -4 -4 -10z"/>
<path d="M11435 8189 c-4 -6 -5 -12 -2 -15 2 -3 7 2 10 11 7 17 1 20 -8 4z"/>
<path d="M1115 8181 c-3 -5 -2 -12 3 -15 5 -3 9 1 9 9 0 17 -3 19 -12 6z"/>
<path d="M4250 8186 c0 -2 7 -7 16 -10 8 -3 12 -2 9 4 -6 10 -25 14 -25 6z"/>
<path d="M6830 8180 c0 -5 5 -10 11 -10 5 0 7 5 4 10 -3 6 -8 10 -11 10 -2 0
-4 -4 -4 -10z"/>
<path d="M8205 8180 c-3 -6 1 -7 9 -4 18 7 21 14 7 14 -6 0 -13 -4 -16 -10z"/>
<path d="M4215 8160 c-3 -5 -1 -10 4 -10 6 0 11 5 11 10 0 6 -2 10 -4 10 -3 0
-8 -4 -11 -10z"/>
<path d="M5454 8159 c-4 -7 -3 -9 4 -5 6 3 15 -2 21 -11 6 -10 11 -13 11 -7 0
20 -27 37 -36 23z"/>
<path d="M4287 8139 c7 -7 15 -10 18 -7 3 3 -2 9 -12 12 -14 6 -15 5 -6 -5z"/>
<path d="M5433 8130 c-2 -25 15 -36 30 -21 9 9 7 10 -7 5 -15 -6 -18 -4 -13 9
3 9 3 18 -1 21 -4 3 -8 -4 -9 -14z"/>
<path d="M5510 8139 c0 -5 5 -7 10 -4 6 3 10 8 10 11 0 2 -4 4 -10 4 -5 0 -10
-5 -10 -11z"/>
<path d="M6866 8138 c3 -5 10 -6 15 -3 13 9 11 12 -6 12 -8 0 -12 -4 -9 -9z"/>
<path d="M8196 8138 c3 -5 10 -6 15 -3 13 9 11 12 -6 12 -8 0 -12 -4 -9 -9z"/>
<path d="M11380 8146 c0 -2 8 -10 18 -17 15 -13 16 -12 3 4 -13 16 -21 21 -21
13z"/>
<path d="M6773 8126 c0 -8 4 -13 9 -10 12 8 10 -10 -4 -26 -7 -8 -4 -7 7 3 17
15 18 19 4 32 -14 14 -16 14 -16 1z"/>
<path d="M8113 8123 c4 -3 1 -13 -6 -22 -11 -14 -10 -14 5 -2 16 12 16 31 1
31 -4 0 -3 -3 0 -7z"/>
<path d="M11505 8120 c-3 -6 1 -7 9 -4 18 7 21 14 7 14 -6 0 -13 -4 -16 -10z"/>
<path d="M4340 8106 c0 -2 8 -10 18 -17 15 -13 16 -12 3 4 -13 16 -21 21 -21
13z"/>
<path d="M6860 8106 c0 -2 8 -10 18 -17 15 -13 16 -12 3 4 -13 16 -21 21 -21
13z"/>
<path d="M11337 8095 c-4 -8 -3 -16 1 -19 4 -3 9 4 9 15 2 23 -3 25 -10 4z"/>
<path d="M1206 8082 c-3 -5 1 -9 9 -9 8 0 12 4 9 9 -3 4 -7 8 -9 8 -2 0 -6 -4
-9 -8z"/>
<path d="M4256 8082 c-3 -5 1 -9 9 -9 8 0 12 4 9 9 -3 4 -7 8 -9 8 -2 0 -6 -4
-9 -8z"/>
<path d="M7082 8071 c-11 -7 -11 -9 0 -14 9 -3 15 1 15 9 0 8 -1 14 -1 14 -1
0 -7 -4 -14 -9z"/>
<path d="M1257 8055 c-4 -8 -3 -16 1 -19 4 -3 9 4 9 15 2 23 -3 25 -10 4z"/>
<path d="M5710 8061 c0 -6 4 -12 8 -15 5 -3 9 1 9 9 0 8 -4 15 -9 15 -4 0 -8
-4 -8 -9z"/>
<path d="M6820 8060 c-9 -6 -10 -10 -3 -10 6 0 15 5 18 10 8 12 4 12 -15 0z"/>
<path d="M8190 8060 c0 -5 5 -10 11 -10 5 0 7 5 4 10 -3 6 -8 10 -11 10 -2 0
-4 -4 -4 -10z"/>
<path d="M4310 8041 c0 -6 4 -13 10 -16 6 -3 7 1 4 9 -7 18 -14 21 -14 7z"/>
<path d="M4354 8042 c4 -3 14 -7 22 -8 9 -1 13 0 10 4 -4 3 -14 7 -22 8 -9 1
-13 0 -10 -4z"/>
<path d="M5535 8041 c-3 -5 -2 -12 3 -15 5 -3 9 1 9 9 0 17 -3 19 -12 6z"/>
<path d="M6773 8030 c-1 -11 2 -20 5 -20 4 0 8 9 9 20 1 11 -2 20 -5 20 -4 0
-8 -9 -9 -20z"/>
<path d="M6896 8042 c-3 -4 4 -9 15 -9 23 -2 25 3 4 10 -8 4 -16 3 -19 -1z"/>
<path d="M7014 8038 c-4 -7 -4 -10 1 -6 4 4 15 2 24 -5 14 -11 14 -10 2 6 -16
20 -18 21 -27 5z"/>
<path d="M4140 8026 c0 -2 8 -10 18 -17 15 -13 16 -12 3 4 -13 16 -21 21 -21
13z"/>
<path d="M4436 8013 c-6 -14 -5 -15 5 -6 7 7 10 15 7 18 -3 3 -9 -2 -12 -12z"/>
<path d="M5496 8013 c-6 -14 -5 -15 5 -6 7 7 10 15 7 18 -3 3 -9 -2 -12 -12z"/>
<path d="M5645 8020 c-3 -6 1 -7 9 -4 18 7 21 14 7 14 -6 0 -13 -4 -16 -10z"/>
<path d="M8213 8011 c0 -11 5 -18 9 -15 4 3 5 11 1 19 -7 21 -12 19 -10 -4z"/>
<path d="M11356 8007 c3 -10 9 -15 12 -12 3 3 0 11 -7 18 -10 9 -11 8 -5 -6z"/>
<path d="M1296 8002 c-2 -4 -1 -14 4 -22 7 -11 9 -9 7 8 -1 24 -3 26 -11 14z"/>
<path d="M5432 8001 c2 -7 7 -12 11 -12 12 1 9 15 -3 20 -7 2 -11 -2 -8 -8z"/>
<path d="M5526 8002 c-3 -5 1 -9 9 -9 8 0 12 4 9 9 -3 4 -7 8 -9 8 -2 0 -6 -4
-9 -8z"/>
<path d="M5690 7999 c0 -5 5 -7 10 -4 6 3 10 8 10 11 0 2 -4 4 -10 4 -5 0 -10
-5 -10 -11z"/>
<path d="M6795 7990 c-17 -18 -35 -73 -19 -58 3 3 7 14 9 25 1 10 9 17 16 15
8 -2 11 0 7 4 -4 4 -3 13 3 21 18 21 4 15 -16 -7z"/>
<path d="M8334 8002 c4 -3 14 -7 22 -8 9 -1 13 0 10 4 -4 3 -14 7 -22 8 -9 1
-13 0 -10 -4z"/>
<path d="M6830 7996 c0 -2 8 -10 18 -17 15 -13 16 -12 3 4 -13 16 -21 21 -21
13z"/>
<path d="M4150 7980 c0 -5 5 -10 10 -10 6 0 10 5 10 10 0 6 -4 10 -10 10 -5 0
-10 -4 -10 -10z"/>
<path d="M8155 7981 c-3 -5 -2 -12 3 -15 5 -3 9 1 9 9 0 17 -3 19 -12 6z"/>
<path d="M4376 7962 c-3 -5 1 -9 9 -9 8 0 12 4 9 9 -3 4 -7 8 -9 8 -2 0 -6 -4
-9 -8z"/>
<path d="M5535 7960 c3 -5 8 -10 11 -10 2 0 4 5 4 10 0 6 -5 10 -11 10 -5 0
-7 -4 -4 -10z"/>
<path d="M8335 7959 c-3 -4 2 -6 10 -5 21 3 28 13 10 13 -9 0 -18 -4 -20 -8z"/>
<path d="M4336 7942 c-3 -5 1 -9 9 -9 8 0 12 4 9 9 -3 4 -7 8 -9 8 -2 0 -6 -4
-9 -8z"/>
<path d="M7070 7940 c0 -5 7 -7 15 -4 8 4 15 8 15 10 0 2 -7 4 -15 4 -8 0 -15
-4 -15 -10z"/>
<path d="M8109 7937 c6 -8 7 -18 3 -22 -4 -5 -1 -5 6 -1 10 6 10 11 1 22 -6 8
-14 14 -16 14 -3 0 0 -6 6 -13z"/>
<path d="M11156 7933 c-6 -14 -5 -15 5 -6 7 7 10 15 7 18 -3 3 -9 -2 -12 -12z"/>
<path d="M11190 7938 c0 -4 4 -8 9 -8 6 0 12 4 15 8 3 5 -1 9 -9 9 -8 0 -15
-4 -15 -9z"/>
<path d="M4213 7915 c0 -8 4 -12 9 -9 5 3 6 10 3 15 -9 13 -12 11 -12 -6z"/>
<path d="M6827 7919 c7 -7 15 -10 18 -7 3 3 -2 9 -12 12 -14 6 -15 5 -6 -5z"/>
<path d="M8216 7922 c-3 -5 1 -9 9 -9 8 0 12 4 9 9 -3 4 -7 8 -9 8 -2 0 -6 -4
-9 -8z"/>
<path d="M6774 7903 c1 -7 4 -14 7 -15 2 -2 3 -1 2 1 -2 2 4 9 13 15 13 10 13
12 -4 12 -11 0 -19 -6 -18 -13z"/>
<path d="M11095 7909 c-4 -6 -5 -12 -2 -15 2 -3 7 2 10 11 7 17 1 20 -8 4z"/>
<path d="M1356 7893 c-6 -14 -5 -15 5 -6 7 7 10 15 7 18 -3 3 -9 -2 -12 -12z"/>
<path d="M5473 7891 c0 -11 5 -18 9 -15 4 3 5 11 1 19 -7 21 -12 19 -10 -4z"/>
<path d="M7019 7908 c-5 -18 -6 -38 -1 -34 7 8 12 36 6 36 -2 0 -4 -1 -5 -2z"/>
<path d="M1453 7885 c0 -8 4 -12 9 -9 5 3 6 10 3 15 -9 13 -12 11 -12 -6z"/>
<path d="M11193 7885 c0 -8 4 -12 9 -9 5 3 6 10 3 15 -9 13 -12 11 -12 -6z"/>
<path d="M5432 7881 c2 -7 7 -12 11 -12 12 1 9 15 -3 20 -7 2 -11 -2 -8 -8z"/>
<path d="M8100 7885 c0 -2 6 -8 13 -14 10 -8 14 -7 14 2 0 8 -6 14 -14 14 -7
0 -13 -1 -13 -2z"/>
<path d="M8336 7882 c-3 -5 1 -9 9 -9 8 0 12 4 9 9 -3 4 -7 8 -9 8 -2 0 -6 -4
-9 -8z"/>
<path d="M8375 7880 c3 -5 8 -10 11 -10 2 0 4 5 4 10 0 6 -5 10 -11 10 -5 0
-7 -4 -4 -10z"/>
<path d="M5736 7858 c3 -5 10 -6 15 -3 13 9 11 12 -6 12 -8 0 -12 -4 -9 -9z"/>
<path d="M6876 7858 c3 -5 10 -6 15 -3 13 9 11 12 -6 12 -8 0 -12 -4 -9 -9z"/>
<path d="M11136 7862 c-3 -5 1 -9 9 -9 8 0 12 4 9 9 -3 4 -7 8 -9 8 -2 0 -6
-4 -9 -8z"/>
<path d="M4210 7840 c0 -5 5 -10 11 -10 5 0 7 5 4 10 -3 6 -8 10 -11 10 -2 0
-4 -4 -4 -10z"/>
<path d="M4376 7838 c3 -5 10 -6 15 -3 13 9 11 12 -6 12 -8 0 -12 -4 -9 -9z"/>
<path d="M5530 7840 c0 -5 5 -10 11 -10 5 0 7 5 4 10 -3 6 -8 10 -11 10 -2 0
-4 -4 -4 -10z"/>
<path d="M6790 7843 c0 -5 5 -15 10 -23 7 -12 9 -10 7 8 -1 19 -17 33 -17 15z"/>
<path d="M6830 7840 c0 -5 5 -10 11 -10 5 0 7 5 4 10 -3 6 -8 10 -11 10 -2 0
-4 -4 -4 -10z"/>
<path d="M5717 7833 c-10 -9 -9 -23 1 -23 5 0 9 7 9 15 0 17 -1 18 -10 8z"/>
<path d="M7082 7831 c-11 -7 -11 -9 0 -14 9 -3 15 1 15 9 0 8 -1 14 -1 14 -1
0 -7 -4 -14 -9z"/>
<path d="M5433 7815 c0 -8 4 -12 9 -9 4 3 8 9 8 15 0 5 -4 9 -8 9 -5 0 -9 -7
-9 -15z"/>
<path d="M6774 7799 c-1 -16 2 -29 6 -29 7 0 7 46 0 54 -3 2 -6 -9 -6 -25z"/>
<path d="M1545 7809 c-4 -6 -5 -12 -2 -15 2 -3 7 2 10 11 7 17 1 20 -8 4z"/>
<path d="M4415 7800 c3 -5 8 -10 11 -10 2 0 4 5 4 10 0 6 -5 10 -11 10 -5 0
-7 -4 -4 -10z"/>
<path d="M5453 7796 c-3 -6 -3 -8 2 -4 4 4 13 1 19 -8 10 -13 12 -13 12 4 0
20 -23 26 -33 8z"/>
<path d="M5506 7799 c4 -8 30 -6 38 2 3 3 -5 5 -19 5 -13 0 -22 -3 -19 -7z"/>
<path d="M7016 7798 c3 -5 10 -6 15 -3 13 9 11 12 -6 12 -8 0 -12 -4 -9 -9z"/>
<path d="M8100 7806 c0 -2 8 -10 18 -17 15 -13 16 -12 3 4 -13 16 -21 21 -21
13z"/>
<path d="M8215 7801 c-3 -5 -2 -12 3 -15 5 -3 9 1 9 9 0 17 -3 19 -12 6z"/>
<path d="M4436 7773 c-6 -14 -5 -15 5 -6 7 7 10 15 7 18 -3 3 -9 -2 -12 -12z"/>
<path d="M5716 7782 c-3 -5 1 -9 9 -9 8 0 12 4 9 9 -3 4 -7 8 -9 8 -2 0 -6 -4
-9 -8z"/>
<path d="M6939 7788 c-5 -18 -6 -38 -1 -34 7 8 12 36 6 36 -2 0 -4 -1 -5 -2z"/>
<path d="M5430 7776 c0 -2 9 -6 20 -9 11 -3 18 -1 14 4 -5 9 -34 13 -34 5z"/>
<path d="M1535 7761 c-3 -5 -2 -12 3 -15 5 -3 9 1 9 9 0 17 -3 19 -12 6z"/>
<path d="M4355 7759 c-3 -4 2 -6 10 -5 21 3 28 13 10 13 -9 0 -18 -4 -20 -8z"/>
<path d="M5615 7759 c-3 -4 2 -6 10 -5 21 3 28 13 10 13 -9 0 -18 -4 -20 -8z"/>
<path d="M6975 7760 c3 -5 8 -10 11 -10 2 0 4 5 4 10 0 6 -5 10 -11 10 -5 0
-7 -4 -4 -10z"/>
<path d="M8110 7756 c7 -7 13 -7 20 0 6 6 3 10 -10 10 -13 0 -16 -4 -10 -10z"/>
<path d="M11006 7758 c3 -5 10 -6 15 -3 13 9 11 12 -6 12 -8 0 -12 -4 -9 -9z"/>
<path d="M7074 7733 c-14 -22 -14 -25 -2 -15 13 10 17 10 21 0 2 -7 4 -1 3 14
0 16 -2 28 -2 28 -1 0 -10 -12 -20 -27z"/>
<path d="M10953 7735 c0 -8 4 -12 9 -9 5 3 6 10 3 15 -9 13 -12 11 -12 -6z"/>
<path d="M1613 7725 c0 -8 4 -12 9 -9 5 3 6 10 3 15 -9 13 -12 11 -12 -6z"/>
<path d="M5434 7728 c-4 -7 -4 -10 1 -6 4 4 14 3 21 -3 9 -7 14 -6 20 3 4 7 4
10 -1 6 -4 -4 -14 -3 -21 3 -9 7 -14 6 -20 -3z"/>
<path d="M6774 7724 c1 -7 6 -17 11 -21 4 -4 5 -3 1 4 -3 7 1 13 11 15 15 3
15 5 -3 10 -15 4 -21 1 -20 -8z"/>
<path d="M1570 7726 c0 -2 7 -7 16 -10 8 -3 12 -2 9 4 -6 10 -25 14 -25 6z"/>
<path d="M4214 7722 c4 -3 14 -7 22 -8 9 -1 13 0 10 4 -4 3 -14 7 -22 8 -9 1
-13 0 -10 -4z"/>
<path d="M4353 7715 c0 -8 4 -12 9 -9 5 3 6 10 3 15 -9 13 -12 11 -12 -6z"/>
<path d="M5710 7726 c0 -2 7 -7 16 -10 8 -3 12 -2 9 4 -6 10 -25 14 -25 6z"/>
<path d="M6820 7725 c0 -2 6 -8 13 -14 10 -8 14 -7 14 2 0 8 -6 14 -14 14 -7
0 -13 -1 -13 -2z"/>
<path d="M8106 7722 c-2 -4 4 -8 14 -8 10 0 16 4 14 8 -3 4 -9 8 -14 8 -5 0
-11 -4 -14 -8z"/>
<path d="M8150 7725 c0 -7 30 -13 34 -7 3 4 -4 9 -15 9 -10 1 -19 0 -19 -2z"/>
<path d="M8230 7721 c0 -6 4 -13 10 -16 6 -3 7 1 4 9 -7 18 -14 21 -14 7z"/>
<path d="M4429 7703 c-13 -16 -12 -17 4 -4 16 13 21 21 13 21 -2 0 -10 -8 -17
-17z"/>
<path d="M4390 7699 c0 -5 5 -7 10 -4 6 3 10 8 10 11 0 2 -4 4 -10 4 -5 0 -10
-5 -10 -11z"/>
<path d="M5514 7684 c1 -13 5 -26 8 -29 4 -4 5 1 4 12 -2 10 0 23 5 29 5 6 4
11 -5 11 -7 0 -12 -10 -12 -23z"/>
<path d="M6800 7706 c0 -2 8 -10 18 -17 15 -13 16 -12 3 4 -13 16 -21 21 -21
13z"/>
<path d="M6856 7693 c-6 -14 -5 -15 5 -6 7 7 10 15 7 18 -3 3 -9 -2 -12 -12z"/>
<path d="M10907 7699 c7 -7 15 -10 18 -7 3 3 -2 9 -12 12 -14 6 -15 5 -6 -5z"/>
<path d="M10940 7705 c0 -2 6 -8 13 -14 10 -8 14 -7 14 2 0 8 -6 14 -14 14 -7
0 -13 -1 -13 -2z"/>
<path d="M7035 7689 c-4 -6 -5 -12 -2 -15 2 -3 7 2 10 11 7 17 1 20 -8 4z"/>
<path d="M8109 7683 c-13 -16 -12 -17 4 -4 16 13 21 21 13 21 -2 0 -10 -8 -17
-17z"/>
<path d="M6773 7670 c-1 -11 1 -22 5 -24 4 -2 8 7 8 20 1 13 -1 24 -5 24 -4 0
-7 -9 -8 -20z"/>
<path d="M8170 7679 c0 -5 5 -7 10 -4 6 3 10 8 10 11 0 2 -4 4 -10 4 -5 0 -10
-5 -10 -11z"/>
<path d="M6897 7673 c-10 -9 -9 -23 1 -23 5 0 9 7 9 15 0 17 -1 18 -10 8z"/>
<path d="M4186 7658 c3 -5 10 -6 15 -3 13 9 11 12 -6 12 -8 0 -12 -4 -9 -9z"/>
<path d="M5585 7660 c-3 -6 1 -7 9 -4 18 7 21 14 7 14 -6 0 -13 -4 -16 -10z"/>
<path d="M6806 7658 c4 -5 9 -7 12 -4 3 3 15 -2 26 -11 21 -18 21 -18 3 3 -16
20 -52 30 -41 12z"/>
<path d="M6976 7653 c-6 -14 -5 -15 5 -6 7 7 10 15 7 18 -3 3 -9 -2 -12 -12z"/>
<path d="M1656 7635 c-9 -26 -7 -32 5 -12 6 10 9 21 6 23 -2 3 -7 -2 -11 -11z"/>
<path d="M5679 7633 c-13 -16 -12 -17 4 -4 9 7 17 15 17 17 0 8 -8 3 -21 -13z"/>
<path d="M5713 7643 c4 -3 -1 -16 -10 -27 -18 -21 -18 -21 4 -2 20 16 23 36 6
36 -4 0 -3 -3 0 -7z"/>
<path d="M5535 7631 c-3 -5 -2 -12 3 -15 5 -3 9 1 9 9 0 17 -3 19 -12 6z"/>
<path d="M5569 7623 c-13 -16 -12 -17 4 -4 9 7 17 15 17 17 0 8 -8 3 -21 -13z"/>
<path d="M5602 7617 c-17 -18 -19 -24 -7 -24 8 0 13 3 10 5 -3 3 2 14 12 24
24 27 10 22 -15 -5z"/>
<path d="M6814 7629 c1 -7 10 -13 19 -15 9 -1 15 2 11 7 -3 5 -9 7 -14 4 -4
-3 -11 0 -13 5 -3 6 -4 5 -3 -1z"/>
<path d="M10909 7623 c-13 -16 -12 -17 4 -4 9 7 17 15 17 17 0 8 -8 3 -21 -13z"/>
<path d="M4199 7613 c-13 -17 -13 -17 6 -3 11 8 22 16 24 17 2 2 0 3 -6 3 -6
0 -17 -8 -24 -17z"/>
<path d="M5637 7612 c-15 -16 -15 -19 -2 -19 8 0 13 3 10 5 -3 3 0 11 6 19 17
20 5 16 -14 -5z"/>
<path d="M5736 7614 c-5 -14 -4 -15 9 -4 17 14 19 20 6 20 -5 0 -12 -7 -15
-16z"/>
<path d="M6790 7621 c0 -6 4 -13 10 -16 6 -3 7 1 4 9 -7 18 -14 21 -14 7z"/>
<path d="M6920 7625 c0 -2 6 -8 13 -14 10 -8 14 -7 14 2 0 8 -6 14 -14 14 -7
0 -13 -1 -13 -2z"/>
<path d="M6773 7592 c1 -14 5 -18 11 -12 7 7 6 14 -1 21 -9 9 -12 7 -10 -9z"/>
<path d="M6870 7595 c5 -7 8 -14 5 -17 -3 -2 2 -5 10 -5 10 0 12 4 5 12 -5 7
-8 14 -5 17 3 2 -2 5 -10 5 -10 0 -12 -4 -5 -12z"/>
<path d="M6900 7606 c0 -2 8 -10 18 -17 15 -13 16 -12 3 4 -13 16 -21 21 -21
13z"/>
<path d="M10850 7600 c0 -5 5 -10 11 -10 5 0 7 5 4 10 -3 6 -8 10 -11 10 -2 0
-4 -4 -4 -10z"/>
<path d="M10813 7585 c0 -8 4 -12 9 -9 5 3 6 10 3 15 -9 13 -12 11 -12 -6z"/>
<path d="M1740 7580 c-9 -6 -10 -10 -3 -10 6 0 15 5 18 10 8 12 4 12 -15 0z"/>
<path d="M5677 7578 c-7 -5 0 -6 17 -4 16 3 31 7 33 10 8 8 -37 2 -50 -6z"/>
<path d="M6807 7579 c7 -7 15 -10 18 -7 3 3 -2 9 -12 12 -14 6 -15 5 -6 -5z"/>
<path d="M10735 7579 c-3 -4 2 -6 10 -5 21 3 28 13 10 13 -9 0 -18 -4 -20 -8z"/>
<path d="M5626 7557 c3 -10 9 -15 12 -12 3 3 0 11 -7 18 -10 9 -11 8 -5 -6z"/>
<path d="M5725 7560 c-3 -5 -2 -18 4 -27 7 -14 9 -12 8 10 -2 30 -3 31 -12 17z"/>
<path d="M6795 7560 c6 -9 4 -12 -6 -8 -11 4 -15 -1 -15 -18 0 -21 7 -27 8 -7
1 4 8 13 16 19 12 9 12 13 2 19 -9 6 -11 4 -5 -5z"/>
<path d="M8100 7565 c0 -2 6 -8 13 -14 10 -8 14 -7 14 2 0 8 -6 14 -14 14 -7
0 -13 -1 -13 -2z"/>
<path d="M8166 7558 c3 -5 10 -6 15 -3 13 9 11 12 -6 12 -8 0 -12 -4 -9 -9z"/>
<path d="M6891 7553 c-1 -17 16 -25 25 -12 4 7 3 9 -4 5 -5 -3 -13 0 -15 6 -4
9 -6 10 -6 1z"/>
<path d="M6845 7540 c-3 -5 -1 -10 4 -10 6 0 11 5 11 10 0 6 -2 10 -4 10 -3 0
-8 -4 -11 -10z"/>
<path d="M8136 7533 c-6 -14 -5 -15 5 -6 7 7 10 15 7 18 -3 3 -9 -2 -12 -12z"/>
<path d="M8175 7531 c-3 -5 -2 -12 3 -15 5 -3 9 1 9 9 0 17 -3 19 -12 6z"/>
<path d="M1776 7522 c-2 -4 -1 -14 4 -22 7 -11 9 -9 7 8 -1 24 -3 26 -11 14z"/>
<path d="M5670 7520 c0 -5 5 -10 10 -10 6 0 10 5 10 10 0 6 -4 10 -10 10 -5 0
-10 -4 -10 -10z"/>
<path d="M6870 7520 c0 -5 5 -10 10 -10 6 0 10 5 10 10 0 6 -4 10 -10 10 -5 0
-10 -4 -10 -10z"/>
<path d="M3477 7507 c-3 -8 -2 -20 3 -26 5 -9 8 -4 8 13 0 29 -3 32 -11 13z"/>
<path d="M3506 7503 c-4 -10 -4 -14 0 -11 4 4 16 3 28 -3 19 -9 19 -9 4 4 -10
8 -15 17 -11 20 3 4 2 7 -4 7 -6 0 -14 -8 -17 -17z"/>
<path d="M3560 7506 c7 -7 13 -7 20 0 6 6 3 10 -10 10 -13 0 -16 -4 -10 -10z"/>
<path d="M3975 7511 c-3 -5 -2 -12 3 -15 5 -3 9 1 9 9 0 17 -3 19 -12 6z"/>
<path d="M5650 7506 c0 -8 4 -17 9 -20 5 -4 7 3 4 14 -6 23 -13 26 -13 6z"/>
<path d="M6784 7499 c-19 -22 -19 -22 4 -8 12 8 22 17 22 21 0 12 -6 9 -26
-13z"/>
<path d="M8099 7518 c-5 -18 -6 -38 -1 -34 7 8 12 36 6 36 -2 0 -4 -1 -5 -2z"/>
<path d="M8969 7503 c-13 -16 -12 -17 4 -4 16 13 21 21 13 21 -2 0 -10 -8 -17
-17z"/>
<path d="M9061 7504 c0 -11 3 -14 6 -6 3 7 2 16 -1 19 -3 4 -6 -2 -5 -13z"/>
<path d="M3425 7500 c-3 -5 -2 -10 4 -10 5 0 13 5 16 10 3 6 2 10 -4 10 -5 0
-13 -4 -16 -10z"/>
<path d="M3626 7498 c3 -5 10 -6 15 -3 13 9 11 12 -6 12 -8 0 -12 -4 -9 -9z"/>
<path d="M3659 7493 c-13 -16 -12 -17 4 -4 16 13 21 21 13 21 -2 0 -10 -8 -17
-17z"/>
<path d="M5717 7495 c3 -10 1 -15 -8 -13 -7 2 -14 -6 -16 -17 -3 -18 -2 -18 5
-2 4 10 12 18 17 17 6 0 11 6 13 14 2 9 -1 16 -7 16 -6 0 -8 -7 -4 -15z"/>
<path d="M8993 7492 c-9 -15 -8 -19 3 -19 7 0 10 5 7 10 -4 7 1 8 12 3 15 -5
16 -4 5 9 -15 18 -13 19 -27 -3z"/>
<path d="M10720 7500 c-9 -6 -10 -10 -3 -10 6 0 15 5 18 10 8 12 4 12 -15 0z"/>
<path d="M3360 7496 c0 -2 8 -10 18 -17 15 -13 16 -12 3 4 -13 16 -21 21 -21
13z"/>
<path d="M5745 7490 c-3 -5 -3 -10 2 -10 4 0 1 -5 -7 -11 -11 -8 -12 -12 -2
-16 6 -2 9 -10 5 -16 -3 -7 -2 -9 2 -4 8 7 15 67 9 67 -2 0 -6 -4 -9 -10z"/>
<path d="M3440 7478 c-12 -8 -11 -9 4 -4 13 5 17 2 12 -9 -3 -8 -1 -15 4 -15
12 0 13 27 2 34 -4 2 -14 0 -22 -6z"/>
<path d="M8735 7480 c3 -5 8 -10 11 -10 2 0 4 5 4 10 0 6 -5 10 -11 10 -5 0
-7 -4 -4 -10z"/>
<path d="M8947 7479 c7 -7 15 -10 18 -7 3 3 -2 9 -12 12 -14 6 -15 5 -6 -5z"/>
<path d="M6783 7473 c-7 -2 -13 -9 -13 -15 0 -7 5 -7 13 1 8 6 18 7 22 3 5 -4
5 -1 1 6 -4 6 -8 12 -9 11 -1 0 -8 -3 -14 -6z"/>
<path d="M1859 7468 c-5 -18 -6 -38 -1 -34 7 8 12 36 6 36 -2 0 -4 -1 -5 -2z"/>
<path d="M8093 7453 c0 -10 4 -10 16 -1 9 7 18 13 20 15 2 1 -5 1 -16 0 -11 0
-20 -7 -20 -14z"/>
<path d="M9090 7460 c0 -5 5 -10 10 -10 6 0 10 5 10 10 0 6 -4 10 -10 10 -5 0
-10 -4 -10 -10z"/>
<path d="M10705 7460 c-3 -6 1 -7 9 -4 18 7 21 14 7 14 -6 0 -13 -4 -16 -10z"/>
<path d="M3506 7443 c-6 -14 -5 -15 5 -6 7 7 10 15 7 18 -3 3 -9 -2 -12 -12z"/>
<path d="M1895 7440 c3 -5 8 -10 11 -10 2 0 4 5 4 10 0 6 -5 10 -11 10 -5 0
-7 -4 -4 -10z"/>
<path d="M4416 7438 c3 -5 10 -6 15 -3 13 9 11 12 -6 12 -8 0 -12 -4 -9 -9z"/>
<path d="M8855 7440 c-3 -5 -1 -10 4 -10 6 0 11 5 11 10 0 6 -2 10 -4 10 -3 0
-8 -4 -11 -10z"/>
<path d="M8987 7439 c7 -7 15 -10 18 -7 3 3 -2 9 -12 12 -14 6 -15 5 -6 -5z"/>
<path d="M3428 7433 c6 -2 18 -2 25 0 6 3 1 5 -13 5 -14 0 -19 -2 -12 -5z"/>
<path d="M3476 7427 c3 -10 9 -15 12 -12 3 3 0 11 -7 18 -10 9 -11 8 -5 -6z"/>
<path d="M9051 7424 c0 -11 3 -14 6 -6 3 7 2 16 -1 19 -3 4 -6 -2 -5 -13z"/>
<path d="M3666 7422 c-3 -5 1 -9 9 -9 8 0 15 4 15 9 0 4 -4 8 -9 8 -6 0 -12
-4 -15 -8z"/>
<path d="M8093 7413 c0 -9 4 -10 14 -2 7 6 13 12 13 14 0 1 -6 2 -13 2 -8 0
-14 -6 -14 -14z"/>
<path d="M3493 7396 c-4 -5 -1 -6 7 -1 10 6 12 4 6 -11 -4 -10 -4 -15 0 -12 4
4 16 3 28 -3 19 -9 19 -9 4 4 -11 9 -14 17 -8 23 6 6 2 10 -11 10 -11 0 -23
-5 -26 -10z"/>
<path d="M3553 7393 c0 -9 4 -10 14 -2 7 6 13 12 13 14 0 1 -6 2 -13 2 -8 0
-14 -6 -14 -14z"/>
<path d="M8950 7406 c0 -2 7 -7 16 -10 8 -3 12 -2 9 4 -6 10 -25 14 -25 6z"/>
<path d="M9009 7383 c-13 -16 -12 -17 4 -4 9 7 17 15 17 17 0 8 -8 3 -21 -13z"/>
<path d="M1936 7378 c3 -5 10 -6 15 -3 13 9 11 12 -6 12 -8 0 -12 -4 -9 -9z"/>
<path d="M8093 7373 c0 -10 4 -10 16 -1 9 7 18 13 20 15 2 1 -5 1 -16 0 -11 0
-20 -7 -20 -14z"/>
<path d="M8173 7369 c-2 -23 3 -25 10 -4 4 8 3 16 -1 19 -4 3 -9 -4 -9 -15z"/>
<path d="M3676 7353 c-6 -14 -5 -15 5 -6 7 7 10 15 7 18 -3 3 -9 -2 -12 -12z"/>
<path d="M1955 7351 c-3 -5 -2 -12 3 -15 5 -3 9 1 9 9 0 17 -3 19 -12 6z"/>
<path d="M3576 7347 c3 -10 9 -15 12 -12 3 3 0 11 -7 18 -10 9 -11 8 -5 -6z"/>
<path d="M3633 7345 c0 -8 4 -12 9 -9 5 3 6 10 3 15 -9 13 -12 11 -12 -6z"/>
<path d="M10590 7356 c0 -2 8 -10 18 -17 15 -13 16 -12 3 4 -13 16 -21 21 -21
13z"/>
<path d="M8090 7341 c0 -6 4 -13 10 -16 6 -3 7 1 4 9 -7 18 -14 21 -14 7z"/>
<path d="M10553 7325 c0 -8 4 -12 9 -9 5 3 6 10 3 15 -9 13 -12 11 -12 -6z"/>
<path d="M3571 7306 c-9 -10 -8 -15 2 -19 8 -3 13 3 13 14 0 23 0 23 -15 5z"/>
<path d="M3629 7303 c-13 -16 -12 -17 4 -4 9 7 17 15 17 17 0 8 -8 3 -21 -13z"/>
<path d="M3670 7306 c0 -2 7 -7 16 -10 8 -3 12 -2 9 4 -6 10 -25 14 -25 6z"/>
<path d="M8121 7296 c-8 -10 -9 -16 -1 -21 6 -4 9 -1 8 7 -2 7 3 12 10 10 8
-1 11 2 7 8 -8 13 -10 13 -24 -4z"/>
<path d="M8919 7293 c-13 -16 -12 -17 4 -4 9 7 17 15 17 17 0 8 -8 3 -21 -13z"/>
<path d="M2030 7279 c0 -5 5 -7 10 -4 6 3 10 8 10 11 0 2 -4 4 -10 4 -5 0 -10
-5 -10 -11z"/>
<path d="M3610 7276 c0 -2 8 -10 18 -17 15 -13 16 -12 3 4 -13 16 -21 21 -21
13z"/>
<path d="M8247 7259 c7 -7 15 -10 18 -7 3 3 -2 9 -12 12 -14 6 -15 5 -6 -5z"/>
<path d="M4410 7239 c0 -5 5 -7 10 -4 6 3 10 8 10 11 0 2 -4 4 -10 4 -5 0 -10
-5 -10 -11z"/>
<path d="M8113 7243 c4 -3 1 -13 -6 -22 -11 -14 -10 -14 5 -2 16 12 16 31 1
31 -4 0 -3 -3 0 -7z"/>
<path d="M2136 7202 c-3 -5 1 -9 9 -9 8 0 12 4 9 9 -3 4 -7 8 -9 8 -2 0 -6 -4
-9 -8z"/>
<path d="M4415 7200 c3 -5 8 -10 11 -10 2 0 4 5 4 10 0 6 -5 10 -11 10 -5 0
-7 -4 -4 -10z"/>
<path d="M8840 7200 c-9 -6 -10 -10 -3 -10 6 0 15 5 18 10 8 12 4 12 -15 0z"/>
<path d="M8715 7189 c-4 -6 -5 -12 -2 -15 2 -3 7 2 10 11 7 17 1 20 -8 4z"/>
<path d="M10413 7171 c0 -11 5 -18 9 -15 4 3 5 11 1 19 -7 21 -12 19 -10 -4z"/>
<path d="M2133 7165 c0 -8 4 -12 9 -9 5 3 6 10 3 15 -9 13 -12 11 -12 -6z"/>
<path d="M2176 7162 c-3 -5 1 -9 9 -9 8 0 12 4 9 9 -3 4 -7 8 -9 8 -2 0 -6 -4
-9 -8z"/>
<path d="M3775 7161 c-3 -5 -2 -12 3 -15 5 -3 9 1 9 9 0 17 -3 19 -12 6z"/>
<path d="M8093 7147 c0 -7 9 -14 20 -14 11 -1 18 -1 16 0 -2 2 -11 8 -20 15
-12 9 -16 9 -16 -1z"/>
<path d="M8795 7130 c3 -5 8 -10 11 -10 2 0 4 5 4 10 0 6 -5 10 -11 10 -5 0
-7 -4 -4 -10z"/>
<path d="M3773 7109 c-2 -23 3 -25 10 -4 4 8 3 16 -1 19 -4 3 -9 -4 -9 -15z"/>
<path d="M10290 7102 c0 -5 7 -9 15 -9 8 0 12 4 9 9 -3 4 -9 8 -15 8 -5 0 -9
-4 -9 -8z"/>
<path d="M8155 7080 c3 -5 8 -10 11 -10 2 0 4 5 4 10 0 6 -5 10 -11 10 -5 0
-7 -4 -4 -10z"/>
<path d="M4400 7060 c-9 -6 -10 -10 -3 -10 6 0 15 5 18 10 8 12 4 12 -15 0z"/>
<path d="M8730 7055 c-7 -8 -16 -13 -20 -10 -5 3 -11 2 -14 -3 -10 -17 24 -8
41 10 9 10 14 18 11 18 -3 0 -11 -7 -18 -15z"/>
<path d="M10265 7060 c-3 -6 1 -7 9 -4 18 7 21 14 7 14 -6 0 -13 -4 -16 -10z"/>
<path d="M10336 7062 c-3 -5 1 -9 9 -9 8 0 12 4 9 9 -3 4 -7 8 -9 8 -2 0 -6
-4 -9 -8z"/>
<path d="M2255 7039 c-3 -4 2 -6 10 -5 21 3 28 13 10 13 -9 0 -18 -4 -20 -8z"/>
<path d="M3880 7040 c-12 -7 -10 -9 7 -7 12 0 19 5 17 9 -6 10 -6 10 -24 -2z"/>
<path d="M10290 7040 c0 -5 5 -10 11 -10 5 0 7 5 4 10 -3 6 -8 10 -11 10 -2 0
-4 -4 -4 -10z"/>
<path d="M10215 7031 c-3 -5 -2 -12 3 -15 5 -3 9 1 9 9 0 17 -3 19 -12 6z"/>
<path d="M10190 7016 c0 -8 4 -17 9 -20 5 -4 7 3 4 14 -6 23 -13 26 -13 6z"/>
<path d="M3915 6999 c-3 -4 2 -6 10 -5 21 3 28 13 10 13 -9 0 -18 -4 -20 -8z"/>
<path d="M10255 7000 c3 -5 8 -10 11 -10 2 0 4 5 4 10 0 6 -5 10 -11 10 -5 0
-7 -4 -4 -10z"/>
<path d="M10313 6985 c0 -8 4 -12 9 -9 5 3 6 10 3 15 -9 13 -12 11 -12 -6z"/>
<path d="M4430 6981 c0 -6 4 -13 10 -16 6 -3 7 1 4 9 -7 18 -14 21 -14 7z"/>
<path d="M8121 6976 c-8 -10 -9 -16 -1 -21 6 -4 9 -1 8 7 -2 7 3 12 10 10 8
-1 11 2 7 8 -8 13 -10 13 -24 -4z"/>
<path d="M8635 6980 c3 -5 8 -10 11 -10 2 0 4 5 4 10 0 6 -5 10 -11 10 -5 0
-7 -4 -4 -10z"/>
<path d="M3975 6971 c-3 -5 -2 -12 3 -15 5 -3 9 1 9 9 0 17 -3 19 -12 6z"/>
<path d="M2325 6960 c-3 -6 1 -7 9 -4 18 7 21 14 7 14 -6 0 -13 -4 -16 -10z"/>
<path d="M4390 6956 c0 -2 8 -10 18 -17 15 -13 16 -12 3 4 -13 16 -21 21 -21
13z"/>
<path d="M10233 6945 c0 -8 4 -12 9 -9 5 3 6 10 3 15 -9 13 -12 11 -12 -6z"/>
<path d="M3966 6897 c3 -10 9 -15 12 -12 3 3 0 11 -7 18 -10 9 -11 8 -5 -6z"/>
<path d="M8119 6893 c-13 -16 -12 -17 4 -4 16 13 21 21 13 21 -2 0 -10 -8 -17
-17z"/>
<path d="M8519 6893 c-13 -16 -12 -17 4 -4 16 13 21 21 13 21 -2 0 -10 -8 -17
-17z"/>
<path d="M4055 6889 c-4 -6 -5 -12 -2 -15 2 -3 7 2 10 11 7 17 1 20 -8 4z"/>
<path d="M8154 6860 c0 -13 4 -16 10 -10 7 7 7 13 0 20 -6 6 -10 3 -10 -10z"/>
<path d="M4415 6840 c3 -5 8 -10 11 -10 2 0 4 5 4 10 0 6 -5 10 -11 10 -5 0
-7 -4 -4 -10z"/>
<path d="M4075 6821 c-3 -5 -2 -12 3 -15 5 -3 9 1 9 9 0 17 -3 19 -12 6z"/>
<path d="M10060 6826 c0 -2 8 -10 18 -17 15 -13 16 -12 3 4 -13 16 -21 21 -21
13z"/>
<path d="M8109 6803 c-13 -16 -12 -17 4 -4 16 13 21 21 13 21 -2 0 -10 -8 -17
-17z"/>
<path d="M8396 6807 c3 -10 9 -15 12 -12 3 3 0 11 -7 18 -10 9 -11 8 -5 -6z"/>
<path d="M2506 6802 c-3 -5 1 -9 9 -9 8 0 12 4 9 9 -3 4 -7 8 -9 8 -2 0 -6 -4
-9 -8z"/>
<path d="M9975 6791 c-3 -5 -2 -12 3 -15 5 -3 9 1 9 9 0 17 -3 19 -12 6z"/>
<path d="M4376 6762 c-3 -5 1 -9 9 -9 8 0 12 4 9 9 -3 4 -7 8 -9 8 -2 0 -6 -4
-9 -8z"/>
<path d="M8415 6760 c-3 -5 -1 -10 4 -10 6 0 11 5 11 10 0 6 -2 10 -4 10 -3 0
-8 -4 -11 -10z"/>
<path d="M8089 6743 c-13 -16 -12 -17 4 -4 9 7 17 15 17 17 0 8 -8 3 -21 -13z"/>
<path d="M8111 6732 c-7 -13 -6 -19 2 -19 7 0 13 9 13 19 0 10 -1 18 -3 18 -1
0 -7 -8 -12 -18z"/>
<path d="M8390 6741 c0 -6 4 -13 10 -16 6 -3 7 1 4 9 -7 18 -14 21 -14 7z"/>
<path d="M4427 6719 c7 -7 15 -10 18 -7 3 3 -2 9 -12 12 -14 6 -15 5 -6 -5z"/>
<path d="M8256 6722 c-3 -4 4 -9 15 -9 23 -2 25 3 4 10 -8 4 -16 3 -19 -1z"/>
<path d="M2635 6710 c3 -5 8 -10 11 -10 2 0 4 5 4 10 0 6 -5 10 -11 10 -5 0
-7 -4 -4 -10z"/>
<path d="M2450 6699 c0 -5 5 -7 10 -4 6 3 10 8 10 11 0 2 -4 4 -10 4 -5 0 -10
-5 -10 -11z"/>
<path d="M2546 6698 c3 -5 10 -6 15 -3 13 9 11 12 -6 12 -8 0 -12 -4 -9 -9z"/>
<path d="M4154 6696 c11 -9 24 -16 30 -16 12 0 7 5 -24 19 -24 11 -24 11 -6
-3z"/>
<path d="M8170 6701 c0 -6 4 -13 10 -16 6 -3 7 1 4 9 -7 18 -14 21 -14 7z"/>
<path d="M2614 6676 c1 -8 5 -18 8 -22 4 -3 5 1 4 10 -1 8 -5 18 -8 22 -4 3
-5 -1 -4 -10z"/>
<path d="M8108 6683 c6 -2 9 -10 6 -15 -4 -7 -2 -8 5 -4 13 9 5 26 -12 25 -9
0 -8 -2 1 -6z"/>
<path d="M8350 6680 c0 -5 5 -10 11 -10 5 0 7 5 4 10 -3 6 -8 10 -11 10 -2 0
-4 -4 -4 -10z"/>
<path d="M9919 6673 c-12 -16 -12 -17 2 -6 9 7 20 9 24 5 5 -4 5 -1 1 6 -9 16
-11 15 -27 -5z"/>
<path d="M4274 6665 c1 -8 8 -21 16 -28 12 -10 12 -9 2 4 -6 9 -9 18 -6 21 3
3 1 9 -4 12 -6 3 -9 -1 -8 -9z"/>
<path d="M4319 6678 c-5 -18 -6 -38 -1 -34 7 8 12 36 6 36 -2 0 -4 -1 -5 -2z"/>
<path d="M4393 6665 c0 -8 4 -15 9 -15 4 0 8 4 8 9 0 6 -4 12 -8 15 -5 3 -9
-1 -9 -9z"/>
<path d="M9855 6669 c-4 -6 -5 -12 -2 -15 2 -3 7 2 10 11 7 17 1 20 -8 4z"/>
<path d="M8080 6666 c0 -2 8 -10 18 -17 15 -13 16 -12 3 4 -13 16 -21 21 -21
13z"/>
<path d="M8189 6643 c-13 -16 -12 -17 4 -4 16 13 21 21 13 21 -2 0 -10 -8 -17
-17z"/>
<path d="M8147 6639 c7 -7 15 -10 18 -7 3 3 -2 9 -12 12 -14 6 -15 5 -6 -5z"/>
<path d="M4415 6631 c-3 -5 -2 -12 3 -15 5 -3 9 1 9 9 0 17 -3 19 -12 6z"/>
<path d="M2695 6620 c-3 -5 -1 -10 4 -10 6 0 11 5 11 10 0 6 -2 10 -4 10 -3 0
-8 -4 -11 -10z"/>
<path d="M4270 6621 c0 -6 4 -13 10 -16 6 -3 7 1 4 9 -7 18 -14 21 -14 7z"/>
<path d="M8105 6619 c-4 -6 -4 -13 -1 -16 3 -4 6 -1 6 6 0 7 5 9 10 6 6 -3 10
-1 10 4 0 14 -17 14 -25 0z"/>
<path d="M8244 6622 c4 -3 14 -7 22 -8 9 -1 13 0 10 4 -4 3 -14 7 -22 8 -9 1
-13 0 -10 -4z"/>
<path d="M9810 6626 c0 -2 7 -7 16 -10 8 -3 12 -2 9 4 -6 10 -25 14 -25 6z"/>
<path d="M4304 6588 c0 -17 2 -17 12 -4 6 9 13 15 15 13 2 -1 3 0 1 2 -8 14
-28 6 -28 -11z"/>
<path d="M4377 6589 c7 -7 15 -10 18 -7 3 3 -2 9 -12 12 -14 6 -15 5 -6 -5z"/>
<path d="M8137 6589 c7 -7 15 -10 18 -7 3 3 -2 9 -12 12 -14 6 -15 5 -6 -5z"/>
<path d="M8110 6575 c0 -8 4 -15 10 -15 5 0 7 7 4 15 -4 8 -8 15 -10 15 -2 0
-4 -7 -4 -15z"/>
<path d="M9786 6578 c3 -5 10 -6 15 -3 13 9 11 12 -6 12 -8 0 -12 -4 -9 -9z"/>
<path d="M9820 6586 c0 -2 8 -10 18 -17 15 -13 16 -12 3 4 -13 16 -21 21 -21
13z"/>
<path d="M2736 6562 c-2 -4 -1 -14 4 -22 7 -11 9 -9 7 8 -1 24 -3 26 -11 14z"/>
<path d="M4365 6540 c-3 -6 1 -7 9 -4 18 7 21 14 7 14 -6 0 -13 -4 -16 -10z"/>
<path d="M4435 6539 c-4 -6 -5 -12 -2 -15 2 -3 7 2 10 11 7 17 1 20 -8 4z"/>
<path d="M8130 6540 c0 -4 7 -7 15 -6 23 3 26 12 5 13 -11 1 -20 -2 -20 -7z"/>
<path d="M4400 6531 c0 -7 -4 -10 -9 -6 -5 3 -13 0 -17 -6 -4 -8 -3 -9 4 -5 7
4 12 1 12 -6 0 -8 5 -6 11 5 6 10 8 21 5 24 -3 4 -6 1 -6 -6z"/>
<path d="M8128 6507 c17 -13 28 -28 24 -33 -4 -4 1 -2 10 5 21 16 14 33 -9 24
-12 -5 -14 -3 -8 7 5 8 4 11 -3 6 -6 -3 -13 -2 -17 4 -3 5 -11 10 -18 10 -6 0
3 -11 21 -23z"/>
<path d="M8086 6498 c3 -5 10 -6 15 -3 13 9 11 12 -6 12 -8 0 -12 -4 -9 -9z"/>
<path d="M4411 6474 c10 -13 10 -17 -2 -25 -9 -5 -10 -9 -2 -9 6 0 14 4 17 9
8 12 -4 41 -16 41 -6 0 -5 -7 3 -16z"/>
<path d="M8103 6475 c-3 -9 -3 -19 1 -22 3 -4 6 1 6 10 0 10 5 17 11 17 6 0 8
-7 4 -17 -5 -14 -3 -15 6 -6 12 12 5 33 -12 33 -5 0 -12 -7 -16 -15z"/>
<path d="M9715 6471 c-3 -5 -2 -12 3 -15 5 -3 9 1 9 9 0 17 -3 19 -12 6z"/>
<path d="M2901 6451 c-8 -5 -9 -11 -3 -15 5 -3 12 1 16 9 6 17 6 18 -13 6z"/>
<path d="M2854 6436 c1 -8 5 -18 8 -22 4 -3 5 1 4 10 -1 8 -5 18 -8 22 -4 3
-5 -1 -4 -10z"/>
<path d="M2893 6395 c0 -8 4 -12 9 -9 5 3 6 10 3 15 -9 13 -12 11 -12 -6z"/>
<path d="M9573 6375 c0 -8 4 -12 9 -9 4 3 8 9 8 15 0 5 -4 9 -8 9 -5 0 -9 -7
-9 -15z"/>
<path d="M9635 6361 c-3 -5 -2 -12 3 -15 5 -3 9 1 9 9 0 17 -3 19 -12 6z"/>
<path d="M2976 6342 c-2 -4 -1 -14 4 -22 7 -11 9 -9 7 8 -1 24 -3 26 -11 14z"/>
<path d="M9577 6335 c-4 -8 -3 -16 1 -19 4 -3 9 4 9 15 2 23 -3 25 -10 4z"/>
<path d="M3040 6306 c0 -2 7 -7 16 -10 8 -3 12 -2 9 4 -6 10 -25 14 -25 6z"/>
<path d="M9530 6280 c0 -5 5 -10 11 -10 5 0 7 5 4 10 -3 6 -8 10 -11 10 -2 0
-4 -4 -4 -10z"/>
<path d="M9495 6240 c3 -5 8 -10 11 -10 2 0 4 5 4 10 0 6 -5 10 -11 10 -5 0
-7 -4 -4 -10z"/>
<path d="M3106 6222 c-3 -5 1 -9 9 -9 8 0 12 4 9 9 -3 4 -7 8 -9 8 -2 0 -6 -4
-9 -8z"/>
<path d="M9546 6218 c3 -5 10 -6 15 -3 13 9 11 12 -6 12 -8 0 -12 -4 -9 -9z"/>
<path d="M3150 6181 c0 -6 4 -13 10 -16 6 -3 7 1 4 9 -7 18 -14 21 -14 7z"/>
<path d="M7029 6153 c-1 -5 -1 -11 0 -15 0 -5 -3 -8 -9 -8 -5 0 -10 -5 -10
-10 0 -6 8 -5 20 2 21 13 27 38 10 38 -5 0 -11 -3 -11 -7z"/>
<path d="M3167 6139 c7 -7 15 -10 18 -7 3 3 -2 9 -12 12 -14 6 -15 5 -6 -5z"/>
<path d="M3213 6125 c0 -8 4 -12 9 -9 5 3 6 10 3 15 -9 13 -12 11 -12 -6z"/>
<path d="M5510 6119 c0 -5 5 -7 10 -4 6 3 10 8 10 11 0 2 -4 4 -10 4 -5 0 -10
-5 -10 -11z"/>
<path d="M9350 6125 c0 -7 30 -13 34 -7 3 4 -4 9 -15 9 -10 1 -19 0 -19 -2z"/>
<path d="M7008 6093 c6 -2 9 -10 6 -15 -4 -7 -2 -8 5 -4 13 9 5 26 -12 25 -9
0 -8 -2 1 -6z"/>
<path d="M5467 6084 c7 -3 15 -5 19 -4 4 1 11 -4 16 -12 8 -11 9 -10 6 1 -2 8
-15 15 -29 17 -13 1 -18 0 -12 -2z"/>
<path d="M3229 6063 c-13 -16 -12 -17 4 -4 16 13 21 21 13 21 -2 0 -10 -8 -17
-17z"/>
<path d="M5435 6070 c-3 -5 -1 -10 4 -10 6 0 11 5 11 10 0 6 -2 10 -4 10 -3 0
-8 -4 -11 -10z"/>
<path d="M6992 6060 c0 -14 2 -19 5 -12 2 6 2 18 0 25 -3 6 -5 1 -5 -13z"/>
<path d="M9255 6069 c-4 -6 -5 -12 -2 -15 2 -3 7 2 10 11 7 17 1 20 -8 4z"/>
<path d="M7033 6055 c0 -8 4 -12 9 -9 4 3 8 9 8 15 0 5 -4 9 -8 9 -5 0 -9 -7
-9 -15z"/>
<path d="M3115 6040 c-3 -5 -1 -10 4 -10 6 0 11 5 11 10 0 6 -2 10 -4 10 -3 0
-8 -4 -11 -10z"/>
<path d="M5495 6041 c-9 -15 15 -25 28 -12 9 9 7 10 -7 5 -13 -5 -17 -4 -12 4
4 7 5 12 2 12 -3 0 -7 -4 -11 -9z"/>
<path d="M5559 6043 c0 -5 -2 -16 -4 -25 -2 -10 0 -20 4 -22 3 -2 7 9 7 25 1
16 0 29 -2 29 -2 0 -4 -3 -5 -7z"/>
<path d="M6922 6038 c-15 -15 -15 -28 0 -28 6 0 8 3 5 7 -4 3 -2 12 4 20 14
16 7 17 -9 1z"/>
<path d="M3296 6001 c-3 -5 2 -15 12 -22 15 -12 16 -12 5 2 -7 9 -10 19 -6 22
3 4 4 7 0 7 -3 0 -8 -4 -11 -9z"/>
<path d="M6892 6000 c2 -8 -3 -14 -10 -12 -8 1 -11 -2 -8 -7 4 -5 0 -11 -6
-14 -7 -2 -1 -4 13 -3 25 1 33 25 15 43 -4 5 -6 1 -4 -7z"/>
<path d="M6988 6003 c7 -3 16 -2 19 1 4 3 -2 6 -13 5 -11 0 -14 -3 -6 -6z"/>
<path d="M9190 5996 c7 -7 13 -7 20 0 6 6 3 10 -10 10 -13 0 -16 -4 -10 -10z"/>
<path d="M9240 6000 c-12 -7 -10 -9 7 -7 12 0 19 5 17 9 -6 10 -6 10 -24 -2z"/>
<path d="M5460 5996 c0 -2 7 -7 16 -10 8 -3 12 -2 9 4 -6 10 -25 14 -25 6z"/>
<path d="M5588 5993 c7 -3 16 -2 19 1 4 3 -2 6 -13 5 -11 0 -14 -3 -6 -6z"/>
<path d="M5653 5981 c0 -11 5 -18 9 -15 4 3 5 11 1 19 -7 21 -12 19 -10 -4z"/>
<path d="M6933 5985 c0 -8 3 -13 5 -10 3 3 10 0 17 -5 8 -7 12 -5 12 5 0 8 -3
13 -5 10 -3 -3 -10 0 -17 5 -8 7 -12 5 -12 -5z"/>
<path d="M7015 5990 c-4 -6 -12 -7 -18 -4 -7 4 -9 4 -5 -1 4 -4 2 -15 -4 -24
-10 -12 -7 -12 8 2 11 9 23 15 26 12 2 -3 5 2 5 10 0 18 -3 19 -12 5z"/>
<path d="M7075 5993 c25 -20 15 -48 -16 -45 -3 1 -6 -6 -6 -13 0 -11 4 -12 13
-4 7 6 17 8 22 5 5 -3 9 9 8 26 -1 18 -8 33 -16 35 -9 3 -11 1 -5 -4z"/>
<path d="M9320 5986 c0 -2 8 -10 18 -17 15 -13 16 -12 3 4 -13 16 -21 21 -21
13z"/>
<path d="M5485 5962 c-6 -4 -11 -23 -10 -42 0 -24 -4 -34 -13 -32 -8 1 -11 -2
-7 -8 11 -18 35 9 31 34 -2 11 1 29 6 39 10 19 8 20 -7 9z"/>
<path d="M5518 5963 c7 -3 16 -2 19 1 4 3 -2 6 -13 5 -11 0 -14 -3 -6 -6z"/>
<path d="M5589 5957 c6 -8 7 -18 3 -22 -4 -5 -1 -5 6 -1 10 6 10 11 1 22 -6 8
-14 14 -16 14 -3 0 0 -6 6 -13z"/>
<path d="M5435 5950 c-3 -5 -1 -10 4 -10 6 0 11 5 11 10 0 6 -2 10 -4 10 -3 0
-8 -4 -11 -10z"/>
<path d="M6933 5947 c0 -8 6 -14 14 -14 9 0 10 4 2 14 -6 7 -12 13 -14 13 -1
0 -2 -6 -2 -13z"/>
<path d="M6859 5933 c-13 -17 -13 -17 6 -3 11 8 22 16 24 17 2 2 0 3 -6 3 -6
0 -17 -8 -24 -17z"/>
<path d="M5680 5920 c-9 -6 -10 -10 -3 -10 6 0 15 5 18 10 8 12 4 12 -15 0z"/>
<path d="M9170 5919 c0 -5 5 -7 10 -4 6 3 10 8 10 11 0 2 -4 4 -10 4 -5 0 -10
-5 -10 -11z"/>
<path d="M5438 5903 c7 -3 16 -2 19 1 4 3 -2 6 -13 5 -11 0 -14 -3 -6 -6z"/>
<path d="M6920 5900 c-9 -6 -10 -10 -3 -10 6 0 15 5 18 10 8 12 4 12 -15 0z"/>
<path d="M6830 5896 c0 -2 8 -10 18 -17 15 -13 16 -12 3 4 -13 16 -21 21 -21
13z"/>
<path d="M3416 5882 c-3 -5 1 -9 9 -9 8 0 12 4 9 9 -3 4 -7 8 -9 8 -2 0 -6 -4
-9 -8z"/>
<path d="M5654 5878 c-4 -7 -4 -10 1 -6 4 4 15 2 24 -5 14 -11 14 -10 2 6 -16
20 -18 21 -27 5z"/>
<path d="M6975 5880 c3 -5 8 -10 11 -10 2 0 4 5 4 10 0 6 -5 10 -11 10 -5 0
-7 -4 -4 -10z"/>
<path d="M6813 5867 c0 -8 6 -14 14 -14 9 0 10 4 2 14 -6 7 -12 13 -14 13 -1
0 -2 -6 -2 -13z"/>
<path d="M7085 5871 c-3 -5 -2 -12 3 -15 5 -3 9 1 9 9 0 17 -3 19 -12 6z"/>
<path d="M3459 5868 c-5 -18 -6 -38 -1 -34 7 8 12 36 6 36 -2 0 -4 -1 -5 -2z"/>
<path d="M5710 5866 c0 -2 7 -7 16 -10 8 -3 12 -2 9 4 -6 10 -25 14 -25 6z"/>
<path d="M3495 5840 c3 -5 8 -10 11 -10 2 0 4 5 4 10 0 6 -5 10 -11 10 -5 0
-7 -4 -4 -10z"/>
<path d="M5594 5842 c4 -3 14 -7 22 -8 9 -1 13 0 10 4 -4 3 -14 7 -22 8 -9 1
-13 0 -10 -4z"/>
<path d="M5655 5840 c3 -5 8 -10 11 -10 2 0 4 5 4 10 0 6 -5 10 -11 10 -5 0
-7 -4 -4 -10z"/>
<path d="M5435 5830 c-3 -5 -1 -10 4 -10 6 0 11 5 11 10 0 6 -2 10 -4 10 -3 0
-8 -4 -11 -10z"/>
<path d="M9006 5818 c3 -5 10 -6 15 -3 13 9 11 12 -6 12 -8 0 -12 -4 -9 -9z"/>
<path d="M6855 5800 c3 -5 8 -10 11 -10 2 0 4 5 4 10 0 6 -5 10 -11 10 -5 0
-7 -4 -4 -10z"/>
<path d="M3515 5791 c-3 -5 -2 -12 3 -15 5 -3 9 1 9 9 0 17 -3 19 -12 6z"/>
<path d="M5433 5770 c-1 -11 2 -20 5 -20 4 0 8 9 9 20 1 11 -2 20 -5 20 -4 0
-8 -9 -9 -20z"/>
<path d="M6760 5785 c0 -2 6 -8 13 -14 10 -8 14 -7 14 2 0 8 -6 14 -14 14 -7
0 -13 -1 -13 -2z"/>
<path d="M3555 5771 c-3 -5 -2 -12 3 -15 5 -3 9 1 9 9 0 17 -3 19 -12 6z"/>
<path d="M9013 5765 c0 -8 4 -12 9 -9 5 3 6 10 3 15 -9 13 -12 11 -12 -6z"/>
<path d="M5535 5760 c3 -5 8 -10 11 -10 2 0 4 5 4 10 0 6 -5 10 -11 10 -5 0
-7 -4 -4 -10z"/>
<path d="M7084 5731 c4 -6 3 -18 -3 -25 -8 -9 -7 -13 2 -13 16 0 20 34 5 43
-7 4 -8 2 -4 -5z"/>
<path d="M3576 5718 c3 -5 10 -6 15 -3 13 9 11 12 -6 12 -8 0 -12 -4 -9 -9z"/>
<path d="M6755 5721 c-3 -5 -2 -12 3 -15 5 -3 9 1 9 9 0 17 -3 19 -12 6z"/>
<path d="M6790 5720 c0 -5 5 -10 11 -10 5 0 7 5 4 10 -3 6 -8 10 -11 10 -2 0
-4 -4 -4 -10z"/>
<path d="M5710 5685 c0 -7 30 -13 34 -7 3 4 -4 9 -15 9 -10 1 -19 0 -19 -2z"/>
<path d="M6756 5682 c-3 -5 1 -9 9 -9 8 0 12 4 9 9 -3 4 -7 8 -9 8 -2 0 -6 -4
-9 -8z"/>
<path d="M8916 5667 c3 -10 9 -15 12 -12 3 3 0 11 -7 18 -10 9 -11 8 -5 -6z"/>
<path d="M3630 5659 c0 -5 5 -7 10 -4 6 3 10 8 10 11 0 2 -4 4 -10 4 -5 0 -10
-5 -10 -11z"/>
<path d="M5433 5650 c-1 -11 2 -20 7 -20 4 0 7 7 6 15 -3 23 -12 26 -13 5z"/>
<path d="M3656 5635 c-9 -26 -7 -32 5 -12 6 10 9 21 6 23 -2 3 -7 -2 -11 -11z"/>
<path d="M5534 5636 c1 -8 5 -18 8 -22 4 -3 5 1 4 10 -1 8 -5 18 -8 22 -4 3
-5 -1 -4 -10z"/>
<path d="M5720 5640 c-12 -7 -10 -9 7 -7 12 0 19 5 17 9 -6 10 -6 10 -24 -2z"/>
<path d="M6753 5633 c0 -9 4 -10 14 -2 7 6 13 12 13 14 0 1 -6 2 -13 2 -8 0
-14 -6 -14 -14z"/>
<path d="M7036 5627 c3 -10 9 -15 12 -12 3 3 0 11 -7 18 -10 9 -11 8 -5 -6z"/>
<path d="M8830 5637 c0 -2 6 -10 14 -16 11 -9 16 -9 22 1 4 7 4 10 -1 6 -4 -4
-14 -3 -22 3 -7 6 -13 9 -13 6z"/>
<path d="M8794 5595 c0 -13 3 -22 7 -19 8 4 6 30 -2 38 -3 3 -5 -5 -5 -19z"/>
<path d="M5448 5593 c-10 -2 -18 -9 -18 -14 0 -6 8 -5 20 1 11 6 20 13 20 15
0 3 -1 4 -2 4 -2 -1 -11 -3 -20 -6z"/>
<path d="M5550 5579 c0 -5 5 -7 10 -4 6 3 10 8 10 11 0 2 -4 4 -10 4 -5 0 -10
-5 -10 -11z"/>
<path d="M8835 5561 c-3 -5 -2 -12 3 -15 5 -3 9 1 9 9 0 17 -3 19 -12 6z"/>
<path d="M3813 5525 c0 -8 4 -12 9 -9 5 3 6 10 3 15 -9 13 -12 11 -12 -6z"/>
<path d="M5438 5523 c7 -3 16 -2 19 1 4 3 -2 6 -13 5 -11 0 -14 -3 -6 -6z"/>
<path d="M6796 5507 c3 -10 9 -15 12 -12 3 3 0 11 -7 18 -10 9 -11 8 -5 -6z"/>
<path d="M5433 5497 c0 -8 6 -14 13 -14 7 0 10 6 7 14 -3 7 -8 13 -12 13 -4 0
-8 -6 -8 -13z"/>
<path d="M5566 5498 c3 -5 10 -6 15 -3 13 9 11 12 -6 12 -8 0 -12 -4 -9 -9z"/>
<path d="M6836 5493 c-6 -14 -5 -15 5 -6 7 7 10 15 7 18 -3 3 -9 -2 -12 -12z"/>
<path d="M7016 5502 c-3 -5 1 -9 9 -9 8 0 12 4 9 9 -3 4 -7 8 -9 8 -2 0 -6 -4
-9 -8z"/>
<path d="M8693 5452 c-1 -22 0 -24 9 -8 6 10 6 22 2 26 -5 5 -10 -3 -11 -18z"/>
<path d="M3836 5453 c-6 -14 -5 -15 5 -6 7 7 10 15 7 18 -3 3 -9 -2 -12 -12z"/>
<path d="M5535 5460 c-3 -5 -1 -10 4 -10 6 0 11 5 11 10 0 6 -2 10 -4 10 -3 0
-8 -4 -11 -10z"/>
<path d="M5745 5459 c-3 -4 2 -6 10 -5 21 3 28 13 10 13 -9 0 -18 -4 -20 -8z"/>
<path d="M6813 5449 c-2 -23 3 -25 10 -4 4 8 3 16 -1 19 -4 3 -9 -4 -9 -15z"/>
<path d="M7086 5447 c3 -10 9 -15 12 -12 3 3 0 11 -7 18 -10 9 -11 8 -5 -6z"/>
<path d="M5436 5433 c-6 -14 -5 -15 5 -6 7 7 10 15 7 18 -3 3 -9 -2 -12 -12z"/>
<path d="M5454 5419 c-3 -6 -2 -15 3 -20 5 -5 9 -1 9 11 0 23 -2 24 -12 9z"/>
<path d="M3895 5411 c-3 -5 -2 -12 3 -15 5 -3 9 1 9 9 0 17 -3 19 -12 6z"/>
<path d="M5533 5391 c0 -11 5 -18 9 -15 4 3 5 11 1 19 -7 21 -12 19 -10 -4z"/>
<path d="M3955 5381 c-3 -5 -2 -12 3 -15 5 -3 9 1 9 9 0 17 -3 19 -12 6z"/>
<path d="M5436 5353 c-6 -14 -5 -15 5 -6 7 7 10 15 7 18 -3 3 -9 -2 -12 -12z"/>
<path d="M6800 5360 c-12 -7 -10 -9 7 -7 12 0 19 5 17 9 -6 10 -6 10 -24 -2z"/>
<path d="M5455 5339 c-4 -6 -5 -12 -2 -15 2 -3 7 2 10 11 7 17 1 20 -8 4z"/>
<path d="M6213 5338 c-15 -20 -25 -38 -20 -38 3 0 12 11 21 25 17 26 16 35 -1
13z"/>
<path d="M6324 5324 c9 -8 16 -20 16 -26 0 -6 3 -9 6 -6 8 9 -14 48 -27 48 -6
0 -3 -7 5 -16z"/>
<path d="M6266 5304 c-5 -14 -4 -15 9 -4 17 14 19 20 6 20 -5 0 -12 -7 -15
-16z"/>
<path d="M5534 5296 c1 -8 5 -18 8 -22 4 -3 5 1 4 10 -1 8 -5 18 -8 22 -4 3
-5 -1 -4 -10z"/>
<path d="M6215 5300 c-3 -6 1 -7 9 -4 18 7 21 14 7 14 -6 0 -13 -4 -16 -10z"/>
<path d="M6756 5298 c3 -5 10 -6 15 -3 13 9 11 12 -6 12 -8 0 -12 -4 -9 -9z"/>
<path d="M8520 5300 c-9 -6 -10 -10 -3 -10 6 0 15 5 18 10 8 12 4 12 -15 0z"/>
<path d="M6296 5291 c-4 -5 3 -7 14 -4 23 6 26 13 6 13 -8 0 -17 -4 -20 -9z"/>
<path d="M3990 5285 c0 -7 30 -13 34 -7 3 4 -4 9 -15 9 -10 1 -19 0 -19 -2z"/>
<path d="M5436 5273 c-6 -14 -5 -15 5 -6 7 7 10 15 7 18 -3 3 -9 -2 -12 -12z"/>
<path d="M6225 5280 c-3 -6 1 -7 9 -4 18 7 21 14 7 14 -6 0 -13 -4 -16 -10z"/>
<path d="M6251 5267 c-8 -10 -7 -14 2 -14 8 0 14 6 14 14 0 7 -1 13 -2 13 -2
0 -8 -6 -14 -13z"/>
<path d="M6335 5269 c-4 -6 -5 -12 -2 -15 2 -3 7 2 10 11 7 17 1 20 -8 4z"/>
<path d="M6290 5261 c0 -6 4 -13 10 -16 6 -3 7 1 4 9 -7 18 -14 21 -14 7z"/>
<path d="M8415 5260 c-3 -5 -1 -10 4 -10 6 0 11 5 11 10 0 6 -2 10 -4 10 -3 0
-8 -4 -11 -10z"/>
<path d="M8515 5260 c3 -5 8 -10 11 -10 2 0 4 5 4 10 0 6 -5 10 -11 10 -5 0
-7 -4 -4 -10z"/>
<path d="M6353 5245 c0 -8 4 -12 9 -9 5 3 6 10 3 15 -9 13 -12 11 -12 -6z"/>
<path d="M7086 5251 c-4 -5 -2 -20 3 -33 9 -21 9 -20 8 9 -2 36 -3 38 -11 24z"/>
<path d="M5534 5236 c1 -8 5 -18 8 -22 4 -3 5 1 4 10 -1 8 -5 18 -8 22 -4 3
-5 -1 -4 -10z"/>
<path d="M6155 5241 c-3 -5 -2 -12 3 -15 5 -3 9 1 9 9 0 17 -3 19 -12 6z"/>
<path d="M6188 5243 c7 -3 16 -2 19 1 4 3 -2 6 -13 5 -11 0 -14 -3 -6 -6z"/>
<path d="M7055 5240 c3 -5 8 -10 11 -10 2 0 4 5 4 10 0 6 -5 10 -11 10 -5 0
-7 -4 -4 -10z"/>
<path d="M8473 5235 c0 -8 4 -12 9 -9 5 3 6 10 3 15 -9 13 -12 11 -12 -6z"/>
<path d="M3990 5226 c0 -2 7 -7 16 -10 8 -3 12 -2 9 4 -6 10 -25 14 -25 6z"/>
<path d="M8439 5213 c-13 -16 -12 -17 4 -4 9 7 17 15 17 17 0 8 -8 3 -21 -13z"/>
<path d="M4110 5199 c0 -5 5 -7 10 -4 6 3 10 8 10 11 0 2 -4 4 -10 4 -5 0 -10
-5 -10 -11z"/>
<path d="M6147 5199 c7 -7 15 -10 18 -7 3 3 -2 9 -12 12 -14 6 -15 5 -6 -5z"/>
<path d="M6275 5199 c-3 -4 2 -6 10 -5 21 3 28 13 10 13 -9 0 -18 -4 -20 -8z"/>
<path d="M6750 5200 c0 -5 5 -10 11 -10 5 0 7 5 4 10 -3 6 -8 10 -11 10 -2 0
-4 -4 -4 -10z"/>
<path d="M5436 5192 c-3 -5 1 -9 9 -9 8 0 12 4 9 9 -3 4 -7 8 -9 8 -2 0 -6 -4
-9 -8z"/>
<path d="M5546 5178 c3 -5 10 -6 15 -3 13 9 11 12 -6 12 -8 0 -12 -4 -9 -9z"/>
<path d="M6135 5171 c-3 -5 -2 -12 3 -15 5 -3 9 1 9 9 0 17 -3 19 -12 6z"/>
<path d="M6175 5171 c-3 -5 -2 -12 3 -15 5 -3 9 1 9 9 0 17 -3 19 -12 6z"/>
<path d="M5430 5162 c0 -5 7 -9 15 -9 8 0 12 4 9 9 -3 4 -9 8 -15 8 -5 0 -9
-4 -9 -8z"/>
<path d="M6047 5159 c7 -7 15 -10 18 -7 3 3 -2 9 -12 12 -14 6 -15 5 -6 -5z"/>
<path d="M6775 5160 c-3 -5 -1 -10 4 -10 6 0 11 5 11 10 0 6 -2 10 -4 10 -3 0
-8 -4 -11 -10z"/>
<path d="M8390 5165 c0 -7 30 -13 34 -7 3 4 -4 9 -15 9 -10 1 -19 0 -19 -2z"/>
<path d="M5546 5138 c3 -5 10 -6 15 -3 13 9 11 12 -6 12 -8 0 -12 -4 -9 -9z"/>
<path d="M7056 5142 c-2 -4 -1 -14 4 -22 7 -11 9 -9 7 8 -1 24 -3 26 -11 14z"/>
<path d="M5533 5085 c0 -8 4 -12 9 -9 5 3 6 10 3 15 -9 13 -12 11 -12 -6z"/>
<path d="M5454 5079 c-4 -7 -3 -9 4 -5 6 3 15 -2 21 -11 6 -10 11 -13 11 -7 0
20 -27 37 -36 23z"/>
<path d="M6050 5080 c0 -5 5 -10 11 -10 5 0 7 5 4 10 -3 6 -8 10 -11 10 -2 0
-4 -4 -4 -10z"/>
<path d="M8335 5080 c-3 -5 -1 -10 4 -10 6 0 11 5 11 10 0 6 -2 10 -4 10 -3 0
-8 -4 -11 -10z"/>
<path d="M5953 5052 c-1 -22 0 -24 9 -8 6 10 6 22 2 26 -5 5 -10 -3 -11 -18z"/>
<path d="M6571 5064 c0 -11 3 -14 6 -6 3 7 2 16 -1 19 -3 4 -6 -2 -5 -13z"/>
<path d="M8226 5072 c-3 -5 1 -9 9 -9 8 0 12 4 9 9 -3 4 -7 8 -9 8 -2 0 -6 -4
-9 -8z"/>
<path d="M5433 5049 c-1 -10 6 -23 16 -28 13 -7 18 -6 18 4 0 8 -7 11 -15 7
-11 -4 -14 -1 -9 11 3 9 3 18 -1 21 -4 3 -9 -4 -9 -15z"/>
<path d="M4229 5023 c-13 -16 -12 -17 4 -4 16 13 21 21 13 21 -2 0 -10 -8 -17
-17z"/>
<path d="M7054 5016 c1 -8 5 -18 8 -22 4 -3 5 1 4 10 -1 8 -5 18 -8 22 -4 3
-5 -1 -4 -10z"/>
<path d="M5490 5000 c0 -5 5 -10 11 -10 5 0 7 5 4 10 -3 6 -8 10 -11 10 -2 0
-4 -4 -4 -10z"/>
<path d="M8150 4991 c0 -7 -5 -9 -12 -5 -7 5 -8 3 -3 -5 5 -9 10 -10 18 -2 6
6 8 14 4 18 -4 3 -7 1 -7 -6z"/>
<path d="M4316 4973 c-6 -14 -5 -15 5 -6 7 7 10 15 7 18 -3 3 -9 -2 -12 -12z"/>
<path d="M5432 4985 c3 -3 16 -8 28 -10 12 -2 20 -1 16 2 -4 4 -16 8 -28 10
-12 2 -19 1 -16 -2z"/>
<path d="M6665 4980 c3 -5 8 -10 11 -10 2 0 4 5 4 10 0 6 -5 10 -11 10 -5 0
-7 -4 -4 -10z"/>
<path d="M5435 4950 c-3 -5 -1 -10 4 -10 6 0 11 5 11 10 0 6 -2 10 -4 10 -3 0
-8 -4 -11 -10z"/>
<path d="M5430 4918 c0 -11 12 -10 30 2 12 7 10 9 -8 7 -12 0 -22 -5 -22 -9z"/>
<path d="M8170 4920 c0 -5 5 -10 11 -10 5 0 7 5 4 10 -3 6 -8 10 -11 10 -2 0
-4 -4 -4 -10z"/>
<path d="M4463 4905 c0 -8 4 -12 9 -9 5 3 6 10 3 15 -9 13 -12 11 -12 -6z"/>
<path d="M7054 4896 c1 -8 5 -18 8 -22 4 -3 5 1 4 10 -1 8 -5 18 -8 22 -4 3
-5 -1 -4 -10z"/>
<path d="M7086 4867 c3 -10 9 -15 12 -12 3 3 0 11 -7 18 -10 9 -11 8 -5 -6z"/>
<path d="M8010 4860 c0 -5 5 -10 10 -10 6 0 10 5 10 10 0 6 -4 10 -10 10 -5 0
-10 -4 -10 -10z"/>
<path d="M8095 4840 c3 -5 8 -10 11 -10 2 0 4 5 4 10 0 6 -5 10 -11 10 -5 0
-7 -4 -4 -10z"/>
<path d="M5536 4818 c3 -5 10 -6 15 -3 13 9 11 12 -6 12 -8 0 -12 -4 -9 -9z"/>
<path d="M4510 4799 c0 -5 5 -7 10 -4 6 3 10 8 10 11 0 2 -4 4 -10 4 -5 0 -10
-5 -10 -11z"/>
<path d="M5430 4800 c0 -5 5 -10 10 -10 6 0 10 5 10 10 0 6 -4 10 -10 10 -5 0
-10 -4 -10 -10z"/>
<path d="M5475 4789 c-4 -6 -5 -12 -2 -15 2 -3 7 2 10 11 7 17 1 20 -8 4z"/>
<path d="M7053 4775 c0 -8 4 -12 9 -9 5 3 6 10 3 15 -9 13 -12 11 -12 -6z"/>
<path d="M7974 4782 c4 -3 14 -7 22 -8 9 -1 13 0 10 4 -4 3 -14 7 -22 8 -9 1
-13 0 -10 -4z"/>
<path d="M5505 4740 c-3 -6 1 -7 9 -4 18 7 21 14 7 14 -6 0 -13 -4 -16 -10z"/>
<path d="M7086 4735 c4 -8 8 -15 10 -15 2 0 4 7 4 15 0 8 -4 15 -10 15 -5 0
-7 -7 -4 -15z"/>
<path d="M7882 4734 c-7 -7 -12 -17 -11 -20 0 -4 -5 -11 -13 -16 -11 -8 -11
-9 0 -6 8 2 13 7 12 12 -1 4 7 14 17 21 10 7 16 16 13 18 -3 3 -11 -1 -18 -9z"/>
<path d="M5474 4695 c0 -13 3 -22 7 -19 8 4 6 30 -2 38 -3 3 -5 -5 -5 -19z"/>
<path d="M5430 4682 c0 -5 7 -9 15 -9 8 0 12 4 9 9 -3 4 -9 8 -15 8 -5 0 -9
-4 -9 -8z"/>
<path d="M4675 4631 c-3 -5 -2 -12 3 -15 5 -3 9 1 9 9 0 17 -3 19 -12 6z"/>
<path d="M7086 4627 c3 -10 9 -15 12 -12 3 3 0 11 -7 18 -10 9 -11 8 -5 -6z"/>
<path d="M5430 4618 c0 -4 4 -8 9 -8 6 0 12 4 15 8 3 5 -1 9 -9 9 -8 0 -15 -4
-15 -9z"/>
<path d="M7027 4619 c7 -7 15 -10 18 -7 3 3 -2 9 -12 12 -14 6 -15 5 -6 -5z"/>
<path d="M5455 4600 c-3 -5 -1 -10 4 -10 6 0 11 5 11 10 0 6 -2 10 -4 10 -3 0
-8 -4 -11 -10z"/>
<path d="M7766 4582 c-3 -5 1 -9 9 -9 8 0 12 4 9 9 -3 4 -7 8 -9 8 -2 0 -6 -4
-9 -8z"/>
<path d="M7856 4582 c-3 -5 1 -9 9 -9 8 0 12 4 9 9 -3 4 -7 8 -9 8 -2 0 -6 -4
-9 -8z"/>
<path d="M4750 4559 c0 -5 5 -7 10 -4 6 3 10 8 10 11 0 2 -4 4 -10 4 -5 0 -10
-5 -10 -11z"/>
<path d="M4710 4541 c0 -6 4 -13 10 -16 6 -3 7 1 4 9 -7 18 -14 21 -14 7z"/>
<path d="M5515 4521 c-3 -5 -2 -12 3 -15 5 -3 9 1 9 9 0 17 -3 19 -12 6z"/>
<path d="M7694 4518 c-4 -7 -3 -10 1 -5 5 4 16 0 26 -9 14 -12 18 -13 25 -2 4
7 3 10 -1 5 -5 -4 -16 0 -26 9 -14 12 -18 13 -25 2z"/>
<path d="M4863 4505 c0 -8 4 -12 9 -9 5 3 6 10 3 15 -9 13 -12 11 -12 -6z"/>
<path d="M4816 4498 c3 -5 10 -6 15 -3 13 9 11 12 -6 12 -8 0 -12 -4 -9 -9z"/>
<path d="M7066 4498 c3 -4 11 -5 19 -1 21 7 19 12 -4 10 -11 0 -18 -5 -15 -9z"/>
<path d="M5434 4468 c-4 -7 -4 -10 1 -6 4 4 15 2 24 -5 14 -11 14 -10 2 6 -16
20 -18 21 -27 5z"/>
<path d="M4879 4453 c-13 -16 -12 -17 4 -4 16 13 21 21 13 21 -2 0 -10 -8 -17
-17z"/>
<path d="M5516 4458 c3 -5 10 -6 15 -3 13 9 11 12 -6 12 -8 0 -12 -4 -9 -9z"/>
<path d="M7046 4438 c3 -5 10 -6 15 -3 13 9 11 12 -6 12 -8 0 -12 -4 -9 -9z"/>
<path d="M7596 4442 c-3 -5 1 -9 9 -9 8 0 12 4 9 9 -3 4 -7 8 -9 8 -2 0 -6 -4
-9 -8z"/>
<path d="M5514 4416 c1 -8 5 -18 8 -22 4 -3 5 1 4 10 -1 8 -5 18 -8 22 -4 3
-5 -1 -4 -10z"/>
<path d="M5436 4393 c-6 -14 -5 -15 5 -6 7 7 10 15 7 18 -3 3 -9 -2 -12 -12z"/>
<path d="M7086 4387 c3 -10 9 -15 12 -12 3 3 0 11 -7 18 -10 9 -11 8 -5 -6z"/>
<path d="M4914 4362 c4 -3 14 -7 22 -8 9 -1 13 0 10 4 -4 3 -14 7 -22 8 -9 1
-13 0 -10 -4z"/>
<path d="M5435 4360 c3 -5 8 -10 11 -10 2 0 4 5 4 10 0 6 -5 10 -11 10 -5 0
-7 -4 -4 -10z"/>
<path d="M5490 4359 c0 -5 5 -7 10 -4 6 3 10 8 10 11 0 2 -4 4 -10 4 -5 0 -10
-5 -10 -11z"/>
<path d="M4990 4356 c0 -2 8 -10 18 -17 15 -13 16 -12 3 4 -13 16 -21 21 -21
13z"/>
<path d="M5556 4338 c3 -5 10 -6 15 -3 13 9 11 12 -6 12 -8 0 -12 -4 -9 -9z"/>
<path d="M7034 4322 c4 -3 14 -7 22 -8 9 -1 13 0 10 4 -4 3 -14 7 -22 8 -9 1
-13 0 -10 -4z"/>
<path d="M7486 4302 c-3 -5 1 -9 9 -9 8 0 12 4 9 9 -3 4 -7 8 -9 8 -2 0 -6 -4
-9 -8z"/>
<path d="M7530 4301 c0 -6 4 -13 10 -16 6 -3 7 1 4 9 -7 18 -14 21 -14 7z"/>
<path d="M5495 4291 c-3 -5 -2 -12 3 -15 5 -3 9 1 9 9 0 17 -3 19 -12 6z"/>
<path d="M7474 4273 c16 -20 36 -23 36 -6 0 4 -3 3 -7 0 -3 -4 -16 1 -27 10
-21 18 -21 18 -2 -4z"/>
<path d="M5075 4269 c-4 -6 -5 -12 -2 -15 2 -3 7 2 10 11 7 17 1 20 -8 4z"/>
<path d="M7590 4266 c0 -2 7 -7 16 -10 8 -3 12 -2 9 4 -6 10 -25 14 -25 6z"/>
<path d="M5467 4239 c7 -7 15 -10 18 -7 3 3 -2 9 -12 12 -14 6 -15 5 -6 -5z"/>
<path d="M7455 4209 c-4 -6 -5 -12 -2 -15 2 -3 7 2 10 11 7 17 1 20 -8 4z"/>
<path d="M5430 4198 c0 -4 4 -8 9 -8 6 0 12 4 15 8 3 5 -1 9 -9 9 -8 0 -15 -4
-15 -9z"/>
<path d="M7415 4180 c-3 -5 -1 -10 4 -10 6 0 11 5 11 10 0 6 -2 10 -4 10 -3 0
-8 -4 -11 -10z"/>
<path d="M5206 4162 c-3 -5 1 -9 9 -9 8 0 12 4 9 9 -3 4 -7 8 -9 8 -2 0 -6 -4
-9 -8z"/>
<path d="M7360 4140 c-9 -6 -10 -10 -3 -10 6 0 15 5 18 10 8 12 4 12 -15 0z"/>
<path d="M5035 4120 c-3 -5 -1 -10 4 -10 6 0 11 5 11 10 0 6 -2 10 -4 10 -3 0
-8 -4 -11 -10z"/>
</g>
</svg>
