<?xml version="1.0" standalone="no"?>
<!DOCTYPE svg PUBLIC "-//W3C//DTD SVG 20010904//EN"
 "http://www.w3.org/TR/2001/REC-SVG-20010904/DTD/svg10.dtd">
<svg version="1.0" xmlns="http://www.w3.org/2000/svg"
 width="514.000000pt" height="514.000000pt" viewBox="0 0 514.000000 514.000000"
 preserveAspectRatio="xMidYMid meet">
<metadata>
Created by potrace 1.14, written by Peter Selinger 2001-2017
</metadata>
<g transform="translate(0.000000,514.000000) scale(0.100000,-0.100000)"
fill="#000000" stroke="none">
<path d="M325 5133 c-86 -20 -177 -93 -221 -180 l-29 -58 -2 -2245 -2 -2245
21 -53 c40 -102 131 -179 238 -201 41 -9 603 -11 2275 -9 l2220 3 58 29 c68
35 126 94 159 163 l23 48 0 2255 0 2255 -25 50 c-34 70 -89 126 -157 161 l-58
29 -2240 1 c-1232 1 -2249 0 -2260 -3z"/>
</g>
</svg>
