<?xml version="1.0" standalone="no"?>
<!DOCTYPE svg PUBLIC "-//W3C//DTD SVG 20010904//EN"
 "http://www.w3.org/TR/2001/REC-SVG-20010904/DTD/svg10.dtd">
<svg version="1.0" xmlns="http://www.w3.org/2000/svg"
 width="512.000000pt" height="512.000000pt" viewBox="0 0 512.000000 512.000000"
 preserveAspectRatio="xMidYMid meet">
<metadata>
Created by potrace 1.14, written by Peter Selinger 2001-2017
</metadata>
<g transform="translate(0.000000,512.000000) scale(0.100000,-0.100000)"
fill="#000000" stroke="none">
<path d="M3956 3193 c-6 -14 -5 -15 5 -6 7 7 10 15 7 18 -3 3 -9 -2 -12 -12z"/>
<path d="M4119 3193 c-13 -16 -12 -17 4 -4 16 13 21 21 13 21 -2 0 -10 -8 -17
-17z"/>
<path d="M4010 3176 c0 -2 8 -10 18 -17 15 -13 16 -12 3 4 -13 16 -21 21 -21
13z"/>
<path d="M4266 3162 c-3 -5 1 -9 9 -9 8 0 12 4 9 9 -3 4 -7 8 -9 8 -2 0 -6 -4
-9 -8z"/>
<path d="M1100 3126 c0 -2 8 -10 18 -17 15 -13 16 -12 3 4 -13 16 -21 21 -21
13z"/>
<path d="M1535 3120 c-3 -5 -1 -10 4 -10 6 0 11 5 11 10 0 6 -2 10 -4 10 -3 0
-8 -4 -11 -10z"/>
<path d="M1590 3118 c0 -4 4 -8 9 -8 6 0 12 4 15 8 3 5 -1 9 -9 9 -8 0 -15 -4
-15 -9z"/>
<path d="M4180 3120 c-9 -6 -10 -10 -3 -10 6 0 15 5 18 10 8 12 4 12 -15 0z"/>
<path d="M936 3097 c3 -10 3 -17 -2 -16 -5 1 -13 0 -19 -1 -36 -7 -99 0 -106
11 -5 8 -9 9 -9 3 0 -7 -36 -11 -107 -12 -169 -1 -160 0 -158 -23 1 -11 20
-38 43 -60 23 -21 39 -39 35 -39 -5 0 0 -5 9 -11 9 -5 15 -16 12 -23 -3 -8 -1
-17 5 -21 7 -3 8 0 5 9 -4 9 -1 16 6 16 6 0 14 -9 17 -20 3 -11 9 -17 14 -14
5 3 9 -2 9 -11 0 -9 5 -13 10 -10 9 6 14 -8 11 -27 0 -5 3 -7 9 -5 11 2 90
-71 90 -84 0 -5 7 -9 16 -9 8 0 12 -4 9 -10 -3 -5 0 -10 7 -10 7 0 22 -14 33
-30 11 -16 26 -30 33 -30 7 0 10 -4 7 -10 -3 -5 1 -10 10 -10 10 0 15 -7 13
-17 -2 -12 3 -17 15 -15 9 2 17 -2 17 -8 0 -15 26 -41 34 -33 3 4 6 -1 6 -11
0 -9 5 -14 10 -11 6 3 10 -1 10 -9 0 -9 7 -16 16 -16 11 0 14 -6 9 -22 -4 -15
-3 -18 2 -10 10 13 34 -5 62 -46 8 -12 18 -19 23 -16 4 3 8 -2 8 -10 0 -9 7
-16 15 -16 13 0 19 -12 16 -32 0 -4 6 -5 14 -2 8 4 15 1 15 -6 0 -6 7 -18 15
-26 8 -9 15 -13 15 -10 0 3 11 -6 25 -20 14 -14 25 -29 25 -34 0 -6 7 -10 16
-10 8 0 12 -4 9 -10 -3 -5 -1 -10 5 -10 6 0 8 -5 5 -10 -4 -6 -3 -9 2 -8 4 2
19 -5 33 -15 13 -9 21 -17 17 -17 -5 0 -2 -7 7 -15 8 -8 20 -15 26 -15 7 0 10
-7 6 -15 -3 -8 -2 -14 2 -14 20 3 32 -3 32 -16 0 -8 7 -15 16 -15 8 0 13 -4
10 -8 -3 -5 4 -15 16 -23 33 -22 58 -51 52 -60 -3 -5 2 -6 10 -3 11 4 16 0 16
-10 0 -9 7 -16 16 -16 8 0 12 -4 9 -10 -3 -5 2 -10 11 -10 10 0 15 -3 11 -6
-6 -6 16 -34 26 -34 15 0 97 -92 91 -101 -4 -7 -3 -9 4 -5 6 3 73 -56 151
-133 128 -126 162 -165 129 -145 -7 4 -8 3 -4 -5 4 -6 11 -9 16 -6 11 7 51
-31 43 -39 -4 -3 -1 -6 5 -6 6 0 25 -13 43 -29 29 -27 31 -32 18 -48 -13 -16
-12 -17 3 -5 19 15 42 7 32 -11 -4 -7 -4 -9 1 -5 4 4 15 3 25 -2 22 -12 65 16
52 33 -5 7 -8 28 -7 47 1 19 -2 40 -7 46 -5 7 0 21 12 37 11 14 20 29 20 33 0
4 -7 -1 -15 -12 -11 -15 -14 -16 -15 -3 0 8 6 21 13 28 10 11 9 12 -2 6 -10
-6 -11 -2 -6 15 6 17 4 21 -6 14 -11 -6 -12 -5 -2 7 6 8 10 24 9 34 -2 11 1
25 6 32 6 7 5 14 -3 19 -8 5 -9 3 -4 -6 5 -9 4 -11 -4 -6 -8 6 -9 12 -2 20 6
7 9 23 6 35 -3 16 0 21 10 17 20 -7 10 35 -12 52 -15 10 -15 12 -1 12 23 0 30
28 10 39 -15 8 -15 14 -5 42 7 17 9 37 6 43 -4 6 -8 29 -8 51 -1 23 -5 46 -9
53 -4 7 -3 12 2 12 5 0 8 25 7 55 -1 30 0 55 2 55 2 0 23 -19 46 -42 25 -25
34 -39 22 -34 -30 12 -65 14 -59 4 3 -5 11 -8 17 -7 29 4 79 -16 92 -35 7 -12
13 -43 12 -71 -2 -47 -4 -50 -27 -48 -22 2 -23 1 -7 -8 9 -5 21 -8 25 -5 5 3
9 -13 10 -35 1 -29 -1 -38 -11 -33 -9 5 -9 4 1 -7 7 -8 12 -43 12 -92 l0 -80
25 27 c13 14 29 26 35 26 6 0 9 3 7 8 -2 4 18 28 45 55 26 26 48 44 49 40 0
-5 4 0 8 10 6 17 8 17 34 -3 15 -12 27 -28 27 -36 0 -8 3 -13 8 -12 4 2 33
-23 65 -54 l57 -58 1 53 c1 28 2 88 2 132 2 61 5 79 15 77 8 -1 11 2 7 8 -3 6
-11 8 -17 4 -19 -12 -5 89 17 114 l20 23 17 -21 c22 -27 23 -41 3 -34 -8 4
-15 12 -15 20 0 8 -5 14 -10 14 -15 0 5 -36 24 -43 23 -9 30 11 12 38 -14 21
-14 26 7 57 31 45 58 50 53 9 -2 -17 1 -34 6 -37 5 -3 5 -11 0 -17 -4 -7 -7
-22 -6 -34 0 -13 -3 -23 -7 -23 -5 0 -9 -5 -9 -11 0 -5 5 -7 10 -4 18 11 11
-14 -8 -25 -16 -11 -16 -11 0 -6 10 3 20 1 23 -4 4 -6 0 -10 -8 -10 -8 0 -18
-7 -21 -16 -5 -14 -4 -15 9 -4 18 15 20 0 3 -19 -10 -11 -10 -13 0 -7 7 5 12
1 12 -9 0 -10 -5 -14 -12 -9 -10 6 -10 4 0 -7 14 -16 16 -33 2 -24 -6 3 -7 -1
-4 -9 3 -9 11 -13 16 -10 7 4 7 0 0 -12 -5 -11 -8 -36 -7 -56 2 -23 -1 -36 -7
-32 -6 4 -5 -3 1 -15 7 -11 9 -21 5 -21 -3 0 -1 -6 5 -14 8 -9 8 -16 2 -20 -6
-4 -7 -14 -4 -24 6 -15 5 -16 -13 -2 -18 14 -18 14 -5 -3 18 -22 24 -70 9 -61
-7 5 -8 2 -2 -7 12 -20 16 -51 5 -44 -5 3 -13 0 -17 -6 -4 -7 -3 -9 4 -5 6 3
13 2 17 -4 3 -5 0 -10 -7 -10 -9 0 -10 -3 -2 -8 6 -4 10 -20 9 -37 -1 -16 2
-37 6 -46 5 -9 5 -19 2 -23 -34 -33 24 -55 59 -22 12 12 26 20 30 18 5 -1 8 3
8 8 0 14 237 249 244 242 3 -3 6 3 6 12 0 10 6 16 13 13 6 -2 11 -10 9 -16 -1
-7 3 -9 9 -6 8 5 8 10 0 18 -18 18 -12 29 12 22 15 -4 18 -3 9 3 -10 7 -2 21
37 61 27 28 55 51 62 51 7 0 10 3 6 6 -8 9 63 75 74 68 5 -3 6 3 2 13 -3 10
-3 15 1 11 9 -7 56 39 56 54 0 5 4 7 8 4 4 -2 17 9 27 25 11 16 26 27 32 24 7
-2 12 1 10 8 -1 7 3 11 9 10 7 -1 11 5 10 14 0 9 5 18 13 21 9 3 11 0 6 -9 -5
-8 -4 -11 1 -6 5 5 9 12 9 16 0 3 10 17 23 31 12 13 22 28 22 33 0 5 8 6 17 3
10 -4 14 -4 11 0 -12 11 29 47 44 38 11 -6 11 -5 0 8 -11 14 -10 17 6 22 10 4
25 17 32 31 7 13 16 22 20 20 4 -2 13 7 20 21 9 16 19 23 29 19 8 -3 13 -3 9
0 -9 10 24 45 42 45 12 0 12 2 2 9 -11 6 -10 10 5 16 10 5 21 7 26 7 4 -1 6 1
5 5 -3 15 14 43 22 38 5 -3 12 4 15 16 4 11 9 18 12 15 4 -3 16 8 28 24 12 16
24 28 27 25 2 -3 11 6 18 20 10 18 20 24 36 21 13 -3 26 0 30 5 3 5 0 8 -7 7
-23 -6 -19 19 6 32 13 7 27 22 31 33 5 16 8 17 15 6 7 -11 9 -11 9 2 0 9 11
24 24 35 14 10 23 21 20 25 -4 7 26 23 39 20 5 -1 6 3 2 8 -3 6 5 17 19 26 13
9 27 26 30 38 5 18 8 20 16 7 8 -12 10 -10 10 9 0 17 4 22 16 17 8 -3 12 -2 9
3 -3 5 4 16 15 24 11 7 17 17 14 20 -4 4 2 10 12 14 10 3 25 15 32 25 7 10 18
16 23 13 5 -3 6 0 4 8 -3 7 5 19 20 27 14 7 25 16 25 20 0 13 59 68 66 62 4
-4 1 4 -6 16 -8 16 -18 22 -31 19 -10 -3 -21 -2 -23 2 -3 4 -26 6 -53 4 -63
-4 -62 -4 -103 0 -19 2 -41 -1 -49 -7 -11 -8 -13 -8 -7 2 6 10 1 11 -21 7 -15
-4 -32 -6 -38 -6 -88 6 -136 6 -146 0 -15 -9 -41 0 -34 11 3 5 1 12 -5 15 -6
4 -9 1 -8 -6 2 -7 -5 -15 -16 -17 -13 -3 -16 0 -10 10 6 10 5 10 -9 -1 -9 -7
-17 -10 -17 -5 0 5 -5 2 -10 -6 -6 -9 -10 -10 -10 -3 0 11 -7 11 -45 3 -23 -5
-36 1 -29 13 6 10 4 10 -7 0 -17 -17 -43 -17 -33 0 6 9 4 9 -7 1 -20 -15 -75
-12 -71 4 1 8 -2 11 -8 7 -6 -3 -8 -10 -6 -14 3 -4 -16 -7 -42 -6 -32 1 -46 5
-44 14 1 7 -2 10 -7 6 -6 -3 -8 -12 -4 -20 8 -22 -3 -18 -27 8 -18 19 -20 19
-14 3 5 -13 4 -17 -4 -12 -6 3 -13 2 -17 -4 -4 -6 -10 -8 -15 -5 -13 8 -168
10 -176 2 -4 -4 -13 1 -21 11 -8 9 -12 11 -8 5 4 -9 -2 -13 -17 -13 -21 0 -24
-4 -23 -37 1 -21 -3 -44 -9 -52 -8 -11 -8 -13 2 -7 7 4 12 1 12 -9 0 -10 -5
-13 -12 -9 -10 6 -10 4 -2 -7 6 -8 10 -60 9 -131 -1 -65 2 -118 7 -118 5 0 6
-6 2 -12 -5 -9 -2 -9 9 1 11 9 17 10 17 2 0 -6 5 -11 11 -11 5 0 8 3 5 8 -6 9
88 7 105 -3 8 -5 10 -4 5 3 -4 7 -3 12 3 12 5 0 12 -6 14 -12 4 -9 6 -9 6 1 1
12 3 12 14 -1 6 -9 23 -19 37 -22 21 -5 20 -4 -5 9 -32 15 -32 16 2 20 12 1
20 -2 17 -6 -3 -5 -1 -9 5 -9 5 0 13 5 16 10 9 15 25 12 25 -5 0 -9 -6 -12
-17 -8 -11 4 -14 3 -9 -5 4 -7 -2 -21 -12 -33 -12 -12 -22 -16 -26 -10 -6 10
-43 7 -55 -4 -3 -4 7 -4 22 -1 35 6 34 -6 -4 -45 -30 -30 -31 -31 -51 -12 -22
18 -22 18 -6 -6 15 -22 15 -25 -3 -44 -17 -19 -20 -19 -37 -4 -15 14 -19 14
-19 3 0 -8 5 -14 10 -13 5 1 12 -4 15 -12 3 -10 0 -12 -11 -8 -11 4 -14 2 -10
-9 3 -9 -1 -14 -13 -14 -9 0 -15 -3 -12 -6 9 -9 -40 -56 -51 -49 -6 3 -11 11
-11 16 0 6 4 8 8 5 5 -3 9 2 9 10 0 13 -2 13 -15 0 -12 -12 -13 -18 -3 -30 10
-12 6 -21 -23 -50 -19 -20 -39 -36 -46 -36 -6 0 -9 -4 -5 -9 3 -5 -4 -12 -15
-16 -11 -4 -18 -10 -15 -15 3 -5 1 -11 -5 -15 -6 -4 -10 75 -9 232 0 172 4
240 12 245 9 6 9 8 0 8 -17 0 -17 67 0 73 9 4 9 6 0 6 -9 1 -13 23 -13 74 0
45 5 78 13 86 10 11 9 12 -1 6 -11 -5 -13 1 -11 28 4 43 0 48 -40 49 -19 1
-28 5 -24 12 5 8 3 8 -8 0 -8 -5 -21 -10 -29 -9 -8 1 -25 -2 -37 -7 -13 -4
-23 -4 -23 0 0 4 -41 7 -90 7 -50 0 -90 -4 -90 -9 0 -5 -7 -3 -15 4 -16 13
-20 5 -16 -29 2 -8 -3 -10 -11 -6 -10 6 -11 5 -1 -5 10 -11 9 -18 -5 -34 -16
-20 -16 -20 1 -7 10 8 17 9 17 3 0 -6 -8 -16 -17 -22 -16 -10 -16 -11 -1 -6 9
2 19 -2 22 -10 3 -8 1 -14 -5 -14 -6 0 -7 -5 -3 -12 5 -7 2 -9 -9 -5 -12 4
-15 1 -12 -15 3 -11 7 -23 11 -27 4 -3 4 2 1 12 -4 9 -2 17 3 17 6 0 8 -17 5
-41 -4 -30 -2 -38 8 -33 9 6 9 5 0 -7 -6 -8 -10 -26 -9 -40 4 -32 -13 -55 -38
-54 -11 0 -20 -6 -22 -13 -1 -7 0 -8 3 -2 2 5 8 8 13 5 5 -3 -10 -23 -32 -45
-23 -22 -44 -37 -47 -34 -3 4 0 9 7 11 6 3 12 9 12 14 0 6 -3 8 -8 5 -4 -2 -8
15 -8 39 -1 33 2 42 12 38 11 -4 11 -10 3 -26 -11 -21 -11 -21 7 -4 19 18 18
19 -3 34 -27 18 -30 35 -5 27 15 -5 15 -4 1 8 -12 10 -15 31 -15 93 1 44 5 86
10 94 6 10 5 12 -2 7 -16 -10 -15 7 1 23 10 11 9 12 -2 6 -11 -6 -13 -3 -8 14
6 23 -18 55 -34 46 -5 -4 -9 0 -9 7 0 8 -3 9 -8 3 -10 -14 -265 -15 -274 -1
-5 8 -8 7 -8 -1 0 -6 -9 -10 -20 -8 -21 4 -41 -21 -33 -43 3 -7 -1 -20 -9 -29
-7 -9 -8 -14 -2 -10 6 3 11 0 11 -8 0 -8 -5 -11 -11 -8 -6 4 -6 0 1 -8 12 -15
14 -59 3 -59 -3 0 -10 3 -16 8 -5 4 -3 0 6 -8 30 -29 22 -77 -12 -71 -5 0 -8
-4 -8 -10 0 -6 8 -8 18 -5 16 5 18 -2 18 -69 0 -43 -3 -70 -8 -63 -4 8 -8 8
-8 2 0 -6 3 -14 7 -18 4 -3 8 -14 9 -23 2 -9 -22 9 -51 39 -30 31 -57 53 -60
50 -3 -3 -6 2 -6 11 -1 9 -2 23 -3 30 -1 6 5 18 14 25 13 12 13 13 -2 8 -23
-7 -23 2 -1 26 13 15 14 21 4 31 -10 9 -11 9 -6 -4 4 -10 1 -20 -6 -25 -9 -5
-11 1 -6 23 3 18 1 35 -6 43 -10 10 -8 12 6 7 14 -5 16 -3 8 11 -5 9 -8 43 -7
76 1 40 -2 60 -11 63 -7 3 -10 10 -6 17 3 6 -3 2 -15 -8 -12 -11 -22 -15 -22
-10 0 6 -37 9 -85 8 -62 -1 -83 1 -78 10 4 6 -1 5 -10 -3 -9 -7 -24 -11 -32
-7 -8 3 -15 0 -15 -6 0 -7 -4 -7 -12 -1 -12 9 -76 10 -81 2 -24 -42 -27 -50
-17 -44 15 9 11 -104 -4 -124 -8 -11 -8 -13 1 -8 17 10 17 -171 0 -192 -9 -12
-9 -13 1 -7 7 4 12 1 12 -9 0 -9 -4 -14 -8 -11 -5 3 -9 -1 -9 -9 0 -8 4 -12 8
-9 4 2 8 -83 8 -191 0 -128 -4 -195 -11 -195 -5 0 -7 7 -4 16 4 11 2 15 -8 11
-8 -3 -22 3 -32 14 -17 19 -17 20 1 13 13 -5 16 -4 11 4 -4 7 -16 12 -28 12
-13 0 -18 5 -15 14 4 10 1 13 -7 10 -7 -3 -19 3 -27 13 -13 17 -13 17 5 3 14
-10 17 -11 12 -2 -4 7 -19 17 -32 22 -14 6 -29 20 -34 32 -5 13 -9 20 -9 16
-1 -5 -17 7 -37 26 -20 19 -33 39 -29 45 3 6 3 11 -2 10 -21 -4 -33 2 -33 16
0 8 -6 15 -13 15 -15 0 -87 76 -87 91 0 6 -4 7 -10 4 -5 -3 -10 1 -10 9 0 9
-7 16 -17 16 -9 0 -13 3 -9 7 9 10 66 11 66 1 0 -4 5 -8 11 -8 5 0 8 4 5 8 -6
10 35 10 50 0 6 -4 14 -5 18 -1 8 8 126 11 121 2 -2 -3 2 -6 10 -6 8 0 12 4 9
9 -3 4 0 8 6 8 5 0 9 13 8 28 -1 15 2 34 7 41 5 9 4 12 -3 7 -12 -7 -10 53 3
74 5 9 4 11 -3 6 -7 -4 -12 -1 -12 9 0 9 5 13 11 9 8 -4 8 -1 2 12 -5 11 -9
58 -8 105 l0 85 -47 0 c-27 0 -48 -4 -48 -9 0 -4 -8 -4 -17 1 -10 4 -36 7 -58
6 -22 -1 -46 4 -54 10 -11 8 -13 8 -8 -1 4 -6 1 -13 -5 -16 -19 -6 -50 12 -42
25 4 7 3 8 -5 4 -6 -4 -9 -11 -6 -16 3 -5 -20 -8 -52 -7 -41 2 -57 7 -55 16 1
7 -2 10 -7 6 -6 -3 -8 -12 -4 -20 8 -22 -3 -18 -27 8 -13 13 -19 16 -15 6 5
-13 -3 -15 -52 -15 -43 1 -57 5 -55 14 1 8 -2 11 -7 7 -6 -3 -7 -13 -4 -22 5
-12 3 -14 -8 -8 -7 5 -29 9 -49 9 -24 1 -34 5 -32 14 1 8 -2 11 -8 7 -6 -3 -8
-10 -6 -14 3 -4 -16 -7 -42 -6 -32 1 -46 5 -44 14 1 7 -2 10 -7 6 -6 -3 -8
-12 -4 -20 8 -22 -3 -18 -27 8 -16 17 -20 18 -14 4z m1314 -1137 c0 -5 -2 -10
-4 -10 -3 0 -8 5 -11 10 -3 6 -1 10 4 10 6 0 11 -4 11 -10z m10 -84 c0 -3 -4
-8 -10 -11 -5 -3 -10 -1 -10 4 0 6 5 11 10 11 6 0 10 -2 10 -4z m-6 -61 c3 -8
1 -15 -4 -15 -6 0 -10 7 -10 15 0 8 2 15 4 15 2 0 6 -7 10 -15z"/>
<path d="M4255 3101 c-3 -5 -2 -12 3 -15 5 -3 9 1 9 9 0 17 -3 19 -12 6z"/>
<path d="M1807 3079 c7 -7 15 -10 18 -7 3 3 -2 9 -12 12 -14 6 -15 5 -6 -5z"/>
<path d="M2315 3060 c3 -5 8 -10 11 -10 2 0 4 5 4 10 0 6 -5 10 -11 10 -5 0
-7 -4 -4 -10z"/>
<path d="M2250 3001 c0 -11 4 -22 9 -25 4 -3 6 6 3 19 -5 30 -12 33 -12 6z"/>
<path d="M2314 3009 c-3 -6 2 -18 12 -27 17 -16 17 -16 5 0 -7 9 -10 22 -6 28
3 5 4 10 1 10 -3 0 -8 -5 -12 -11z"/>
<path d="M1750 3006 c0 -2 7 -7 16 -10 8 -3 12 -2 9 4 -6 10 -25 14 -25 6z"/>
<path d="M2270 3006 c0 -2 7 -7 16 -10 8 -3 12 -2 9 4 -6 10 -25 14 -25 6z"/>
<path d="M1774 2969 c-3 -6 -2 -15 3 -20 5 -5 9 -1 9 11 0 23 -2 24 -12 9z"/>
<path d="M1834 2935 c0 -13 3 -22 7 -19 8 4 6 30 -2 38 -3 3 -5 -5 -5 -19z"/>
<path d="M3265 2939 c-3 -4 2 -6 10 -5 21 3 28 13 10 13 -9 0 -18 -4 -20 -8z"/>
<path d="M3315 2942 c3 -3 -1 -12 -7 -21 -8 -10 -4 -9 10 3 26 23 26 23 7 23
-8 0 -13 -3 -10 -5z"/>
<path d="M2773 2926 c0 -8 5 -12 10 -9 7 4 8 -1 3 -13 -6 -15 -5 -17 5 -6 11
10 10 15 -2 28 -14 13 -16 13 -16 0z"/>
<path d="M1766 2918 c4 -5 9 -7 12 -4 3 3 15 -2 26 -11 21 -18 21 -18 3 3 -16
20 -52 30 -41 12z"/>
<path d="M2275 2920 c3 -5 8 -10 11 -10 2 0 4 5 4 10 0 6 -5 10 -11 10 -5 0
-7 -4 -4 -10z"/>
<path d="M2317 2903 c-3 -5 -2 -16 2 -25 6 -17 7 -16 18 2 11 16 10 18 -4 13
-11 -4 -14 -3 -9 5 4 7 5 12 2 12 -3 0 -7 -3 -9 -7z"/>
<path d="M3267 2899 c7 -9 11 -18 8 -21 -3 -2 2 -5 10 -5 8 0 17 7 19 14 3 8
1 11 -5 8 -5 -4 -18 -1 -27 7 -15 11 -15 11 -5 -3z"/>
<path d="M1774 2881 c0 -11 4 -17 9 -14 4 2 16 -1 25 -8 9 -8 6 -1 -7 14 -14
15 -25 27 -26 27 0 0 -1 -9 -1 -19z"/>
<path d="M3328 2888 c-3 -7 -7 -17 -8 -23 -1 -5 -6 -19 -10 -30 -6 -16 -4 -21
11 -21 11 0 15 4 9 11 -10 12 -8 34 4 53 4 7 6 15 3 18 -2 3 -7 -1 -9 -8z"/>
<path d="M2810 2880 c0 -5 5 -10 10 -10 6 0 10 5 10 10 0 6 -4 10 -10 10 -5 0
-10 -4 -10 -10z"/>
<path d="M2277 2857 c-3 -8 -2 -20 3 -26 5 -9 8 -4 8 13 0 29 -3 32 -11 13z"/>
<path d="M2765 2860 c-6 -9 11 -50 21 -50 2 0 0 9 -6 19 -13 26 -13 34 2 25 7
-4 8 -3 4 4 -9 15 -13 15 -21 2z"/>
<path d="M2839 2844 c-5 -15 -8 -29 -5 -31 2 -2 8 10 14 26 13 38 5 41 -9 5z"/>
<path d="M3345 2860 c-3 -6 1 -7 9 -4 18 7 21 14 7 14 -6 0 -13 -4 -16 -10z"/>
<path d="M3268 2853 c7 -3 16 -2 19 1 4 3 -2 6 -13 5 -11 0 -14 -3 -6 -6z"/>
<path d="M2310 2830 c6 -11 13 -20 16 -20 2 0 0 9 -6 20 -6 11 -13 20 -16 20
-2 0 0 -9 6 -20z"/>
<path d="M2798 2833 c7 -3 16 -2 19 1 4 3 -2 6 -13 5 -11 0 -14 -3 -6 -6z"/>
<path d="M709 2803 c-13 -16 -12 -17 4 -4 9 7 17 15 17 17 0 8 -8 3 -21 -13z"/>
<path d="M2348 2809 c-2 -7 -14 -14 -27 -16 -13 -2 -20 1 -16 7 3 5 1 10 -5
10 -17 0 -6 -25 11 -25 8 0 20 -4 27 -9 7 -4 16 -5 19 -2 4 3 1 6 -7 6 -10 0
-10 3 0 15 7 9 10 18 7 21 -2 3 -7 0 -9 -7z"/>
<path d="M2851 2804 c0 -11 3 -14 6 -6 3 7 2 16 -1 19 -3 4 -6 -2 -5 -13z"/>
<path d="M2806 2795 c4 -8 8 -15 10 -15 2 0 4 7 4 15 0 8 -4 15 -10 15 -5 0
-7 -7 -4 -15z"/>
<path d="M3276 2802 c-3 -4 4 -9 15 -9 23 -2 25 3 4 10 -8 4 -16 3 -19 -1z"/>
<path d="M4445 2800 c-3 -6 1 -7 9 -4 18 7 21 14 7 14 -6 0 -13 -4 -16 -10z"/>
<path d="M1774 2788 c-4 -7 -3 -8 5 -4 6 4 20 2 29 -6 15 -12 16 -11 3 5 -16
20 -27 22 -37 5z"/>
<path d="M1840 2780 c-9 -6 -10 -10 -3 -10 6 0 15 5 18 10 8 12 4 12 -15 0z"/>
<path d="M2790 2785 c0 -5 5 -17 10 -25 5 -8 10 -10 10 -5 0 6 -5 17 -10 25
-5 8 -10 11 -10 5z"/>
<path d="M2835 2780 c3 -6 1 -10 -6 -10 -7 0 -10 -3 -6 -6 3 -3 13 -2 22 4 16
8 16 9 1 15 -10 4 -15 3 -11 -3z"/>
<path d="M3344 2782 c4 -7 2 -21 -5 -30 -12 -15 -11 -15 6 0 16 15 17 20 6 30
-11 11 -13 10 -7 0z"/>
<path d="M2281 2775 c0 -5 3 -16 8 -23 7 -11 9 -10 14 3 4 9 3 14 -2 10 -5 -3
-12 1 -14 7 -3 7 -6 9 -6 3z"/>
<path d="M1773 2753 c0 -9 4 -10 14 -2 7 6 13 12 13 14 0 1 -6 2 -13 2 -8 0
-14 -6 -14 -14z"/>
<path d="M4375 2760 c-3 -5 -1 -10 4 -10 6 0 11 5 11 10 0 6 -2 10 -4 10 -3 0
-8 -4 -11 -10z"/>
<path d="M1838 2753 c7 -3 16 -2 19 1 4 3 -2 6 -13 5 -11 0 -14 -3 -6 -6z"/>
<path d="M750 2746 c0 -2 7 -7 16 -10 8 -3 12 -2 9 4 -6 10 -25 14 -25 6z"/>
<path d="M1800 2735 c-7 -8 -16 -13 -19 -10 -4 2 -8 -3 -8 -11 0 -11 6 -9 24
8 13 12 23 23 23 25 0 7 -8 2 -20 -12z"/>
<path d="M2306 2734 c-6 -15 -4 -15 11 -3 10 7 20 15 22 16 2 2 -3 3 -11 3 -9
0 -19 -7 -22 -16z"/>
<path d="M2331 2714 c0 -11 3 -14 6 -6 3 7 2 16 -1 19 -3 4 -6 -2 -5 -13z"/>
<path d="M2783 2715 c-7 -8 -9 -16 -4 -19 5 -3 12 1 15 10 8 22 4 25 -11 9z"/>
<path d="M3333 2713 c0 -9 4 -10 14 -2 7 6 13 12 13 14 0 1 -6 2 -13 2 -8 0
-14 -6 -14 -14z"/>
<path d="M1799 2693 c-13 -16 -12 -17 4 -4 16 13 21 21 13 21 -2 0 -10 -8 -17
-17z"/>
<path d="M3275 2700 c-16 -7 -17 -9 -3 -9 9 -1 20 4 23 9 7 11 7 11 -20 0z"/>
<path d="M1491 2683 c7 -12 15 -20 18 -17 3 2 -3 12 -13 22 -17 16 -18 16 -5
-5z"/>
<path d="M1548 2683 c7 -3 16 -2 19 1 4 3 -2 6 -13 5 -11 0 -14 -3 -6 -6z"/>
<path d="M1606 2679 c4 -8 30 -6 38 2 3 3 -5 5 -19 5 -13 0 -22 -3 -19 -7z"/>
<path d="M3314 2675 c3 -23 12 -26 13 -5 1 11 -2 20 -7 20 -4 0 -7 -7 -6 -15z"/>
<path d="M3466 2682 c-3 -5 1 -9 9 -9 8 0 12 4 9 9 -3 4 -7 8 -9 8 -2 0 -6 -4
-9 -8z"/>
<path d="M4297 2675 c-4 -8 -3 -16 1 -19 4 -3 9 4 9 15 2 23 -3 25 -10 4z"/>
<path d="M3435 2669 c-4 -6 -5 -12 -2 -15 2 -3 7 2 10 11 7 17 1 20 -8 4z"/>
<path d="M3547 2666 c-4 -10 -1 -13 8 -9 8 3 12 9 9 14 -7 12 -11 11 -17 -5z"/>
<path d="M1533 2657 c-3 -5 -2 -11 1 -14 3 -4 6 -1 6 6 0 7 4 10 8 7 4 -2 14
-1 22 4 11 7 9 9 -8 7 -13 -1 -26 -5 -29 -10z"/>
<path d="M1755 2663 c3 -3 0 -11 -5 -18 -7 -8 -5 -12 4 -12 14 0 16 22 3 32
-4 3 -5 2 -2 -2z"/>
<path d="M1780 2666 c0 -2 8 -10 18 -17 15 -13 16 -12 3 4 -13 16 -21 21 -21
13z"/>
<path d="M3346 2662 c-2 -4 4 -8 14 -8 10 0 16 4 14 8 -3 4 -9 8 -14 8 -5 0
-11 -4 -14 -8z"/>
<path d="M3393 2647 c0 -8 6 -14 14 -14 9 0 10 4 2 14 -6 7 -12 13 -14 13 -1
0 -2 -6 -2 -13z"/>
<path d="M1560 2640 c-8 -5 -10 -10 -5 -10 6 0 17 5 25 10 8 5 11 10 5 10 -5
0 -17 -5 -25 -10z"/>
<path d="M1659 2633 c-12 -16 -12 -17 2 -6 9 7 19 10 22 6 4 -3 7 -1 7 5 0 17
-16 15 -31 -5z"/>
<path d="M3271 2631 c-9 -17 -8 -18 11 -13 13 3 17 7 10 10 -7 2 -10 8 -6 13
3 5 3 9 0 9 -3 0 -10 -9 -15 -19z"/>
<path d="M1599 2638 c-6 -21 -5 -37 2 -32 5 3 6 10 3 16 -5 8 -1 9 10 5 10 -4
15 -3 11 3 -5 9 -24 14 -26 8z"/>
<path d="M886 2618 c3 -5 10 -6 15 -3 13 9 11 12 -6 12 -8 0 -12 -4 -9 -9z"/>
<path d="M1540 2610 c6 -11 13 -20 16 -20 2 0 0 9 -6 20 -6 11 -13 20 -16 20
-2 0 0 -9 6 -20z"/>
<path d="M3313 2613 c0 -9 4 -10 14 -2 7 6 13 12 13 14 0 1 -6 2 -13 2 -8 0
-14 -6 -14 -14z"/>
<path d="M3521 2616 c-9 -11 -9 -16 1 -22 7 -4 10 -4 6 1 -4 4 -3 14 3 22 6 7
9 13 6 13 -2 0 -10 -6 -16 -14z"/>
<path d="M1730 2616 c0 -2 8 -10 18 -17 15 -13 16 -12 3 4 -13 16 -21 21 -21
13z"/>
<path d="M3409 2603 c-13 -16 -12 -17 4 -4 9 7 17 15 17 17 0 8 -8 3 -21 -13z"/>
<path d="M3274 2598 c-4 -7 -4 -10 1 -6 4 4 15 2 24 -5 14 -11 14 -10 2 6 -16
20 -18 21 -27 5z"/>
<path d="M3541 2594 c0 -11 3 -14 6 -6 3 7 2 16 -1 19 -3 4 -6 -2 -5 -13z"/>
<path d="M935 2591 c-3 -5 -2 -12 3 -15 5 -3 9 1 9 9 0 17 -3 19 -12 6z"/>
<path d="M1790 2596 c0 -2 8 -10 18 -17 15 -13 16 -12 3 4 -13 16 -21 21 -21
13z"/>
<path d="M3333 2566 c0 -15 22 -15 34 0 4 5 4 6 -1 2 -5 -4 -14 -3 -21 2 -8 7
-12 5 -12 -4z"/>
<path d="M1606 2558 c3 -5 9 -7 12 -4 3 3 12 0 21 -6 13 -10 14 -10 4 2 -15
16 -46 23 -37 8z"/>
<path d="M3470 2563 c0 -6 8 -17 18 -24 16 -13 16 -13 2 6 -8 11 -16 22 -17
24 -2 2 -3 0 -3 -6z"/>
<path d="M3389 2543 c-13 -16 -12 -17 4 -4 16 13 21 21 13 21 -2 0 -10 -8 -17
-17z"/>
<path d="M1835 2542 c3 -3 -3 -15 -12 -26 -14 -15 -14 -18 -2 -8 9 6 18 11 20
9 2 -1 3 0 2 2 -2 2 2 9 7 16 7 8 5 12 -5 12 -8 0 -13 -3 -10 -5z"/>
<path d="M3268 2533 c7 -3 16 -2 19 1 4 3 -2 6 -13 5 -11 0 -14 -3 -6 -6z"/>
<path d="M3330 2536 c0 -2 8 -10 18 -17 15 -13 16 -12 3 4 -13 16 -21 21 -21
13z"/>
<path d="M1651 2514 c0 -11 3 -14 6 -6 3 7 2 16 -1 19 -3 4 -6 -2 -5 -13z"/>
<path d="M1703 2519 c9 -6 15 -14 12 -19 -3 -5 -1 -11 4 -14 5 -4 8 0 7 6 -3
21 -16 38 -29 38 -7 0 -4 -5 6 -11z"/>
<path d="M3312 2525 c4 -4 4 -13 -2 -19 -6 -8 -2 -12 13 -13 12 0 16 1 9 4 -6
3 -10 9 -7 13 3 5 0 12 -7 16 -7 4 -10 4 -6 -1z"/>
<path d="M3390 2516 c0 -2 8 -10 18 -17 15 -13 16 -12 3 4 -13 16 -21 21 -21
13z"/>
<path d="M1750 2496 c7 -7 13 -7 20 0 6 6 3 10 -10 10 -13 0 -16 -4 -10 -10z"/>
<path d="M4080 2500 c-9 -6 -10 -10 -3 -10 6 0 15 5 18 10 8 12 4 12 -15 0z"/>
<path d="M4120 2500 c-12 -7 -10 -9 7 -7 12 0 19 5 17 9 -6 10 -6 10 -24 -2z"/>
<path d="M3382 2484 c10 -10 20 -16 22 -13 3 3 -5 11 -17 18 -21 13 -21 12 -5
-5z"/>
<path d="M1794 2482 c4 -3 14 -7 22 -8 9 -1 13 0 10 4 -4 3 -14 7 -22 8 -9 1
-13 0 -10 -4z"/>
<path d="M4093 2465 c0 -8 4 -12 9 -9 5 3 6 10 3 15 -9 13 -12 11 -12 -6z"/>
<path d="M3323 2462 c-7 -4 -9 -13 -4 -21 6 -9 10 -7 14 8 3 12 4 21 4 21 -1
0 -7 -4 -14 -8z"/>
<path d="M1080 2440 c-9 -6 -10 -10 -3 -10 6 0 15 5 18 10 8 12 4 12 -15 0z"/>
<path d="M1740 2440 c18 -12 30 -13 30 -2 0 4 -10 9 -22 9 -18 2 -20 0 -8 -7z"/>
<path d="M4013 2431 c0 -11 5 -18 9 -15 4 3 5 11 1 19 -7 21 -12 19 -10 -4z"/>
<path d="M3288 2433 c6 -2 9 -10 6 -15 -4 -7 -2 -8 5 -4 13 9 5 26 -12 25 -9
0 -8 -2 1 -6z"/>
<path d="M1787 2414 c5 -13 3 -15 -7 -9 -9 5 -11 4 -6 -3 4 -7 11 -12 17 -12
12 0 12 27 -1 35 -6 4 -7 -1 -3 -11z"/>
<path d="M4055 2420 c3 -5 8 -10 11 -10 2 0 4 5 4 10 0 6 -5 10 -11 10 -5 0
-7 -4 -4 -10z"/>
<path d="M3266 2403 c-6 -14 -5 -15 5 -6 7 7 10 15 7 18 -3 3 -9 -2 -12 -12z"/>
<path d="M3308 2401 c-7 -10 -16 -19 -21 -19 -4 0 -13 -3 -20 -6 -6 -2 -2 -4
11 -2 18 2 65 46 48 46 -3 0 -11 -8 -18 -19z"/>
<path d="M3340 2399 c0 -5 5 -7 10 -4 6 3 10 8 10 11 0 2 -4 4 -10 4 -5 0 -10
-5 -10 -11z"/>
<path d="M3316 2375 c-3 -9 -6 -22 -5 -28 0 -7 5 -1 10 12 5 13 8 26 5 28 -2
2 -6 -3 -10 -12z"/>
<path d="M3995 2379 c-3 -4 2 -6 10 -5 21 3 28 13 10 13 -9 0 -18 -4 -20 -8z"/>
<path d="M1810 2365 c0 -8 29 -12 39 -5 9 5 4 8 -13 8 -14 0 -26 -2 -26 -3z"/>
<path d="M3272 2340 c-18 -29 -15 -38 4 -12 9 13 14 25 12 27 -2 2 -9 -5 -16
-15z"/>
<path d="M1173 2335 c0 -8 4 -12 9 -9 5 3 6 10 3 15 -9 13 -12 11 -12 -6z"/>
<path d="M1216 2302 c-2 -4 -1 -14 4 -22 7 -11 9 -9 7 8 -1 24 -3 26 -11 14z"/>
<path d="M3874 2262 c4 -3 14 -7 22 -8 9 -1 13 0 10 4 -4 3 -14 7 -22 8 -9 1
-13 0 -10 -4z"/>
<path d="M1246 2242 c-3 -5 1 -9 9 -9 8 0 12 4 9 9 -3 4 -7 8 -9 8 -2 0 -6 -4
-9 -8z"/>
<path d="M3836 2218 c3 -4 11 -5 19 -1 21 7 19 12 -4 10 -11 0 -18 -5 -15 -9z"/>
<path d="M2260 2173 c5 -2 8 -9 4 -14 -3 -5 0 -9 6 -9 15 0 7 23 -8 26 -7 1
-8 0 -2 -3z"/>
<path d="M2845 2170 c-3 -5 -3 -10 1 -10 4 0 -1 -7 -12 -15 -18 -14 -17 -14 9
-3 17 7 23 14 16 19 -8 5 -7 8 2 12 9 3 10 6 2 6 -6 1 -15 -3 -18 -9z"/>
<path d="M1366 2138 c3 -5 10 -6 15 -3 13 9 11 12 -6 12 -8 0 -12 -4 -9 -9z"/>
<path d="M1417 2115 c-4 -8 -3 -16 1 -19 4 -3 9 4 9 15 2 23 -3 25 -10 4z"/>
<path d="M2850 2120 c0 -5 -6 -8 -12 -6 -7 1 -10 1 -5 -1 4 -3 4 -9 1 -15 -3
-5 3 -4 15 4 22 14 28 28 11 28 -5 0 -10 -4 -10 -10z"/>
<path d="M2257 2103 c7 -2 9 -11 6 -19 -3 -8 0 -14 7 -14 6 0 9 4 5 9 -3 6 2
14 11 19 14 8 11 9 -12 9 -16 0 -24 -2 -17 -4z"/>
<path d="M3714 2102 c4 -3 14 -7 22 -8 9 -1 13 0 10 4 -4 3 -14 7 -22 8 -9 1
-13 0 -10 -4z"/>
<path d="M2310 2091 c0 -10 19 -25 25 -20 1 2 -3 10 -11 17 -8 7 -14 8 -14 3z"/>
<path d="M2330 2096 c0 -2 7 -7 16 -10 8 -3 12 -2 9 4 -6 10 -25 14 -25 6z"/>
<path d="M2855 2080 c3 -5 8 -10 11 -10 2 0 4 5 4 10 0 6 -5 10 -11 10 -5 0
-7 -4 -4 -10z"/>
<path d="M2756 2063 c-6 -14 -5 -15 5 -6 7 7 10 15 7 18 -3 3 -9 -2 -12 -12z"/>
<path d="M2285 2060 c-3 -5 -2 -10 4 -10 5 0 13 5 16 10 3 6 2 10 -4 10 -5 0
-13 -4 -16 -10z"/>
<path d="M2350 2060 c0 -5 5 -10 10 -10 6 0 10 5 10 10 0 6 -4 10 -10 10 -5 0
-10 -4 -10 -10z"/>
<path d="M2837 2057 c-3 -8 -2 -20 3 -26 5 -9 8 -4 8 13 0 29 -3 32 -11 13z"/>
<path d="M1475 2049 c-4 -6 -5 -12 -2 -15 2 -3 7 2 10 11 7 17 1 20 -8 4z"/>
<path d="M2250 2050 c0 -6 7 -13 15 -16 8 -4 12 -10 9 -15 -3 -5 3 -6 12 -2
13 5 15 3 9 -7 -6 -9 -4 -11 5 -5 10 6 9 11 -5 22 -11 7 -23 13 -28 13 -4 0
-5 5 -2 10 3 6 1 10 -4 10 -6 0 -11 -5 -11 -10z"/>
<path d="M1386 2042 c-3 -5 1 -9 9 -9 8 0 12 4 9 9 -3 4 -7 8 -9 8 -2 0 -6 -4
-9 -8z"/>
<path d="M2310 2041 c0 -6 7 -8 15 -4 10 3 15 1 13 -8 -2 -7 6 -14 17 -16 18
-3 18 -2 2 5 -10 4 -18 12 -17 17 0 6 -6 11 -14 13 -9 2 -16 -1 -16 -7z"/>
<path d="M2786 2036 c10 -8 21 -12 24 -10 5 6 -21 24 -34 24 -6 0 -1 -6 10
-14z"/>
<path d="M2750 2021 c0 -6 7 -8 15 -5 11 5 13 2 9 -10 -3 -9 -2 -16 4 -16 17
0 6 35 -11 38 -10 2 -17 -1 -17 -7z"/>
<path d="M2257 1999 c7 -7 15 -10 18 -7 3 3 -2 9 -12 12 -14 6 -15 5 -6 -5z"/>
<path d="M2317 2003 c-13 -12 -7 -23 11 -22 10 0 12 3 4 6 -6 2 -10 9 -6 14 6
10 0 12 -9 2z"/>
<path d="M1535 1991 c-3 -5 -2 -12 3 -15 5 -3 9 1 9 9 0 17 -3 19 -12 6z"/>
<path d="M3615 1991 c-3 -5 -2 -12 3 -15 5 -3 9 1 9 9 0 17 -3 19 -12 6z"/>
<path d="M2790 1980 c-8 -5 -10 -10 -5 -10 6 0 17 5 25 10 8 5 11 10 5 10 -5
0 -17 -5 -25 -10z"/>
<path d="M2279 1968 c15 -21 31 -23 31 -6 0 6 -3 8 -7 5 -3 -4 -13 -1 -22 6
-14 11 -14 10 -2 -5z"/>
<path d="M2823 1959 c9 -6 15 -14 12 -20 -4 -5 -1 -9 4 -9 6 0 11 4 11 8 0 12
-22 32 -34 32 -6 0 -3 -5 7 -11z"/>
<path d="M3526 1958 c3 -5 10 -6 15 -3 13 9 11 12 -6 12 -8 0 -12 -4 -9 -9z"/>
<path d="M2755 1949 c-4 -6 -5 -12 -2 -15 2 -3 7 2 10 11 7 17 1 20 -8 4z"/>
<path d="M2335 1941 c6 -11 4 -13 -10 -7 -18 7 -18 6 0 -14 10 -11 19 -20 20
-20 6 0 -3 41 -10 47 -4 5 -4 2 0 -6z"/>
<path d="M2774 1938 c-4 -7 -3 -8 4 -4 7 4 12 1 12 -7 0 -8 7 -20 15 -27 12
-10 12 -7 -1 19 -17 34 -20 36 -30 19z"/>
<path d="M3574 1942 c4 -3 14 -7 22 -8 9 -1 13 0 10 4 -4 3 -14 7 -22 8 -9 1
-13 0 -10 -4z"/>
<path d="M2267 1924 c7 -3 9 -13 6 -22 -4 -14 -3 -14 5 -2 12 16 7 30 -11 29
-9 0 -9 -2 0 -5z"/>
<path d="M2831 1887 c-13 -21 -12 -21 5 -5 10 10 16 20 13 22 -3 3 -11 -5 -18
-17z"/>
<path d="M1596 1887 c3 -10 9 -15 12 -12 3 3 0 11 -7 18 -10 9 -11 8 -5 -6z"/>
<path d="M2291 1884 c0 -11 3 -14 6 -6 3 7 2 16 -1 19 -3 4 -6 -2 -5 -13z"/>
<path d="M2754 1874 c1 -8 4 -15 7 -16 2 -2 3 -1 2 1 -2 2 2 9 7 16 7 8 5 12
-4 12 -8 0 -13 -6 -12 -13z"/>
<path d="M2793 1883 c4 -3 1 -13 -6 -22 -11 -14 -10 -14 5 -2 16 12 16 31 1
31 -4 0 -3 -3 0 -7z"/>
<path d="M1630 1865 c0 -7 30 -13 34 -7 3 4 -4 9 -15 9 -10 1 -19 0 -19 -2z"/>
<path d="M2316 1858 c3 -5 10 -6 15 -3 13 9 11 12 -6 12 -8 0 -12 -4 -9 -9z"/>
<path d="M2560 1866 c0 -2 7 -7 16 -10 8 -3 12 -2 9 4 -6 10 -25 14 -25 6z"/>
<path d="M2846 1862 c-3 -5 1 -9 9 -9 8 0 12 4 9 9 -3 4 -7 8 -9 8 -2 0 -6 -4
-9 -8z"/>
<path d="M3433 1845 c0 -8 4 -12 9 -9 5 3 6 10 3 15 -9 13 -12 11 -12 -6z"/>
<path d="M2280 1840 c18 -12 30 -13 30 -2 0 4 -10 9 -22 9 -18 2 -20 0 -8 -7z"/>
<path d="M2353 1843 c4 -3 1 -13 -6 -22 -11 -14 -10 -14 5 -2 16 12 16 31 1
31 -4 0 -3 -3 0 -7z"/>
<path d="M2535 1839 c-3 -4 2 -6 10 -5 21 3 28 13 10 13 -9 0 -18 -4 -20 -8z"/>
<path d="M1690 1819 c0 -5 5 -7 10 -4 6 3 10 8 10 11 0 2 -4 4 -10 4 -5 0 -10
-5 -10 -11z"/>
<path d="M1737 1795 c-4 -8 -3 -16 1 -19 4 -3 9 4 9 15 2 23 -3 25 -10 4z"/>
<path d="M2520 1800 c-9 -6 -10 -10 -3 -10 6 0 15 5 18 10 8 12 4 12 -15 0z"/>
<path d="M2776 1798 c3 -5 10 -6 15 -3 13 9 11 12 -6 12 -8 0 -12 -4 -9 -9z"/>
<path d="M2835 1781 c-3 -5 -2 -12 3 -15 5 -3 9 1 9 9 0 17 -3 19 -12 6z"/>
<path d="M2269 1763 c-13 -16 -12 -17 4 -4 16 13 21 21 13 21 -2 0 -10 -8 -17
-17z"/>
<path d="M2313 1735 c0 -8 4 -12 9 -9 5 3 6 10 3 15 -9 13 -12 11 -12 -6z"/>
<path d="M2776 1738 c3 -4 11 -5 19 -1 21 7 19 12 -4 10 -11 0 -18 -5 -15 -9z"/>
<path d="M3355 1739 c-3 -4 2 -6 10 -5 21 3 28 13 10 13 -9 0 -18 -4 -20 -8z"/>
<path d="M2695 1729 c-4 -6 -5 -12 -2 -15 2 -3 7 2 10 11 7 17 1 20 -8 4z"/>
<path d="M2270 1722 c0 -5 7 -9 15 -9 8 0 12 4 9 9 -3 4 -9 8 -15 8 -5 0 -9
-4 -9 -8z"/>
<path d="M3336 1698 c3 -4 11 -5 19 -1 21 7 19 12 -4 10 -11 0 -18 -5 -15 -9z"/>
<path d="M2295 1689 c-4 -6 -14 -8 -24 -4 -13 5 -14 4 -3 -6 10 -11 15 -10 29
4 10 9 14 17 11 17 -4 0 -10 -5 -13 -11z"/>
<path d="M1710 1679 c0 -5 5 -7 10 -4 6 3 10 8 10 11 0 2 -4 4 -10 4 -5 0 -10
-5 -10 -11z"/>
<path d="M2430 1681 c0 -6 4 -13 10 -16 6 -3 7 1 4 9 -7 18 -14 21 -14 7z"/>
<path d="M2817 1675 c-4 -8 -3 -16 1 -19 4 -3 9 4 9 15 2 23 -3 25 -10 4z"/>
<path d="M2276 1647 c3 -10 9 -15 12 -12 3 3 0 11 -7 18 -10 9 -11 8 -5 -6z"/>
<path d="M1870 1625 c0 -7 30 -13 34 -7 3 4 -4 9 -15 9 -10 1 -19 0 -19 -2z"/>
<path d="M3199 1613 c-13 -16 -12 -17 4 -4 16 13 21 21 13 21 -2 0 -10 -8 -17
-17z"/>
<path d="M3240 1620 c-8 -5 -10 -10 -5 -10 6 0 17 5 25 10 8 5 11 10 5 10 -5
0 -17 -5 -25 -10z"/>
<path d="M1945 1580 c-3 -6 1 -7 9 -4 18 7 21 14 7 14 -6 0 -13 -4 -16 -10z"/>
<path d="M3206 1578 c3 -5 10 -6 15 -3 13 9 11 12 -6 12 -8 0 -12 -4 -9 -9z"/>
<path d="M3145 1520 c-3 -6 1 -7 9 -4 18 7 21 14 7 14 -6 0 -13 -4 -16 -10z"/>
</g>
</svg>
